GoogleSansCode.glyphspackage
{
glyphname = exclam;
kernLeft = exclam_left;
kernRight = exclam_right;
layers = (
{
layerId = "68A78E10-2392-4B34-B44D-B6A5B48D0FD1";
shapes = (
{
closed = 1;
nodes = (
(697,550,l),
(725,1492,l),
(475,1492,l),
(503,550,l)
);
},
{
closed = 1;
nodes = (
(692,-29,o),
(764,44,o),
(764,135,cs),
(764,226,o),
(692,299,o),
(600,299,cs),
(508,299,o),
(436,226,o),
(436,135,cs),
(436,44,o),
(508,-29,o),
(600,-29,cs)
);
}
);
width = 1200;
},
{
layerId = "50ED6B91-33B7-40F5-8C2C-B1BEC3C77CF0";
shapes = (
{
closed = 1;
nodes = (
(749,597,l),
(787,1494,l),
(413,1494,l),
(451,597,l)
);
},
{
closed = 1;
nodes = (
(716,-34,o),
(806,57,o),
(806,172,cs),
(806,287,o),
(716,378,o),
(600,378,cs),
(484,378,o),
(394,287,o),
(394,172,cs),
(394,57,o),
(484,-34,o),
(600,-34,cs)
);
}
);
width = 1200;
},
{
layerId = "B7DB719C-51CF-4BC3-BA18-7A6A1AAC666B";
shapes = (
{
closed = 1;
nodes = (
(673,509,l),
(697,1492,l),
(503,1492,l),
(527,509,l)
);
},
{
closed = 1;
nodes = (
(684,-30,o),
(750,37,o),
(750,120,cs),
(750,203,o),
(684,270,o),
(600,270,cs),
(516,270,o),
(450,203,o),
(450,120,cs),
(450,37,o),
(516,-30,o),
(600,-30,cs)
);
}
);
width = 1200;
},
{
layerId = "D010C1AA-6BDD-4F06-9849-880CC2F29E88";
shapes = (
{
closed = 1;
nodes = (
(766,625,l),
(812,1494,l),
(388,1494,l),
(434,625,l)
);
},
{
closed = 1;
nodes = (
(723,-35,o),
(820,62,o),
(820,185,cs),
(820,308,o),
(724,404,o),
(600,404,cs),
(477,404,o),
(380,308,o),
(380,185,cs),
(380,62,o),
(477,-35,o),
(600,-35,cs)
);
}
);
width = 1200;
},
{
associatedMasterId = "B7DB719C-51CF-4BC3-BA18-7A6A1AAC666B";
layerId = "027679DE-E556-467F-AC06-14F80D1DAB88";
name = "11 Nov 24, 09:39";
shapes = (
{
closed = 1;
nodes = (
(665,509,l),
(685,1459,l),
(515,1459,l),
(535,509,l)
);
},
{
closed = 1;
nodes = (
(684,-30,o),
(750,37,o),
(750,120,cs),
(750,203,o),
(684,270,o),
(600,270,cs),
(516,270,o),
(450,203,o),
(450,120,cs),
(450,37,o),
(516,-30,o),
(600,-30,cs)
);
}
);
width = 1200;
},
{
associatedMasterId = "68A78E10-2392-4B34-B44D-B6A5B48D0FD1";
layerId = "3DF9FE0E-3291-47EF-AD25-0476A4091A88";
name = "11 Nov 24, 09:39";
shapes = (
{
closed = 1;
nodes = (
(681,519,l),
(708,1459,l),
(492,1459,l),
(519,519,l)
);
},
{
closed = 1;
nodes = (
(692,-29,o),
(764,44,o),
(764,135,cs),
(764,226,o),
(692,299,o),
(600,299,cs),
(508,299,o),
(436,226,o),
(436,135,cs),
(436,44,o),
(508,-29,o),
(600,-29,cs)
);
}
);
width = 1200;
},
{
associatedMasterId = "50ED6B91-33B7-40F5-8C2C-B1BEC3C77CF0";
layerId = "41EFFBE4-7837-47AC-A291-D1B83E20940A";
name = "11 Nov 24, 09:39";
shapes = (
{
closed = 1;
nodes = (
(730,549,l),
(777,1460,l),
(424,1460,l),
(470,549,l)
);
},
{
closed = 1;
nodes = (
(715,-25,o),
(806,66,o),
(806,181,cs),
(806,296,o),
(716,386,o),
(600,386,cs),
(485,386,o),
(394,296,o),
(394,181,cs),
(394,66,o),
(485,-25,o),
(600,-25,cs)
);
}
);
width = 1200;
},
{
associatedMasterId = "D010C1AA-6BDD-4F06-9849-880CC2F29E88";
layerId = "AD5468A7-6975-400C-9486-87848799FC8F";
name = "11 Nov 24, 09:39";
shapes = (
{
closed = 1;
nodes = (
(746,559,l),
(800,1460,l),
(401,1460,l),
(454,559,l)
);
},
{
closed = 1;
nodes = (
(723,-24,o),
(820,73,o),
(820,196,cs),
(820,319,o),
(724,415,o),
(600,415,cs),
(477,415,o),
(380,319,o),
(380,196,cs),
(380,73,o),
(477,-24,o),
(600,-24,cs)
);
}
);
width = 1200;
},
{
layerId = "88819DE9-98C6-4AB7-BD8B-9DF84621D738";
shapes = (
{
closed = 1;
nodes = (
(387,509,l),
(411,1492,l),
(217,1492,l),
(241,509,l)
);
},
{
closed = 1;
nodes = (
(398,-30,o),
(464,37,o),
(464,120,cs),
(464,203,o),
(398,270,o),
(314,270,cs),
(230,270,o),
(164,203,o),
(164,120,cs),
(164,37,o),
(230,-30,o),
(314,-30,cs)
);
}
);
width = 608;
},
{
layerId = "ED70A957-8AC1-4977-BF37-207E470C4E2E";
shapes = (
{
closed = 1;
nodes = (
(413,550,l),
(441,1492,l),
(191,1492,l),
(219,550,l)
);
},
{
closed = 1;
nodes = (
(408,-29,o),
(480,44,o),
(480,135,cs),
(480,226,o),
(408,299,o),
(316,299,cs),
(224,299,o),
(152,226,o),
(152,135,cs),
(152,44,o),
(224,-29,o),
(316,-29,cs)
);
}
);
width = 612;
},
{
layerId = "1DFF5E08-190B-46A4-A527-B6F0A79A5803";
shapes = (
{
closed = 1;
nodes = (
(471,597,l),
(509,1494,l),
(135,1494,l),
(173,597,l)
);
},
{
closed = 1;
nodes = (
(438,-34,o),
(528,57,o),
(528,172,cs),
(528,287,o),
(438,378,o),
(322,378,cs),
(206,378,o),
(116,287,o),
(116,172,cs),
(116,57,o),
(206,-34,o),
(322,-34,cs)
);
}
);
width = 624;
},
{
layerId = "F632DC93-BEFD-4CC9-8CF6-AC4643A09268";
shapes = (
{
closed = 1;
nodes = (
(490,625,l),
(536,1494,l),
(112,1494,l),
(158,625,l)
);
},
{
closed = 1;
nodes = (
(447,-35,o),
(544,62,o),
(544,185,cs),
(544,308,o),
(448,404,o),
(324,404,cs),
(201,404,o),
(104,308,o),
(104,185,cs),
(104,62,o),
(201,-35,o),
(324,-35,cs)
);
}
);
width = 648;
}
);
unicode = 33;
}
{
glyphname = numbersign;
kernLeft = numbersign_left;
kernRight = numbersign_right;
layers = (
{
layerId = "68A78E10-2392-4B34-B44D-B6A5B48D0FD1";
shapes = (
{
closed = 1;
nodes = (
(777,-17,l),
(986,1449,l),
(833,1449,l),
(624,-17,l)
);
},
{
closed = 1;
nodes = (
(367,-17,l),
(576,1449,l),
(423,1449,l),
(214,-17,l)
);
},
{
closed = 1;
nodes = (
(1081,366,l),
(1081,516,l),
(43,516,l),
(43,366,l)
);
},
{
closed = 1;
nodes = (
(1157,916,l),
(1157,1066,l),
(116,1066,l),
(116,916,l)
);
}
);
width = 1200;
},
{
layerId = "50ED6B91-33B7-40F5-8C2C-B1BEC3C77CF0";
shapes = (
{
closed = 1;
nodes = (
(832,-17,l),
(1035,1450,l),
(805,1450,l),
(602,-17,l)
);
},
{
closed = 1;
nodes = (
(395,-17,l),
(598,1450,l),
(368,1450,l),
(165,-17,l)
);
},
{
closed = 1;
nodes = (
(1104,339,l),
(1104,570,l),
(23,570,l),
(23,339,l)
);
},
{
closed = 1;
nodes = (
(1177,863,l),
(1177,1094,l),
(96,1094,l),
(96,863,l)
);
}
);
width = 1200;
},
{
layerId = "B7DB719C-51CF-4BC3-BA18-7A6A1AAC666B";
shapes = (
{
closed = 1;
nodes = (
(759,-17,l),
(970,1449,l),
(842,1449,l),
(631,-17,l)
);
},
{
closed = 1;
nodes = (
(358,-17,l),
(569,1449,l),
(441,1449,l),
(230,-17,l)
);
},
{
closed = 1;
nodes = (
(1073,375,l),
(1073,499,l),
(50,499,l),
(50,375,l)
);
},
{
closed = 1;
nodes = (
(1150,933,l),
(1150,1057,l),
(123,1057,l),
(123,933,l)
);
}
);
width = 1200;
},
{
layerId = "D010C1AA-6BDD-4F06-9849-880CC2F29E88";
shapes = (
{
closed = 1;
nodes = (
(850,-17,l),
(1051,1450,l),
(796,1450,l),
(595,-17,l)
);
},
{
closed = 1;
nodes = (
(405,-17,l),
(605,1450,l),
(350,1450,l),
(150,-17,l)
);
},
{
closed = 1;
nodes = (
(1112,330,l),
(1112,588,l),
(16,588,l),
(16,330,l)
);
},
{
closed = 1;
nodes = (
(1184,845,l),
(1184,1103,l),
(89,1103,l),
(89,845,l)
);
}
);
width = 1200;
},
{
layerId = "88819DE9-98C6-4AB7-BD8B-9DF84621D738";
shapes = (
{
closed = 1;
nodes = (
(783,-17,l),
(994,1449,l),
(866,1449,l),
(655,-17,l)
);
},
{
closed = 1;
nodes = (
(382,-17,l),
(593,1449,l),
(465,1449,l),
(254,-17,l)
);
},
{
closed = 1;
nodes = (
(1097,375,l),
(1097,499,l),
(74,499,l),
(74,375,l)
);
},
{
closed = 1;
nodes = (
(1174,933,l),
(1174,1057,l),
(147,1057,l),
(147,933,l)
);
}
);
width = 1248;
},
{
layerId = "ED70A957-8AC1-4977-BF37-207E470C4E2E";
shapes = (
{
closed = 1;
nodes = (
(806,-17,l),
(1015,1449,l),
(862,1449,l),
(653,-17,l)
);
},
{
closed = 1;
nodes = (
(396,-17,l),
(605,1449,l),
(452,1449,l),
(243,-17,l)
);
},
{
closed = 1;
nodes = (
(1110,366,l),
(1110,516,l),
(72,516,l),
(72,366,l)
);
},
{
closed = 1;
nodes = (
(1186,916,l),
(1186,1066,l),
(145,1066,l),
(145,916,l)
);
}
);
width = 1258;
},
{
layerId = "1DFF5E08-190B-46A4-A527-B6F0A79A5803";
shapes = (
{
closed = 1;
nodes = (
(875,-17,l),
(1078,1450,l),
(848,1450,l),
(645,-17,l)
);
},
{
closed = 1;
nodes = (
(438,-17,l),
(641,1450,l),
(411,1450,l),
(208,-17,l)
);
},
{
closed = 1;
nodes = (
(1147,339,l),
(1147,570,l),
(66,570,l),
(66,339,l)
);
},
{
closed = 1;
nodes = (
(1220,863,l),
(1220,1094,l),
(139,1094,l),
(139,863,l)
);
}
);
width = 1286;
},
{
layerId = "F632DC93-BEFD-4CC9-8CF6-AC4643A09268";
shapes = (
{
closed = 1;
nodes = (
(898,-17,l),
(1099,1450,l),
(844,1450,l),
(643,-17,l)
);
},
{
closed = 1;
nodes = (
(453,-17,l),
(653,1450,l),
(398,1450,l),
(198,-17,l)
);
},
{
closed = 1;
nodes = (
(1160,330,l),
(1160,588,l),
(64,588,l),
(64,330,l)
);
},
{
closed = 1;
nodes = (
(1232,845,l),
(1232,1103,l),
(137,1103,l),
(137,845,l)
);
}
);
width = 1296;
}
);
unicode = 35;
}
{
color = 4;
glyphname = dollar;
kernLeft = dollar_left;
kernRight = dollar_right;
layers = (
{
layerId = "68A78E10-2392-4B34-B44D-B6A5B48D0FD1";
shapes = (
{
closed = 1;
nodes = (
(889,0,o),
(1064,145,o),
(1064,379,cs),
(1064,394,ls),
(1064,581,o),
(971,704,o),
(748,790,cs),
(546,868,ls),
(409,921,o),
(358,977,o),
(358,1078,cs),
(358,1087,ls),
(358,1208,o),
(448,1278,o),
(607,1278,cs),
(744,1278,o),
(827,1218,o),
(880,1083,c),
(1043,1150,l),
(976,1336,o),
(829,1432,o),
(608,1432,cs),
(349,1432,o),
(179,1295,o),
(179,1084,cs),
(179,1068,ls),
(179,906,o),
(280,790,o),
(476,714,cs),
(678,636,ls),
(827,578,o),
(881,509,o),
(881,388,cs),
(881,377,ls),
(881,237,o),
(785,154,o),
(621,154,cs),
(447,154,o),
(341,242,o),
(296,421,c),
(128,366,l),
(186,134,o),
(362,0,o),
(617,0,cs)
);
},
{
closed = 1;
nodes = (
(684,-236,l),
(684,62,l),
(678,99,l),
(678,736,l),
(548,736,l),
(548,99,l),
(542,62,l),
(542,-236,l)
);
},
{
closed = 1;
nodes = (
(678,759,l),
(678,1339,l),
(684,1381,l),
(684,1668,l),
(542,1668,l),
(542,1381,l),
(548,1339,l),
(548,759,l)
);
}
);
width = 1200;
},
{
layerId = "B7DB719C-51CF-4BC3-BA18-7A6A1AAC666B";
shapes = (
{
closed = 1;
nodes = (
(878,0,o),
(1045,138,o),
(1045,368,cs),
(1045,384,ls),
(1045,568,o),
(956,690,o),
(737,776,cs),
(532,856,ls),
(386,913,o),
(332,976,o),
(332,1089,cs),
(332,1100,ls),
(332,1235,o),
(432,1313,o),
(611,1313,cs),
(758,1313,o),
(847,1250,o),
(907,1104,c),
(1026,1162,l),
(957,1342,o),
(816,1432,o),
(602,1432,cs),
(358,1432,o),
(196,1300,o),
(196,1098,cs),
(196,1080,ls),
(196,922,o),
(294,808,o),
(478,736,cs),
(682,656,ls),
(846,592,o),
(903,515,o),
(903,379,cs),
(903,367,ls),
(903,211,o),
(797,119,o),
(616,119,cs),
(428,119,o),
(319,211,o),
(272,399,c),
(145,357,l),
(202,132,o),
(370,0,o),
(617,0,cs)
);
},
{
closed = 1;
nodes = (
(665,-226,l),
(665,46,l),
(661,83,l),
(661,921,l),
(559,921,l),
(559,83,l),
(555,46,l),
(555,-226,l)
);
},
{
closed = 1;
nodes = (
(661,598,l),
(661,1354,l),
(665,1386,l),
(665,1658,l),
(555,1658,l),
(555,1386,l),
(559,1354,l),
(559,598,l)
);
}
);
width = 1200;
},
{
associatedMasterId = "68A78E10-2392-4B34-B44D-B6A5B48D0FD1";
attr = {
coordinates = (
599.99,
0
);
};
layerId = "7E6B4603-9446-4794-9670-B649FC5C049F";
name = "{599}";
shapes = (
{
closed = 1;
nodes = (
(910,0,o),
(1103,158,o),
(1103,402,cs),
(1103,414,ls),
(1103,608,o),
(1000,731,o),
(771,817,cs),
(573,891,ls),
(455,935,o),
(410,979,o),
(410,1057,cs),
(410,1062,ls),
(410,1153,o),
(480,1209,o),
(600,1209,cs),
(717,1209,o),
(788,1153,o),
(827,1042,c),
(1077,1127,l),
(1014,1323,o),
(855,1432,o),
(619,1432,cs),
(331,1432,o),
(146,1285,o),
(146,1057,cs),
(146,1044,ls),
(146,874,o),
(252,752,o),
(473,670,cs),
(670,597,ls),
(789,553,o),
(837,498,o),
(837,405,cs),
(837,397,ls),
(837,289,o),
(760,225,o),
(632,225,cs),
(486,225,o),
(384,305,o),
(345,465,c),
(93,385,l),
(153,139,o),
(347,0,o),
(618,0,cs)
);
},
{
closed = 1;
nodes = (
(709,-236,l),
(709,91,l),
(703,137,l),
(703,719,l),
(520,719,l),
(520,137,l),
(514,91,l),
(514,-236,l)
);
},
{
closed = 1;
nodes = (
(703,776,l),
(703,1302,l),
(709,1352,l),
(709,1668,l),
(514,1668,l),
(514,1352,l),
(520,1302,l),
(520,776,l)
);
}
);
width = 1200;
},
{
associatedMasterId = "B7DB719C-51CF-4BC3-BA18-7A6A1AAC666B";
layerId = "4C5182BA-A7B6-4E14-8F46-9D7BF1C3AF41";
name = intermediate_Q;
shapes = (
{
closed = 1;
nodes = (
(878,0,o),
(1045,138,o),
(1045,368,cs),
(1045,384,ls),
(1045,568,o),
(956,690,o),
(737,776,cs),
(532,856,ls),
(386,913,o),
(332,976,o),
(332,1089,cs),
(332,1100,ls),
(332,1235,o),
(432,1313,o),
(611,1313,cs),
(758,1313,o),
(847,1250,o),
(907,1104,c),
(1026,1162,l),
(957,1342,o),
(816,1432,o),
(602,1432,cs),
(358,1432,o),
(196,1300,o),
(196,1098,cs),
(196,1080,ls),
(196,922,o),
(294,808,o),
(478,736,cs),
(682,656,ls),
(846,592,o),
(903,515,o),
(903,379,cs),
(903,367,ls),
(903,211,o),
(797,119,o),
(616,119,cs),
(428,119,o),
(319,211,o),
(272,399,c),
(145,357,l),
(202,132,o),
(370,0,o),
(617,0,cs)
);
},
{
closed = 1;
nodes = (
(665,-226,l),
(665,25,l),
(665,38,l),
(665,61,l),
(555,61,l),
(555,38,l),
(555,25,l),
(555,-226,l)
);
},
{
closed = 1;
nodes = (
(665,1378,l),
(665,1406,l),
(665,1418,l),
(665,1658,l),
(555,1658,l),
(555,1418,l),
(555,1406,l),
(555,1378,l)
);
}
);
width = 1200;
},
{
associatedMasterId = "D010C1AA-6BDD-4F06-9849-880CC2F29E88";
layerId = "3B87FD5C-7034-435B-91C4-28EC5268BE61";
name = "2 Dec 24, 10:28";
shapes = (
{
closed = 1;
nodes = (
(932,0,o),
(1141,172,o),
(1141,424,cs),
(1141,434,ls),
(1141,634,o),
(1030,759,o),
(793,845,cs),
(601,915,ls),
(502,951,o),
(462,981,o),
(462,1035,cs),
(462,1036,ls),
(462,1099,o),
(512,1139,o),
(592,1139,cs),
(689,1139,o),
(748,1089,o),
(773,1000,c),
(1111,1103,l),
(1052,1311,o),
(881,1432,o),
(631,1432,cs),
(313,1432,o),
(112,1275,o),
(112,1029,cs),
(112,1020,ls),
(112,842,o),
(224,714,o),
(469,626,cs),
(662,557,ls),
(751,525,o),
(793,486,o),
(793,423,cs),
(793,417,ls),
(793,341,o),
(736,295,o),
(642,295,cs),
(524,295,o),
(428,367,o),
(393,509,c),
(59,403,l),
(121,143,o),
(331,0,o),
(618,0,cs)
);
},
{
closed = 1;
nodes = (
(756,-236,l),
(756,128,l),
(756,233,l),
(756,696,l),
(504,696,l),
(504,233,l),
(504,128,l),
(504,-236,l)
);
},
{
closed = 1;
nodes = (
(756,754,l),
(756,1243,l),
(756,1326,l),
(756,1668,l),
(504,1668,l),
(504,1326,l),
(504,1243,l),
(504,754,l)
);
}
);
width = 1200;
},
{
layerId = "D010C1AA-6BDD-4F06-9849-880CC2F29E88";
name = ExtraBold;
shapes = (
{
closed = 1;
nodes = (
(932,0,o),
(1141,172,o),
(1141,424,cs),
(1141,434,ls),
(1141,634,o),
(1030,759,o),
(793,845,cs),
(601,915,ls),
(502,951,o),
(462,981,o),
(462,1035,cs),
(462,1036,ls),
(462,1099,o),
(512,1139,o),
(592,1139,cs),
(689,1139,o),
(748,1089,o),
(773,1000,c),
(1111,1103,l),
(1052,1311,o),
(881,1432,o),
(631,1432,cs),
(313,1432,o),
(112,1275,o),
(112,1029,cs),
(112,1020,ls),
(112,842,o),
(224,714,o),
(469,626,cs),
(662,557,ls),
(751,525,o),
(793,486,o),
(793,423,cs),
(793,417,ls),
(793,341,o),
(736,295,o),
(642,295,cs),
(524,295,o),
(428,367,o),
(393,509,c),
(59,403,l),
(121,143,o),
(331,0,o),
(618,0,cs)
);
},
{
closed = 1;
nodes = (
(776,-236,l),
(776,88,l),
(776,119,l),
(776,156,l),
(484,156,l),
(484,119,l),
(484,88,l),
(484,-236,l)
);
},
{
closed = 1;
nodes = (
(776,1302,l),
(776,1349,l),
(776,1383,l),
(776,1668,l),
(484,1668,l),
(484,1383,l),
(484,1349,l),
(484,1302,l)
);
}
);
width = 1200;
},
{
associatedMasterId = "68A78E10-2392-4B34-B44D-B6A5B48D0FD1";
attr = {
coordinates = (
600,
0
);
};
layerId = "D4F7D328-0A1D-4E41-8FFA-345B9EAFEAC0";
name = "{600}";
shapes = (
{
closed = 1;
nodes = (
(910,0,o),
(1103,158,o),
(1103,402,cs),
(1103,414,ls),
(1103,608,o),
(1000,731,o),
(771,817,cs),
(573,891,ls),
(455,935,o),
(410,979,o),
(410,1057,cs),
(410,1062,ls),
(410,1153,o),
(480,1209,o),
(600,1209,cs),
(717,1209,o),
(788,1153,o),
(827,1042,c),
(1077,1127,l),
(1014,1323,o),
(855,1432,o),
(619,1432,cs),
(331,1432,o),
(146,1285,o),
(146,1057,cs),
(146,1044,ls),
(146,874,o),
(252,752,o),
(473,670,cs),
(670,597,ls),
(789,553,o),
(837,498,o),
(837,405,cs),
(837,397,ls),
(837,289,o),
(760,225,o),
(632,225,cs),
(486,225,o),
(384,305,o),
(345,465,c),
(93,385,l),
(153,139,o),
(347,0,o),
(618,0,cs)
);
},
{
closed = 1;
nodes = (
(709,-236,l),
(709,91,l),
(709,137,l),
(709,189,l),
(514,189,l),
(514,137,l),
(514,91,l),
(514,-236,l)
);
},
{
closed = 1;
nodes = (
(709,1256,l),
(709,1302,l),
(709,1352,l),
(709,1668,l),
(514,1668,l),
(514,1352,l),
(514,1302,l),
(514,1256,l)
);
}
);
width = 1200;
},
{
associatedMasterId = "50ED6B91-33B7-40F5-8C2C-B1BEC3C77CF0";
background = {
shapes = (
{
closed = 1;
nodes = (
(959,0,o),
(1148,180,o),
(1148,427,c),
(1148,427,l),
(1148,639,o),
(1045,755,o),
(742,846,cs),
(601,888,o),
(511,921,o),
(470,945,cs),
(429,968,o),
(408,1004,o),
(408,1051,c),
(408,1051,l),
(408,1130,o),
(465,1179,o),
(602,1179,cs),
(685,1179,o),
(743,1161,o),
(795,1125,cs),
(848,1086,o),
(891,1021,o),
(891,1021,c),
(891,1021,o),
(1118,1154,o),
(1118,1154,c),
(1118,1154,o),
(1061,1266,o),
(971,1330,cs),
(878,1396,o),
(765,1432,o),
(612,1432,cs),
(293,1432,o),
(107,1272,o),
(107,1040,c),
(107,1040,l),
(107,835,o),
(212,722,o),
(531,634,cs),
(661,598,o),
(746,565,o),
(786,534,cs),
(825,503,o),
(845,462,o),
(845,410,cs),
(845,408,ls),
(845,319,o),
(777,259,o),
(617,259,cs),
(526,259,o),
(454,280,o),
(398,324,cs),
(335,372,o),
(286,463,o),
(286,463,c),
(286,463,o),
(51,321,o),
(51,321,c),
(51,321,o),
(110,188,o),
(211,115,cs),
(312,41,o),
(446,0,o),
(623,0,cs)
);
},
{
closed = 1;
nodes = (
(531,-166,o),
(561,-166,o),
(621,-166,cs),
(682,-166,o),
(712,-166,o),
(712,-166,c),
(712,-166,o),
(712,-138,o),
(712,-81,cs),
(712,179,l),
(531,179,l),
(531,-81,ls),
(531,-138,o),
(531,-166,o),
(531,-166,c)
);
},
{
closed = 1;
nodes = (
(713,1248,l),
(712,1521,ls),
(712,1572,o),
(712,1598,o),
(712,1598,c),
(712,1598,o),
(681,1598,o),
(620,1598,cs),
(561,1598,o),
(531,1598,o),
(531,1598,c),
(531,1598,o),
(531,1572,o),
(531,1521,cs),
(531,1247,l),
(531,1247,l)
);
}
);
};
layerId = "DB3DABD9-D1DE-403E-B6AE-0F52BECBB485";
name = "2 Dec 24, 10:41";
shapes = (
{
closed = 1;
nodes = (
(921,0,o),
(1122,165,o),
(1122,413,cs),
(1122,424,ls),
(1122,621,o),
(1015,745,o),
(782,831,cs),
(587,903,ls),
(478,943,o),
(436,980,o),
(436,1046,cs),
(436,1049,ls),
(436,1126,o),
(496,1174,o),
(596,1174,cs),
(703,1174,o),
(768,1121,o),
(800,1021,c),
(1094,1115,l),
(1033,1317,o),
(868,1432,o),
(625,1432,cs),
(322,1432,o),
(129,1280,o),
(129,1043,cs),
(129,1032,ls),
(129,858,o),
(238,733,o),
(471,648,cs),
(666,577,ls),
(770,539,o),
(815,492,o),
(815,414,cs),
(815,407,ls),
(815,315,o),
(748,260,o),
(637,260,cs),
(505,260,o),
(406,336,o),
(369,487,c),
(76,394,l),
(137,141,o),
(339,0,o),
(618,0,cs)
);
},
{
closed = 1;
nodes = (
(733,-236,l),
(733,104,l),
(733,156,l),
(733,711,l),
(511,711,l),
(511,156,l),
(511,104,l),
(511,-236,l)
);
},
{
closed = 1;
nodes = (
(733,753,l),
(733,1252,l),
(733,1337,l),
(733,1668,l),
(511,1668,l),
(511,1337,l),
(511,1252,l),
(511,753,l)
);
}
);
width = 1200;
},
{
background = {
shapes = (
{
closed = 1;
nodes = (
(959,0,o),
(1148,180,o),
(1148,427,c),
(1148,427,l),
(1148,639,o),
(1045,755,o),
(742,846,cs),
(601,888,o),
(511,921,o),
(470,945,cs),
(429,968,o),
(408,1004,o),
(408,1051,c),
(408,1051,l),
(408,1130,o),
(465,1179,o),
(602,1179,cs),
(685,1179,o),
(743,1161,o),
(795,1125,cs),
(848,1086,o),
(891,1021,o),
(891,1021,c),
(891,1021,o),
(1118,1154,o),
(1118,1154,c),
(1118,1154,o),
(1061,1266,o),
(971,1330,cs),
(878,1396,o),
(765,1432,o),
(612,1432,cs),
(293,1432,o),
(107,1272,o),
(107,1040,c),
(107,1040,l),
(107,835,o),
(212,722,o),
(531,634,cs),
(661,598,o),
(746,565,o),
(786,534,cs),
(825,503,o),
(845,462,o),
(845,410,cs),
(845,408,ls),
(845,319,o),
(777,259,o),
(617,259,cs),
(526,259,o),
(454,280,o),
(398,324,cs),
(335,372,o),
(286,463,o),
(286,463,c),
(286,463,o),
(51,321,o),
(51,321,c),
(51,321,o),
(110,188,o),
(211,115,cs),
(312,41,o),
(446,0,o),
(623,0,cs)
);
},
{
closed = 1;
nodes = (
(531,-166,o),
(561,-166,o),
(621,-166,cs),
(682,-166,o),
(712,-166,o),
(712,-166,c),
(712,-166,o),
(712,-138,o),
(712,-81,cs),
(712,179,l),
(531,179,l),
(531,-81,ls),
(531,-138,o),
(531,-166,o),
(531,-166,c)
);
},
{
closed = 1;
nodes = (
(713,1248,l),
(712,1521,ls),
(712,1572,o),
(712,1598,o),
(712,1598,c),
(712,1598,o),
(681,1598,o),
(620,1598,cs),
(561,1598,o),
(531,1598,o),
(531,1598,c),
(531,1598,o),
(531,1572,o),
(531,1521,cs),
(531,1247,l),
(531,1247,l)
);
}
);
};
layerId = "50ED6B91-33B7-40F5-8C2C-B1BEC3C77CF0";
name = Bold;
shapes = (
{
closed = 1;
nodes = (
(921,0,o),
(1122,165,o),
(1122,413,cs),
(1122,424,ls),
(1122,621,o),
(1015,745,o),
(782,831,cs),
(587,903,ls),
(478,943,o),
(436,980,o),
(436,1046,cs),
(436,1049,ls),
(436,1126,o),
(496,1174,o),
(596,1174,cs),
(703,1174,o),
(768,1121,o),
(800,1021,c),
(1094,1115,l),
(1033,1317,o),
(868,1432,o),
(625,1432,cs),
(322,1432,o),
(129,1280,o),
(129,1043,cs),
(129,1032,ls),
(129,858,o),
(238,733,o),
(471,648,cs),
(666,577,ls),
(770,539,o),
(815,492,o),
(815,414,cs),
(815,407,ls),
(815,315,o),
(748,260,o),
(637,260,cs),
(505,260,o),
(406,336,o),
(369,487,c),
(76,394,l),
(137,141,o),
(339,0,o),
(618,0,cs)
);
},
{
closed = 1;
nodes = (
(747,-236,l),
(747,104,l),
(747,134,l),
(747,181,l),
(505,181,l),
(505,134,l),
(505,104,l),
(505,-236,l)
);
},
{
closed = 1;
nodes = (
(747,1243,l),
(747,1315,l),
(747,1355,l),
(747,1668,l),
(505,1668,l),
(505,1355,l),
(505,1315,l),
(505,1243,l)
);
}
);
width = 1200;
},
{
layerId = "88819DE9-98C6-4AB7-BD8B-9DF84621D738";
shapes = (
{
closed = 1;
nodes = (
(823,0,o),
(990,138,o),
(990,368,cs),
(990,384,ls),
(990,568,o),
(901,690,o),
(682,776,cs),
(477,856,ls),
(331,913,o),
(277,976,o),
(277,1089,cs),
(277,1100,ls),
(277,1235,o),
(377,1313,o),
(556,1313,cs),
(703,1313,o),
(792,1250,o),
(852,1104,c),
(971,1162,l),
(902,1342,o),
(761,1432,o),
(547,1432,cs),
(303,1432,o),
(141,1300,o),
(141,1098,cs),
(141,1080,ls),
(141,922,o),
(239,808,o),
(423,736,cs),
(627,656,ls),
(791,592,o),
(848,515,o),
(848,379,cs),
(848,367,ls),
(848,211,o),
(742,119,o),
(561,119,cs),
(373,119,o),
(264,211,o),
(217,399,c),
(90,357,l),
(147,132,o),
(315,0,o),
(562,0,cs)
);
},
{
closed = 1;
nodes = (
(610,-226,l),
(610,46,l),
(606,83,l),
(606,921,l),
(504,921,l),
(504,83,l),
(500,46,l),
(500,-226,l)
);
},
{
closed = 1;
nodes = (
(606,598,l),
(606,1354,l),
(610,1386,l),
(610,1658,l),
(500,1658,l),
(500,1386,l),
(504,1354,l),
(504,598,l)
);
}
);
width = 1090;
},
{
associatedMasterId = "88819DE9-98C6-4AB7-BD8B-9DF84621D738";
layerId = "CD39B936-6FF2-4009-94D6-84514735373C";
name = intermediate_Q;
shapes = (
{
closed = 1;
nodes = (
(878,0,o),
(1045,138,o),
(1045,368,cs),
(1045,384,ls),
(1045,568,o),
(956,690,o),
(737,776,cs),
(532,856,ls),
(386,913,o),
(332,976,o),
(332,1089,cs),
(332,1100,ls),
(332,1235,o),
(432,1313,o),
(611,1313,cs),
(758,1313,o),
(847,1250,o),
(907,1104,c),
(1026,1162,l),
(957,1342,o),
(816,1432,o),
(602,1432,cs),
(358,1432,o),
(196,1300,o),
(196,1098,cs),
(196,1080,ls),
(196,922,o),
(294,808,o),
(478,736,cs),
(682,656,ls),
(846,592,o),
(903,515,o),
(903,379,cs),
(903,367,ls),
(903,211,o),
(797,119,o),
(616,119,cs),
(428,119,o),
(319,211,o),
(272,399,c),
(145,357,l),
(202,132,o),
(370,0,o),
(617,0,cs)
);
},
{
closed = 1;
nodes = (
(665,-226,l),
(665,25,l),
(665,38,l),
(665,61,l),
(555,61,l),
(555,38,l),
(555,25,l),
(555,-226,l)
);
},
{
closed = 1;
nodes = (
(665,1378,l),
(665,1406,l),
(665,1418,l),
(665,1658,l),
(555,1658,l),
(555,1418,l),
(555,1406,l),
(555,1378,l)
);
}
);
width = 1200;
},
{
layerId = "ED70A957-8AC1-4977-BF37-207E470C4E2E";
shapes = (
{
closed = 1;
nodes = (
(852,0,o),
(1027,145,o),
(1027,379,cs),
(1027,394,ls),
(1027,581,o),
(934,704,o),
(711,790,cs),
(509,868,ls),
(372,921,o),
(321,977,o),
(321,1078,cs),
(321,1087,ls),
(321,1208,o),
(411,1278,o),
(570,1278,cs),
(707,1278,o),
(790,1218,o),
(843,1083,c),
(1006,1150,l),
(939,1336,o),
(792,1432,o),
(571,1432,cs),
(312,1432,o),
(142,1295,o),
(142,1084,cs),
(142,1068,ls),
(142,906,o),
(243,790,o),
(439,714,cs),
(641,636,ls),
(790,578,o),
(844,509,o),
(844,388,cs),
(844,377,ls),
(844,237,o),
(748,154,o),
(584,154,cs),
(410,154,o),
(304,242,o),
(259,421,c),
(91,366,l),
(149,134,o),
(325,0,o),
(580,0,cs)
);
},
{
closed = 1;
nodes = (
(647,-236,l),
(647,62,l),
(641,99,l),
(641,736,l),
(511,736,l),
(511,99,l),
(505,62,l),
(505,-236,l)
);
},
{
closed = 1;
nodes = (
(641,759,l),
(641,1339,l),
(647,1381,l),
(647,1668,l),
(505,1668,l),
(505,1381,l),
(511,1339,l),
(511,759,l)
);
}
);
width = 1126;
},
{
associatedMasterId = "ED70A957-8AC1-4977-BF37-207E470C4E2E";
attr = {
coordinates = (
599.99,
1
);
};
layerId = "656EBFEB-3111-4A73-BA5D-12C2E742F685";
name = "{599}";
shapes = (
{
closed = 1;
nodes = (
(910,0,o),
(1103,158,o),
(1103,402,cs),
(1103,414,ls),
(1103,608,o),
(1000,731,o),
(771,817,cs),
(573,891,ls),
(455,935,o),
(410,979,o),
(410,1057,cs),
(410,1062,ls),
(410,1153,o),
(480,1209,o),
(600,1209,cs),
(717,1209,o),
(788,1153,o),
(827,1042,c),
(1077,1127,l),
(1014,1323,o),
(855,1432,o),
(619,1432,cs),
(331,1432,o),
(146,1285,o),
(146,1057,cs),
(146,1044,ls),
(146,874,o),
(252,752,o),
(473,670,cs),
(670,597,ls),
(789,553,o),
(837,498,o),
(837,405,cs),
(837,397,ls),
(837,289,o),
(760,225,o),
(632,225,cs),
(486,225,o),
(384,305,o),
(345,465,c),
(93,385,l),
(153,139,o),
(347,0,o),
(618,0,cs)
);
},
{
closed = 1;
nodes = (
(709,-236,l),
(709,91,l),
(703,137,l),
(703,719,l),
(520,719,l),
(520,137,l),
(514,91,l),
(514,-236,l)
);
},
{
closed = 1;
nodes = (
(703,776,l),
(703,1302,l),
(709,1352,l),
(709,1668,l),
(514,1668,l),
(514,1352,l),
(520,1302,l),
(520,776,l)
);
}
);
width = 1200;
},
{
associatedMasterId = "ED70A957-8AC1-4977-BF37-207E470C4E2E";
attr = {
coordinates = (
600,
1
);
};
layerId = "43107D7F-1272-479F-86B4-D698991CB96F";
name = "{600}";
shapes = (
{
closed = 1;
nodes = (
(910,0,o),
(1103,158,o),
(1103,402,cs),
(1103,414,ls),
(1103,608,o),
(1000,731,o),
(771,817,cs),
(573,891,ls),
(455,935,o),
(410,979,o),
(410,1057,cs),
(410,1062,ls),
(410,1153,o),
(480,1209,o),
(600,1209,cs),
(717,1209,o),
(788,1153,o),
(827,1042,c),
(1077,1127,l),
(1014,1323,o),
(855,1432,o),
(619,1432,cs),
(331,1432,o),
(146,1285,o),
(146,1057,cs),
(146,1044,ls),
(146,874,o),
(252,752,o),
(473,670,cs),
(670,597,ls),
(789,553,o),
(837,498,o),
(837,405,cs),
(837,397,ls),
(837,289,o),
(760,225,o),
(632,225,cs),
(486,225,o),
(384,305,o),
(345,465,c),
(93,385,l),
(153,139,o),
(347,0,o),
(618,0,cs)
);
},
{
closed = 1;
nodes = (
(709,-236,l),
(709,91,l),
(709,137,l),
(709,189,l),
(514,189,l),
(514,137,l),
(514,91,l),
(514,-236,l)
);
},
{
closed = 1;
nodes = (
(709,1256,l),
(709,1302,l),
(709,1352,l),
(709,1668,l),
(514,1668,l),
(514,1352,l),
(514,1302,l),
(514,1256,l)
);
}
);
width = 1200;
},
{
associatedMasterId = "1DFF5E08-190B-46A4-A527-B6F0A79A5803";
background = {
shapes = (
{
closed = 1;
nodes = (
(959,0,o),
(1148,180,o),
(1148,427,c),
(1148,427,l),
(1148,639,o),
(1045,755,o),
(742,846,cs),
(601,888,o),
(511,921,o),
(470,945,cs),
(429,968,o),
(408,1004,o),
(408,1051,c),
(408,1051,l),
(408,1130,o),
(465,1179,o),
(602,1179,cs),
(685,1179,o),
(743,1161,o),
(795,1125,cs),
(848,1086,o),
(891,1021,o),
(891,1021,c),
(891,1021,o),
(1118,1154,o),
(1118,1154,c),
(1118,1154,o),
(1061,1266,o),
(971,1330,cs),
(878,1396,o),
(765,1432,o),
(612,1432,cs),
(293,1432,o),
(107,1272,o),
(107,1040,c),
(107,1040,l),
(107,835,o),
(212,722,o),
(531,634,cs),
(661,598,o),
(746,565,o),
(786,534,cs),
(825,503,o),
(845,462,o),
(845,410,cs),
(845,408,ls),
(845,319,o),
(777,259,o),
(617,259,cs),
(526,259,o),
(454,280,o),
(398,324,cs),
(335,372,o),
(286,463,o),
(286,463,c),
(286,463,o),
(51,321,o),
(51,321,c),
(51,321,o),
(110,188,o),
(211,115,cs),
(312,41,o),
(446,0,o),
(623,0,cs)
);
},
{
closed = 1;
nodes = (
(531,-166,o),
(561,-166,o),
(621,-166,cs),
(682,-166,o),
(712,-166,o),
(712,-166,c),
(712,-166,o),
(712,-138,o),
(712,-81,cs),
(712,179,l),
(531,179,l),
(531,-81,ls),
(531,-138,o),
(531,-166,o),
(531,-166,c)
);
},
{
closed = 1;
nodes = (
(713,1248,l),
(712,1521,ls),
(712,1572,o),
(712,1598,o),
(712,1598,c),
(712,1598,o),
(681,1598,o),
(620,1598,cs),
(561,1598,o),
(531,1598,o),
(531,1598,c),
(531,1598,o),
(531,1572,o),
(531,1521,cs),
(531,1247,l),
(531,1247,l)
);
}
);
};
layerId = "B96894D3-7194-4F9D-9D86-BD7199634AC0";
name = "2 Dec 24, 10:41";
shapes = (
{
closed = 1;
nodes = (
(921,0,o),
(1122,165,o),
(1122,413,cs),
(1122,424,ls),
(1122,621,o),
(1015,745,o),
(782,831,cs),
(587,903,ls),
(478,943,o),
(436,980,o),
(436,1046,cs),
(436,1049,ls),
(436,1126,o),
(496,1174,o),
(596,1174,cs),
(703,1174,o),
(768,1121,o),
(800,1021,c),
(1094,1115,l),
(1033,1317,o),
(868,1432,o),
(625,1432,cs),
(322,1432,o),
(129,1280,o),
(129,1043,cs),
(129,1032,ls),
(129,858,o),
(238,733,o),
(471,648,cs),
(666,577,ls),
(770,539,o),
(815,492,o),
(815,414,cs),
(815,407,ls),
(815,315,o),
(748,260,o),
(637,260,cs),
(505,260,o),
(406,336,o),
(369,487,c),
(76,394,l),
(137,141,o),
(339,0,o),
(618,0,cs)
);
},
{
closed = 1;
nodes = (
(733,-236,l),
(733,104,l),
(733,156,l),
(733,711,l),
(511,711,l),
(511,156,l),
(511,104,l),
(511,-236,l)
);
},
{
closed = 1;
nodes = (
(733,753,l),
(733,1252,l),
(733,1337,l),
(733,1668,l),
(511,1668,l),
(511,1337,l),
(511,1252,l),
(511,753,l)
);
}
);
width = 1200;
},
{
background = {
shapes = (
{
closed = 1;
nodes = (
(955,0,o),
(1144,180,o),
(1144,427,c),
(1144,427,l),
(1144,639,o),
(1041,755,o),
(738,846,cs),
(597,888,o),
(507,921,o),
(466,945,cs),
(425,968,o),
(404,1004,o),
(404,1051,c),
(404,1051,l),
(404,1130,o),
(461,1179,o),
(598,1179,cs),
(681,1179,o),
(739,1161,o),
(791,1125,cs),
(844,1086,o),
(887,1021,o),
(887,1021,c),
(887,1021,o),
(1114,1154,o),
(1114,1154,c),
(1114,1154,o),
(1057,1266,o),
(967,1330,cs),
(874,1396,o),
(761,1432,o),
(608,1432,cs),
(289,1432,o),
(103,1272,o),
(103,1040,c),
(103,1040,l),
(103,835,o),
(208,722,o),
(527,634,cs),
(657,598,o),
(742,565,o),
(782,534,cs),
(821,503,o),
(841,462,o),
(841,410,cs),
(841,408,ls),
(841,319,o),
(773,259,o),
(613,259,cs),
(522,259,o),
(450,280,o),
(394,324,cs),
(331,372,o),
(282,463,o),
(282,463,c),
(282,463,o),
(47,321,o),
(47,321,c),
(47,321,o),
(106,188,o),
(207,115,cs),
(308,41,o),
(442,0,o),
(619,0,cs)
);
},
{
closed = 1;
nodes = (
(527,-166,o),
(557,-166,o),
(617,-166,cs),
(678,-166,o),
(708,-166,o),
(708,-166,c),
(708,-166,o),
(708,-138,o),
(708,-81,cs),
(708,179,l),
(527,179,l),
(527,-81,ls),
(527,-138,o),
(527,-166,o),
(527,-166,c)
);
},
{
closed = 1;
nodes = (
(709,1248,l),
(708,1521,ls),
(708,1572,o),
(708,1598,o),
(708,1598,c),
(708,1598,o),
(677,1598,o),
(616,1598,cs),
(557,1598,o),
(527,1598,o),
(527,1598,c),
(527,1598,o),
(527,1572,o),
(527,1521,cs),
(527,1247,l),
(527,1247,l)
);
}
);
};
layerId = "1DFF5E08-190B-46A4-A527-B6F0A79A5803";
name = Bold;
shapes = (
{
closed = 1;
nodes = (
(917,0,o),
(1118,165,o),
(1118,413,cs),
(1118,424,ls),
(1118,621,o),
(1011,745,o),
(778,831,cs),
(583,903,ls),
(474,943,o),
(432,980,o),
(432,1046,cs),
(432,1049,ls),
(432,1126,o),
(492,1174,o),
(592,1174,cs),
(699,1174,o),
(764,1121,o),
(796,1021,c),
(1090,1115,l),
(1029,1317,o),
(864,1432,o),
(621,1432,cs),
(318,1432,o),
(125,1280,o),
(125,1043,cs),
(125,1032,ls),
(125,858,o),
(234,733,o),
(467,648,cs),
(662,577,ls),
(766,539,o),
(811,492,o),
(811,414,cs),
(811,407,ls),
(811,315,o),
(744,260,o),
(633,260,cs),
(501,260,o),
(402,336,o),
(365,487,c),
(72,394,l),
(133,141,o),
(335,0,o),
(614,0,cs)
);
},
{
closed = 1;
nodes = (
(743,-236,l),
(743,104,l),
(743,134,l),
(743,181,l),
(501,181,l),
(501,134,l),
(501,104,l),
(501,-236,l)
);
},
{
closed = 1;
nodes = (
(743,1243,l),
(743,1315,l),
(743,1355,l),
(743,1668,l),
(501,1668,l),
(501,1355,l),
(501,1315,l),
(501,1243,l)
);
}
);
width = 1196;
},
{
associatedMasterId = "F632DC93-BEFD-4CC9-8CF6-AC4643A09268";
layerId = "8028A33C-7C31-437A-BE2F-63A0678B3A72";
name = "2 Dec 24, 10:28";
shapes = (
{
closed = 1;
nodes = (
(932,0,o),
(1141,172,o),
(1141,424,cs),
(1141,434,ls),
(1141,634,o),
(1030,759,o),
(793,845,cs),
(601,915,ls),
(502,951,o),
(462,981,o),
(462,1035,cs),
(462,1036,ls),
(462,1099,o),
(512,1139,o),
(592,1139,cs),
(689,1139,o),
(748,1089,o),
(773,1000,c),
(1111,1103,l),
(1052,1311,o),
(881,1432,o),
(631,1432,cs),
(313,1432,o),
(112,1275,o),
(112,1029,cs),
(112,1020,ls),
(112,842,o),
(224,714,o),
(469,626,cs),
(662,557,ls),
(751,525,o),
(793,486,o),
(793,423,cs),
(793,417,ls),
(793,341,o),
(736,295,o),
(642,295,cs),
(524,295,o),
(428,367,o),
(393,509,c),
(59,403,l),
(121,143,o),
(331,0,o),
(618,0,cs)
);
},
{
closed = 1;
nodes = (
(756,-236,l),
(756,128,l),
(756,233,l),
(756,696,l),
(504,696,l),
(504,233,l),
(504,128,l),
(504,-236,l)
);
},
{
closed = 1;
nodes = (
(756,754,l),
(756,1243,l),
(756,1326,l),
(756,1668,l),
(504,1668,l),
(504,1326,l),
(504,1243,l),
(504,754,l)
);
}
);
width = 1200;
},
{
layerId = "F632DC93-BEFD-4CC9-8CF6-AC4643A09268";
name = ExtraBold;
shapes = (
{
closed = 1;
nodes = (
(923,0,o),
(1132,172,o),
(1132,424,cs),
(1132,434,ls),
(1132,634,o),
(1021,759,o),
(784,845,cs),
(592,915,ls),
(493,951,o),
(453,981,o),
(453,1035,cs),
(453,1036,ls),
(453,1099,o),
(503,1139,o),
(583,1139,cs),
(680,1139,o),
(739,1089,o),
(764,1000,c),
(1102,1103,l),
(1043,1311,o),
(872,1432,o),
(622,1432,cs),
(304,1432,o),
(103,1275,o),
(103,1029,cs),
(103,1020,ls),
(103,842,o),
(215,714,o),
(460,626,cs),
(653,557,ls),
(742,525,o),
(784,486,o),
(784,423,cs),
(784,417,ls),
(784,341,o),
(727,295,o),
(633,295,cs),
(515,295,o),
(419,367,o),
(384,509,c),
(50,403,l),
(112,143,o),
(322,0,o),
(609,0,cs)
);
},
{
closed = 1;
nodes = (
(767,-236,l),
(767,88,l),
(767,119,l),
(767,156,l),
(475,156,l),
(475,119,l),
(475,88,l),
(475,-236,l)
);
},
{
closed = 1;
nodes = (
(767,1302,l),
(767,1349,l),
(767,1383,l),
(767,1668,l),
(475,1668,l),
(475,1383,l),
(475,1349,l),
(475,1302,l)
);
}
);
width = 1192;
}
);
unicode = 36;
}
{
glyphname = percent;
kernLeft = percent_left;
kernRight = percent_right;
layers = (
{
layerId = "68A78E10-2392-4B34-B44D-B6A5B48D0FD1";
shapes = (
{
closed = 1;
nodes = (
(1172,1049,l),
(1069,1178,l),
(28,383,l),
(132,254,l)
);
},
{
closed = 1;
nodes = (
(1036,-32,o),
(1166,102,o),
(1166,277,cs),
(1166,285,ls),
(1166,460,o),
(1036,595,o),
(868,595,cs),
(700,595,o),
(570,460,o),
(570,285,cs),
(570,277,ls),
(570,102,o),
(700,-32,o),
(868,-32,cs)
);
},
{
closed = 1;
nodes = (
(783,116,o),
(724,183,o),
(724,279,cs),
(724,283,ls),
(724,379,o),
(784,447,o),
(868,447,cs),
(952,447,o),
(1012,379,o),
(1012,283,cs),
(1012,279,ls),
(1012,183,o),
(953,116,o),
(868,116,cs)
);
},
{
closed = 1;
nodes = (
(500,837,o),
(630,971,o),
(630,1146,cs),
(630,1154,ls),
(630,1329,o),
(500,1464,o),
(332,1464,cs),
(164,1464,o),
(34,1329,o),
(34,1154,cs),
(34,1146,ls),
(34,971,o),
(164,837,o),
(332,837,cs)
);
},
{
closed = 1;
nodes = (
(247,985,o),
(188,1052,o),
(188,1148,cs),
(188,1152,ls),
(188,1248,o),
(247,1316,o),
(332,1316,cs),
(417,1316,o),
(476,1248,o),
(476,1152,cs),
(476,1148,ls),
(476,1052,o),
(417,985,o),
(332,985,cs)
);
}
);
width = 1200;
},
{
layerId = "50ED6B91-33B7-40F5-8C2C-B1BEC3C77CF0";
shapes = (
{
closed = 1;
nodes = (
(1191,1021,l),
(1049,1203,l),
(9,412,l),
(151,230,l)
);
},
{
closed = 1;
nodes = (
(1043,-34,o),
(1170,103,o),
(1170,285,cs),
(1170,293,ls),
(1170,476,o),
(1043,612,o),
(852,612,cs),
(660,612,o),
(533,476,o),
(533,293,cs),
(533,285,ls),
(533,103,o),
(660,-34,o),
(852,-34,cs)
);
},
{
closed = 1;
nodes = (
(780,152,o),
(733,206,o),
(733,287,cs),
(733,291,ls),
(733,372,o),
(780,426,o),
(852,426,cs),
(923,426,o),
(970,372,o),
(970,291,cs),
(970,287,ls),
(970,206,o),
(923,152,o),
(852,152,cs)
);
},
{
closed = 1;
nodes = (
(540,820,o),
(667,957,o),
(667,1139,cs),
(667,1147,ls),
(667,1330,o),
(540,1466,o),
(349,1466,cs),
(157,1466,o),
(30,1330,o),
(30,1147,cs),
(30,1139,ls),
(30,957,o),
(157,820,o),
(349,820,cs)
);
},
{
closed = 1;
nodes = (
(277,1006,o),
(230,1060,o),
(230,1141,cs),
(230,1145,ls),
(230,1226,o),
(277,1280,o),
(349,1280,cs),
(420,1280,o),
(467,1226,o),
(467,1145,cs),
(467,1141,ls),
(467,1060,o),
(420,1006,o),
(349,1006,cs)
);
}
);
width = 1200;
},
{
associatedMasterId = "68A78E10-2392-4B34-B44D-B6A5B48D0FD1";
layerId = "D879CCAD-384E-49A5-A36B-16FC8E166938";
name = "18 Mar 24, 20:54";
shapes = (
{
closed = 1;
nodes = (
(595,605,l),
(1165,1231,l),
(1043,1334,l),
(606,828,l),
(35,202,l),
(157,99,l)
);
},
{
closed = 1;
nodes = (
(1036,-32,o),
(1166,102,o),
(1166,277,cs),
(1166,285,ls),
(1166,460,o),
(1036,595,o),
(868,595,cs),
(700,595,o),
(570,460,o),
(570,285,cs),
(570,277,ls),
(570,102,o),
(700,-32,o),
(868,-32,cs)
);
},
{
closed = 1;
nodes = (
(783,112,o),
(724,181,o),
(724,279,cs),
(724,283,ls),
(724,382,o),
(784,451,o),
(868,451,cs),
(952,451,o),
(1012,382,o),
(1012,283,cs),
(1012,279,ls),
(1012,181,o),
(953,112,o),
(868,112,cs)
);
},
{
closed = 1;
nodes = (
(502,811,o),
(630,948,o),
(630,1131,cs),
(630,1139,ls),
(630,1321,o),
(501,1458,o),
(332,1458,cs),
(162,1458,o),
(34,1321,o),
(34,1139,cs),
(34,1131,ls),
(34,948,o),
(162,811,o),
(332,811,cs)
);
},
{
closed = 1;
nodes = (
(248,955,o),
(188,1027,o),
(188,1130,cs),
(188,1139,ls),
(188,1243,o),
(247,1314,o),
(332,1314,cs),
(417,1314,o),
(477,1243,o),
(477,1139,cs),
(477,1130,ls),
(477,1027,o),
(416,955,o),
(332,955,cs)
);
}
);
width = 1200;
},
{
associatedMasterId = "50ED6B91-33B7-40F5-8C2C-B1BEC3C77CF0";
layerId = "5733585F-E0CC-4E05-9449-64C20EBFAB44";
name = "18 Mar 24, 20:57";
shapes = (
{
closed = 1;
nodes = (
(572,584,l),
(1175,1185,l),
(988,1346,l),
(631,849,l),
(25,248,l),
(213,86,l)
);
},
{
closed = 1;
nodes = (
(1043,-28,o),
(1170,117,o),
(1170,311,cs),
(1170,319,ls),
(1170,514,o),
(1043,658,o),
(852,658,cs),
(660,658,o),
(533,514,o),
(533,319,cs),
(533,311,ls),
(533,117,o),
(660,-28,o),
(852,-28,cs)
);
},
{
closed = 1;
nodes = (
(780,159,o),
(733,216,o),
(733,301,cs),
(733,329,ls),
(733,414,o),
(780,471,o),
(852,471,cs),
(923,471,o),
(970,414,o),
(970,329,cs),
(970,301,ls),
(970,216,o),
(923,159,o),
(852,159,cs)
);
},
{
closed = 1;
nodes = (
(539,774,o),
(666,919,o),
(666,1113,cs),
(666,1121,ls),
(666,1316,o),
(539,1460,o),
(347,1460,cs),
(156,1460,o),
(29,1316,o),
(29,1121,cs),
(29,1113,ls),
(29,919,o),
(156,774,o),
(347,774,cs)
);
},
{
closed = 1;
nodes = (
(277,961,o),
(228,1019,o),
(228,1103,cs),
(228,1131,ls),
(228,1215,o),
(277,1273,o),
(347,1273,cs),
(418,1273,o),
(466,1215,o),
(466,1131,cs),
(466,1103,ls),
(466,1019,o),
(418,961,o),
(347,961,cs)
);
}
);
width = 1200;
},
{
layerId = "B7DB719C-51CF-4BC3-BA18-7A6A1AAC666B";
shapes = (
{
closed = 1;
nodes = (
(1166,1058,l),
(1076,1170,l),
(34,373,l),
(126,262,l)
);
},
{
closed = 1;
nodes = (
(1034,-31,o),
(1165,102,o),
(1165,274,cs),
(1165,282,ls),
(1165,455,o),
(1034,589,o),
(873,589,cs),
(713,589,o),
(582,455,o),
(582,282,cs),
(582,274,ls),
(582,102,o),
(713,-31,o),
(873,-31,cs)
);
},
{
closed = 1;
nodes = (
(784,104,o),
(721,175,o),
(721,276,cs),
(721,280,ls),
(721,381,o),
(785,454,o),
(873,454,cs),
(962,454,o),
(1026,381,o),
(1026,280,cs),
(1026,276,ls),
(1026,175,o),
(963,104,o),
(873,104,cs)
);
},
{
closed = 1;
nodes = (
(487,843,o),
(618,976,o),
(618,1148,cs),
(618,1156,ls),
(618,1329,o),
(487,1463,o),
(326,1463,cs),
(166,1463,o),
(35,1329,o),
(35,1156,cs),
(35,1148,ls),
(35,976,o),
(166,843,o),
(326,843,cs)
);
},
{
closed = 1;
nodes = (
(237,978,o),
(174,1049,o),
(174,1150,cs),
(174,1154,ls),
(174,1255,o),
(237,1328,o),
(326,1328,cs),
(416,1328,o),
(479,1255,o),
(479,1154,cs),
(479,1150,ls),
(479,1049,o),
(416,978,o),
(326,978,cs)
);
}
);
width = 1200;
},
{
layerId = "D010C1AA-6BDD-4F06-9849-880CC2F29E88";
shapes = (
{
closed = 1;
nodes = (
(1197,1012,l),
(1042,1211,l),
(3,422,l),
(157,222,l)
);
},
{
closed = 1;
nodes = (
(1045,-35,o),
(1171,103,o),
(1171,288,cs),
(1171,296,ls),
(1171,481,o),
(1045,618,o),
(847,618,cs),
(647,618,o),
(521,481,o),
(521,296,cs),
(521,288,ls),
(521,103,o),
(647,-35,o),
(847,-35,cs)
);
},
{
closed = 1;
nodes = (
(779,164,o),
(736,214,o),
(736,290,cs),
(736,294,ls),
(736,370,o),
(779,419,o),
(847,419,cs),
(913,419,o),
(956,370,o),
(956,294,cs),
(956,290,ls),
(956,214,o),
(913,164,o),
(847,164,cs)
);
},
{
closed = 1;
nodes = (
(553,814,o),
(679,952,o),
(679,1137,cs),
(679,1145,ls),
(679,1330,o),
(553,1467,o),
(355,1467,cs),
(155,1467,o),
(29,1330,o),
(29,1145,cs),
(29,1137,ls),
(29,952,o),
(155,814,o),
(355,814,cs)
);
},
{
closed = 1;
nodes = (
(287,1013,o),
(244,1063,o),
(244,1139,cs),
(244,1143,ls),
(244,1219,o),
(287,1268,o),
(355,1268,cs),
(421,1268,o),
(464,1219,o),
(464,1143,cs),
(464,1139,ls),
(464,1063,o),
(421,1013,o),
(355,1013,cs)
);
}
);
width = 1200;
},
{
layerId = "88819DE9-98C6-4AB7-BD8B-9DF84621D738";
shapes = (
{
closed = 1;
nodes = (
(1218,1058,l),
(1128,1170,l),
(86,373,l),
(178,262,l)
);
},
{
closed = 1;
nodes = (
(1086,-31,o),
(1217,102,o),
(1217,274,cs),
(1217,282,ls),
(1217,455,o),
(1086,589,o),
(925,589,cs),
(765,589,o),
(634,455,o),
(634,282,cs),
(634,274,ls),
(634,102,o),
(765,-31,o),
(925,-31,cs)
);
},
{
closed = 1;
nodes = (
(836,104,o),
(773,175,o),
(773,276,cs),
(773,280,ls),
(773,381,o),
(837,454,o),
(925,454,cs),
(1014,454,o),
(1078,381,o),
(1078,280,cs),
(1078,276,ls),
(1078,175,o),
(1015,104,o),
(925,104,cs)
);
},
{
closed = 1;
nodes = (
(539,843,o),
(670,976,o),
(670,1148,cs),
(670,1156,ls),
(670,1329,o),
(539,1463,o),
(378,1463,cs),
(218,1463,o),
(87,1329,o),
(87,1156,cs),
(87,1148,ls),
(87,976,o),
(218,843,o),
(378,843,cs)
);
},
{
closed = 1;
nodes = (
(289,978,o),
(226,1049,o),
(226,1150,cs),
(226,1154,ls),
(226,1255,o),
(289,1328,o),
(378,1328,cs),
(468,1328,o),
(531,1255,o),
(531,1154,cs),
(531,1150,ls),
(531,1049,o),
(468,978,o),
(378,978,cs)
);
}
);
width = 1304;
},
{
layerId = "ED70A957-8AC1-4977-BF37-207E470C4E2E";
shapes = (
{
closed = 1;
nodes = (
(1227,1049,l),
(1124,1178,l),
(83,383,l),
(187,254,l)
);
},
{
closed = 1;
nodes = (
(1099,-32,o),
(1229,102,o),
(1229,277,cs),
(1229,285,ls),
(1229,460,o),
(1099,595,o),
(931,595,cs),
(763,595,o),
(633,460,o),
(633,285,cs),
(633,277,ls),
(633,102,o),
(763,-32,o),
(931,-32,cs)
);
},
{
closed = 1;
nodes = (
(846,116,o),
(787,183,o),
(787,279,cs),
(787,283,ls),
(787,379,o),
(847,447,o),
(931,447,cs),
(1015,447,o),
(1075,379,o),
(1075,283,cs),
(1075,279,ls),
(1075,183,o),
(1016,116,o),
(931,116,cs)
);
},
{
closed = 1;
nodes = (
(547,837,o),
(677,971,o),
(677,1146,cs),
(677,1154,ls),
(677,1329,o),
(547,1464,o),
(379,1464,cs),
(211,1464,o),
(81,1329,o),
(81,1154,cs),
(81,1146,ls),
(81,971,o),
(211,837,o),
(379,837,cs)
);
},
{
closed = 1;
nodes = (
(294,985,o),
(235,1052,o),
(235,1148,cs),
(235,1152,ls),
(235,1248,o),
(294,1316,o),
(379,1316,cs),
(464,1316,o),
(523,1248,o),
(523,1152,cs),
(523,1148,ls),
(523,1052,o),
(464,985,o),
(379,985,cs)
);
}
);
width = 1310;
},
{
layerId = "1DFF5E08-190B-46A4-A527-B6F0A79A5803";
shapes = (
{
closed = 1;
nodes = (
(1255,1021,l),
(1113,1203,l),
(73,412,l),
(215,230,l)
);
},
{
closed = 1;
nodes = (
(1139,-34,o),
(1266,103,o),
(1266,285,cs),
(1266,293,ls),
(1266,476,o),
(1139,612,o),
(948,612,cs),
(756,612,o),
(629,476,o),
(629,293,cs),
(629,285,ls),
(629,103,o),
(756,-34,o),
(948,-34,cs)
);
},
{
closed = 1;
nodes = (
(876,152,o),
(829,206,o),
(829,287,cs),
(829,291,ls),
(829,372,o),
(876,426,o),
(948,426,cs),
(1019,426,o),
(1066,372,o),
(1066,291,cs),
(1066,287,ls),
(1066,206,o),
(1019,152,o),
(948,152,cs)
);
},
{
closed = 1;
nodes = (
(572,820,o),
(699,957,o),
(699,1139,cs),
(699,1147,ls),
(699,1330,o),
(572,1466,o),
(381,1466,cs),
(189,1466,o),
(62,1330,o),
(62,1147,cs),
(62,1139,ls),
(62,957,o),
(189,820,o),
(381,820,cs)
);
},
{
closed = 1;
nodes = (
(309,1006,o),
(262,1060,o),
(262,1141,cs),
(262,1145,ls),
(262,1226,o),
(309,1280,o),
(381,1280,cs),
(452,1280,o),
(499,1226,o),
(499,1145,cs),
(499,1141,ls),
(499,1060,o),
(452,1006,o),
(381,1006,cs)
);
}
);
width = 1328;
},
{
layerId = "F632DC93-BEFD-4CC9-8CF6-AC4643A09268";
shapes = (
{
closed = 1;
nodes = (
(1264,1012,l),
(1109,1211,l),
(70,422,l),
(224,222,l)
);
},
{
closed = 1;
nodes = (
(1152,-35,o),
(1278,103,o),
(1278,288,cs),
(1278,296,ls),
(1278,481,o),
(1152,618,o),
(954,618,cs),
(754,618,o),
(628,481,o),
(628,296,cs),
(628,288,ls),
(628,103,o),
(754,-35,o),
(954,-35,cs)
);
},
{
closed = 1;
nodes = (
(886,164,o),
(843,214,o),
(843,290,cs),
(843,294,ls),
(843,370,o),
(886,419,o),
(954,419,cs),
(1020,419,o),
(1063,370,o),
(1063,294,cs),
(1063,290,ls),
(1063,214,o),
(1020,164,o),
(954,164,cs)
);
},
{
closed = 1;
nodes = (
(580,814,o),
(706,952,o),
(706,1137,cs),
(706,1145,ls),
(706,1330,o),
(580,1467,o),
(382,1467,cs),
(182,1467,o),
(56,1330,o),
(56,1145,cs),
(56,1137,ls),
(56,952,o),
(182,814,o),
(382,814,cs)
);
},
{
closed = 1;
nodes = (
(314,1013,o),
(271,1063,o),
(271,1139,cs),
(271,1143,ls),
(271,1219,o),
(314,1268,o),
(382,1268,cs),
(448,1268,o),
(491,1219,o),
(491,1143,cs),
(491,1139,ls),
(491,1063,o),
(448,1013,o),
(382,1013,cs)
);
}
);
width = 1334;
}
);
unicode = 37;
}
{
glyphname = ampersand;
kernLeft = ampersand_left;
kernRight = ampersand_right;
layers = (
{
layerId = "68A78E10-2392-4B34-B44D-B6A5B48D0FD1";
shapes = (
{
closed = 1;
nodes = (
(1182,74,l),
(505,797,ls),
(376,934,o),
(332,1015,o),
(332,1099,cs),
(332,1109,ls),
(332,1219,o),
(408,1288,o),
(528,1288,cs),
(641,1288,o),
(714,1234,o),
(783,1100,c),
(945,1186,l),
(846,1380,o),
(721,1464,o),
(532,1464,cs),
(303,1464,o),
(144,1319,o),
(144,1111,cs),
(144,1109,ls),
(144,976,o),
(202,866,o),
(384,670,cs),
(1054,-50,l)
);
},
{
closed = 1;
nodes = (
(777,-32,o),
(992,253,o),
(1100,794,c),
(918,826,l),
(825,328,o),
(707,140,o),
(488,140,cs),
(329,140,o),
(236,230,o),
(236,383,cs),
(236,411,ls),
(236,568,o),
(317,669,o),
(483,720,c),
(370,843,l),
(156,755,o),
(50,609,o),
(50,398,cs),
(50,380,ls),
(50,134,o),
(222,-32,o),
(477,-32,cs)
);
}
);
width = 1200;
},
{
layerId = "50ED6B91-33B7-40F5-8C2C-B1BEC3C77CF0";
name = "opsz6-wdth25-wght400-Ital0-Rond0-Grad0";
shapes = (
{
closed = 1;
nodes = (
(1194,135,l),
(530,860,ls),
(453,944,o),
(422,1000,o),
(422,1055,cs),
(422,1062,ls),
(422,1138,o),
(475,1187,o),
(556,1187,cs),
(637,1187,o),
(687,1141,o),
(722,1038,c),
(988,1121,l),
(917,1349,o),
(766,1466,o),
(546,1466,cs),
(292,1466,o),
(120,1314,o),
(120,1090,cs),
(120,1088,ls),
(120,956,o),
(181,843,o),
(334,672,cs),
(990,-58,l)
);
},
{
closed = 1;
nodes = (
(795,-34,o),
(1042,276,o),
(1126,818,c),
(843,857,l),
(799,390,o),
(710,234,o),
(529,234,cs),
(401,234,o),
(326,303,o),
(326,421,cs),
(326,439,ls),
(326,556,o),
(381,631,o),
(484,673,c),
(365,848,l),
(153,761,o),
(26,618,o),
(26,393,cs),
(26,381,ls),
(26,138,o),
(208,-34,o),
(483,-34,cs)
);
}
);
width = 1200;
},
{
associatedMasterId = "50ED6B91-33B7-40F5-8C2C-B1BEC3C77CF0";
layerId = "5EB4E7A3-2A25-4A03-8783-5B51889827C0";
name = "3 Jun 24, 14:00";
shapes = (
{
closed = 1;
nodes = (
(1393,139,l),
(702,874,ls),
(610,974,o),
(575,1027,o),
(575,1083,c),
(575,1083,l),
(575,1155,o),
(628,1205,o),
(712,1205,cs),
(806,1205,o),
(859,1147,o),
(914,1081,c),
(1119,1235,l),
(1032,1358,o),
(890,1467,o),
(681,1467,cs),
(429,1467,o),
(258,1308,o),
(258,1109,c),
(258,1109,l),
(258,981,o),
(331,866,o),
(438,751,cs),
(1188,-50,l)
);
},
{
closed = 1;
nodes = (
(1049,-35,o),
(1263,263,o),
(1397,662,c),
(1145,739,l),
(1067,497,o),
(905,231,o),
(659,231,cs),
(484,231,o),
(386,338,o),
(386,481,c),
(386,481,l),
(386,602,o),
(442,681,o),
(571,737,c),
(424,942,l),
(215,867,o),
(74,696,o),
(74,475,c),
(74,475,l),
(74,176,o),
(292,-35,o),
(656,-35,cs)
);
}
);
width = 1200;
},
{
layerId = "B7DB719C-51CF-4BC3-BA18-7A6A1AAC666B";
shapes = (
{
closed = 1;
nodes = (
(1176,53,l),
(497,776,ls),
(348,934,o),
(302,1016,o),
(302,1108,cs),
(302,1119,ls),
(302,1245,o),
(388,1322,o),
(518,1322,cs),
(642,1322,o),
(723,1265,o),
(803,1120,c),
(931,1208,l),
(822,1390,o),
(706,1462,o),
(527,1462,cs),
(308,1462,o),
(152,1318,o),
(152,1112,cs),
(152,1110,ls),
(152,975,o),
(220,860,o),
(400,669,cs),
(1074,-48,l)
);
},
{
closed = 1;
nodes = (
(770,-30,o),
(972,246,o),
(1087,785,c),
(939,815,l),
(830,309,o),
(705,110,o),
(475,110,cs),
(304,110,o),
(206,210,o),
(206,378,cs),
(206,409,ls),
(206,577,o),
(298,683,o),
(483,736,c),
(372,841,l),
(170,757,o),
(58,616,o),
(58,402,cs),
(58,384,ls),
(58,141,o),
(217,-30,o),
(473,-30,cs)
);
}
);
width = 1200;
},
{
layerId = "D010C1AA-6BDD-4F06-9849-880CC2F29E88";
shapes = (
{
closed = 1;
nodes = (
(1200,155,l),
(538,881,ls),
(479,946,o),
(452,996,o),
(452,1042,cs),
(452,1047,ls),
(452,1111,o),
(496,1153,o),
(565,1153,cs),
(635,1153,o),
(678,1110,o),
(701,1017,c),
(1002,1099,l),
(940,1338,o),
(781,1467,o),
(550,1467,cs),
(288,1467,o),
(112,1313,o),
(112,1084,cs),
(112,1082,ls),
(112,951,o),
(171,838,o),
(317,673,cs),
(970,-61,l)
);
},
{
closed = 1;
nodes = (
(816,-35,o),
(1073,284,o),
(1149,829,c),
(832,870,l),
(802,410,o),
(719,265,o),
(541,265,cs),
(423,265,o),
(356,334,o),
(356,453,cs),
(356,468,ls),
(356,562,o),
(397,622,o),
(484,657,c),
(363,850,l),
(145,773,o),
(18,627,o),
(18,413,cs),
(18,395,ls),
(18,142,o),
(224,-35,o),
(501,-35,cs)
);
}
);
width = 1200;
},
{
layerId = "88819DE9-98C6-4AB7-BD8B-9DF84621D738";
shapes = (
{
closed = 1;
nodes = (
(1222,53,l),
(543,776,ls),
(394,934,o),
(348,1016,o),
(348,1108,cs),
(348,1119,ls),
(348,1245,o),
(434,1322,o),
(564,1322,cs),
(688,1322,o),
(769,1265,o),
(849,1120,c),
(977,1208,l),
(868,1390,o),
(752,1462,o),
(573,1462,cs),
(354,1462,o),
(198,1318,o),
(198,1112,cs),
(198,1110,ls),
(198,975,o),
(266,860,o),
(446,669,cs),
(1120,-48,l)
);
},
{
closed = 1;
nodes = (
(816,-30,o),
(1018,246,o),
(1133,785,c),
(985,815,l),
(876,309,o),
(751,110,o),
(521,110,cs),
(350,110,o),
(252,210,o),
(252,378,cs),
(252,409,ls),
(252,577,o),
(344,683,o),
(529,736,c),
(418,841,l),
(216,757,o),
(104,616,o),
(104,402,cs),
(104,384,ls),
(104,141,o),
(263,-30,o),
(519,-30,cs)
);
}
);
width = 1256;
},
{
layerId = "ED70A957-8AC1-4977-BF37-207E470C4E2E";
shapes = (
{
closed = 1;
nodes = (
(1228,74,l),
(551,797,ls),
(422,934,o),
(378,1015,o),
(378,1099,cs),
(378,1109,ls),
(378,1219,o),
(454,1288,o),
(574,1288,cs),
(687,1288,o),
(760,1234,o),
(829,1100,c),
(991,1186,l),
(892,1380,o),
(767,1464,o),
(578,1464,cs),
(349,1464,o),
(190,1319,o),
(190,1111,cs),
(190,1109,ls),
(190,976,o),
(248,866,o),
(430,670,cs),
(1100,-50,l)
);
},
{
closed = 1;
nodes = (
(823,-32,o),
(1038,253,o),
(1146,794,c),
(964,826,l),
(871,328,o),
(753,140,o),
(534,140,cs),
(375,140,o),
(282,230,o),
(282,383,cs),
(282,411,ls),
(282,568,o),
(363,669,o),
(529,720,c),
(416,843,l),
(202,755,o),
(96,609,o),
(96,398,cs),
(96,380,ls),
(96,134,o),
(268,-32,o),
(523,-32,cs)
);
}
);
width = 1262;
},
{
layerId = "1DFF5E08-190B-46A4-A527-B6F0A79A5803";
name = "opsz6-wdth25-wght400-Ital0-Rond0-Grad0";
shapes = (
{
closed = 1;
nodes = (
(1240,135,l),
(576,860,ls),
(499,944,o),
(468,1000,o),
(468,1055,cs),
(468,1062,ls),
(468,1138,o),
(521,1187,o),
(602,1187,cs),
(683,1187,o),
(733,1141,o),
(768,1038,c),
(1034,1121,l),
(963,1349,o),
(812,1466,o),
(592,1466,cs),
(338,1466,o),
(166,1314,o),
(166,1090,cs),
(166,1088,ls),
(166,956,o),
(227,843,o),
(380,672,cs),
(1036,-58,l)
);
},
{
closed = 1;
nodes = (
(841,-34,o),
(1088,276,o),
(1172,818,c),
(889,857,l),
(845,390,o),
(756,234,o),
(575,234,cs),
(447,234,o),
(372,303,o),
(372,421,cs),
(372,439,ls),
(372,556,o),
(427,631,o),
(530,673,c),
(411,848,l),
(199,761,o),
(72,618,o),
(72,393,cs),
(72,381,ls),
(72,138,o),
(254,-34,o),
(529,-34,cs)
);
}
);
width = 1274;
},
{
layerId = "F632DC93-BEFD-4CC9-8CF6-AC4643A09268";
shapes = (
{
closed = 1;
nodes = (
(1246,155,l),
(584,881,ls),
(525,946,o),
(498,996,o),
(498,1042,cs),
(498,1047,ls),
(498,1111,o),
(542,1153,o),
(611,1153,cs),
(681,1153,o),
(724,1110,o),
(747,1017,c),
(1048,1099,l),
(986,1338,o),
(827,1467,o),
(596,1467,cs),
(334,1467,o),
(158,1313,o),
(158,1084,cs),
(158,1082,ls),
(158,951,o),
(217,838,o),
(363,673,cs),
(1016,-61,l)
);
},
{
closed = 1;
nodes = (
(862,-35,o),
(1119,284,o),
(1195,829,c),
(878,870,l),
(848,410,o),
(765,265,o),
(587,265,cs),
(469,265,o),
(402,334,o),
(402,453,cs),
(402,468,ls),
(402,562,o),
(443,622,o),
(530,657,c),
(409,850,l),
(191,773,o),
(64,627,o),
(64,413,cs),
(64,395,ls),
(64,142,o),
(270,-35,o),
(547,-35,cs)
);
}
);
width = 1280;
}
);
unicode = 38;
}
{
color = 4;
glyphname = quotesingle;
kernLeft = quote_left;
kernRight = quote_right;
layers = (
{
layerId = "68A78E10-2392-4B34-B44D-B6A5B48D0FD1";
shapes = (
{
closed = 1;
nodes = (
(712,904,l),
(712,1460,l),
(488,1460,l),
(488,904,l)
);
}
);
width = 1200;
},
{
layerId = "50ED6B91-33B7-40F5-8C2C-B1BEC3C77CF0";
shapes = (
{
closed = 1;
nodes = (
(765,899,l),
(765,1460,l),
(435,1460,l),
(435,899,l)
);
}
);
width = 1200;
},
{
layerId = "B7DB719C-51CF-4BC3-BA18-7A6A1AAC666B";
shapes = (
{
closed = 1;
nodes = (
(694,906,l),
(694,1460,l),
(506,1460,l),
(506,906,l)
);
}
);
width = 1200;
},
{
layerId = "D010C1AA-6BDD-4F06-9849-880CC2F29E88";
shapes = (
{
closed = 1;
nodes = (
(783,897,l),
(783,1460,l),
(417,1460,l),
(417,897,l)
);
}
);
width = 1200;
},
{
layerId = "88819DE9-98C6-4AB7-BD8B-9DF84621D738";
shapes = (
{
closed = 1;
nodes = (
(338,906,l),
(338,1460,l),
(150,1460,l),
(150,906,l)
);
}
);
width = 488;
},
{
layerId = "ED70A957-8AC1-4977-BF37-207E470C4E2E";
shapes = (
{
closed = 1;
nodes = (
(712,904,l),
(712,1460,l),
(488,1460,l),
(488,904,l)
);
}
);
width = 1200;
},
{
layerId = "1DFF5E08-190B-46A4-A527-B6F0A79A5803";
shapes = (
{
closed = 1;
nodes = (
(765,899,l),
(765,1460,l),
(435,1460,l),
(435,899,l)
);
}
);
width = 1200;
},
{
layerId = "F632DC93-BEFD-4CC9-8CF6-AC4643A09268";
shapes = (
{
closed = 1;
nodes = (
(466,897,l),
(466,1460,l),
(100,1460,l),
(100,897,l)
);
}
);
width = 566;
}
);
unicode = 39;
}
{
glyphname = parenright;
kernLeft = parenright_left;
kernRight = parenright_right;
layers = (
{
layerId = "68A78E10-2392-4B34-B44D-B6A5B48D0FD1";
shapes = (
{
closed = 1;
nodes = (
(651,-47,o),
(838,260,o),
(838,666,cs),
(838,1072,o),
(651,1379,o),
(294,1640,c),
(184,1495,l),
(501,1265,o),
(650,1013,o),
(650,666,cs),
(650,319,o),
(501,67,o),
(184,-163,c),
(294,-308,l)
);
}
);
width = 1200;
},
{
layerId = "50ED6B91-33B7-40F5-8C2C-B1BEC3C77CF0";
shapes = (
{
closed = 1;
nodes = (
(704,-52,o),
(882,257,o),
(882,669,cs),
(882,1081,o),
(704,1390,o),
(308,1680,c),
(140,1459,l),
(439,1238,o),
(578,992,o),
(578,669,cs),
(578,346,o),
(439,100,o),
(140,-121,c),
(308,-342,l)
);
}
);
width = 1200;
},
{
layerId = "B7DB719C-51CF-4BC3-BA18-7A6A1AAC666B";
shapes = (
{
closed = 1;
nodes = (
(633,-45,o),
(823,261,o),
(823,665,cs),
(823,1069,o),
(633,1375,o),
(289,1627,c),
(199,1507,l),
(522,1274,o),
(674,1020,o),
(674,665,cs),
(674,310,o),
(522,56,o),
(199,-177,c),
(289,-297,l)
);
}
);
width = 1200;
},
{
layerId = "D010C1AA-6BDD-4F06-9849-880CC2F29E88";
shapes = (
{
closed = 1;
nodes = (
(722,-54,o),
(897,256,o),
(897,670,cs),
(897,1084,o),
(722,1394,o),
(313,1693,c),
(125,1447,l),
(418,1229,o),
(554,985,o),
(554,670,cs),
(554,355,o),
(418,111,o),
(125,-107,c),
(313,-353,l)
);
}
);
width = 1200;
},
{
layerId = "88819DE9-98C6-4AB7-BD8B-9DF84621D738";
shapes = (
{
closed = 1;
nodes = (
(460,-45,o),
(650,261,o),
(650,665,cs),
(650,1069,o),
(460,1375,o),
(116,1627,c),
(26,1507,l),
(349,1274,o),
(501,1020,o),
(501,665,cs),
(501,310,o),
(349,56,o),
(26,-177,c),
(116,-297,l)
);
}
);
width = 796;
},
{
layerId = "ED70A957-8AC1-4977-BF37-207E470C4E2E";
shapes = (
{
closed = 1;
nodes = (
(489,-47,o),
(676,260,o),
(676,666,cs),
(676,1072,o),
(489,1379,o),
(132,1640,c),
(22,1495,l),
(339,1265,o),
(488,1013,o),
(488,666,cs),
(488,319,o),
(339,67,o),
(22,-163,c),
(132,-308,l)
);
}
);
width = 814;
},
{
layerId = "1DFF5E08-190B-46A4-A527-B6F0A79A5803";
shapes = (
{
closed = 1;
nodes = (
(574,-52,o),
(752,257,o),
(752,669,cs),
(752,1081,o),
(574,1390,o),
(178,1680,c),
(10,1459,l),
(309,1238,o),
(448,992,o),
(448,669,cs),
(448,346,o),
(309,100,o),
(10,-121,c),
(178,-342,l)
);
}
);
width = 866;
},
{
layerId = "F632DC93-BEFD-4CC9-8CF6-AC4643A09268";
shapes = (
{
closed = 1;
nodes = (
(603,-54,o),
(778,256,o),
(778,670,cs),
(778,1084,o),
(603,1394,o),
(194,1693,c),
(6,1447,l),
(299,1229,o),
(435,985,o),
(435,670,cs),
(435,355,o),
(299,111,o),
(6,-107,c),
(194,-353,l)
);
}
);
width = 884;
}
);
unicode = 41;
}
{
color = 4;
glyphname = asterisk;
kernLeft = asterisk_left;
kernRight = asterisk_right;
layers = (
{
layerId = "68A78E10-2392-4B34-B44D-B6A5B48D0FD1";
shapes = (
{
closed = 1;
nodes = (
(631,716,l),
(1121,983,l),
(1043,1119,l),
(569,828,l),
(79,565,l),
(157,429,l)
);
},
{
closed = 1;
nodes = (
(1121,565,l),
(631,828,l),
(157,1119,l),
(79,983,l),
(569,716,l),
(1043,429,l)
);
},
{
closed = 1;
nodes = (
(678,216,l),
(678,1332,l),
(522,1332,l),
(522,216,l)
);
}
);
width = 1200;
},
{
layerId = "50ED6B91-33B7-40F5-8C2C-B1BEC3C77CF0";
shapes = (
{
closed = 1;
nodes = (
(636,693,l),
(1141,944,l),
(1027,1143,l),
(564,854,l),
(59,604,l),
(173,405,l)
);
},
{
closed = 1;
nodes = (
(1141,604,l),
(636,854,l),
(173,1143,l),
(59,944,l),
(564,693,l),
(1027,405,l)
);
},
{
closed = 1;
nodes = (
(712,208,l),
(712,1340,l),
(488,1340,l),
(488,208,l)
);
}
);
width = 1200;
},
{
layerId = "B7DB719C-51CF-4BC3-BA18-7A6A1AAC666B";
shapes = (
{
closed = 1;
nodes = (
(629,724,l),
(1114,996,l),
(1049,1111,l),
(571,819,l),
(86,552,l),
(151,437,l)
);
},
{
closed = 1;
nodes = (
(1114,552,l),
(629,819,l),
(151,1111,l),
(86,996,l),
(571,724,l),
(1049,437,l)
);
},
{
closed = 1;
nodes = (
(666,219,l),
(666,1329,l),
(534,1329,l),
(534,219,l)
);
}
);
width = 1200;
},
{
layerId = "D010C1AA-6BDD-4F06-9849-880CC2F29E88";
shapes = (
{
closed = 1;
nodes = (
(638,685,l),
(1148,931,l),
(1021,1151,l),
(562,863,l),
(52,617,l),
(179,397,l)
);
},
{
closed = 1;
nodes = (
(1148,617,l),
(638,863,l),
(179,1151,l),
(52,931,l),
(562,685,l),
(1021,397,l)
);
},
{
closed = 1;
nodes = (
(724,205,l),
(724,1343,l),
(476,1343,l),
(476,205,l)
);
}
);
width = 1200;
},
{
associatedMasterId = "B7DB719C-51CF-4BC3-BA18-7A6A1AAC666B";
layerId = "B0F091CD-921C-482E-85FB-966EDFA82E7D";
name = "19 Sep 24, 20:23";
shapes = (
{
closed = 1;
nodes = (
(599,696,l),
(601,696,l),
(872,285,l),
(1015,385,l),
(745,760,l),
(747,763,l),
(1147,896,l),
(1089,1057,l),
(674,891,l),
(673,893,l),
(688,1349,l),
(513,1349,l),
(528,894,l),
(526,892,l),
(111,1058,l),
(53,895,l),
(456,764,l),
(457,759,l),
(186,385,l),
(329,285,l)
);
}
);
width = 1200;
},
{
associatedMasterId = "D010C1AA-6BDD-4F06-9849-880CC2F29E88";
layerId = "370B0A88-59E1-4BE7-9C08-EA8FA73B0F90";
name = "19 Sep 24, 20:56";
shapes = (
{
closed = 1;
nodes = (
(595,617,l),
(605,617,l),
(792,245,l),
(1074,444,l),
(791,726,l),
(793,737,l),
(1181,802,l),
(1059,1132,l),
(728,957,l),
(718,963,l),
(773,1364,l),
(428,1364,l),
(483,964,l),
(472,958,l),
(141,1132,l),
(19,804,l),
(407,738,l),
(408,728,l),
(126,444,l),
(409,245,l)
);
}
);
width = 1200;
},
{
associatedMasterId = "50ED6B91-33B7-40F5-8C2C-B1BEC3C77CF0";
layerId = "1C26540B-B0F6-4529-A57D-5048D97E67D2";
name = "19 Sep 24, 21:01";
shapes = (
{
closed = 1;
nodes = (
(596,633,l),
(604,633,l),
(808,253,l),
(1062,432,l),
(782,733,l),
(784,742,l),
(1174,821,l),
(1065,1117,l),
(717,944,l),
(709,949,l),
(756,1361,l),
(445,1361,l),
(492,950,l),
(483,945,l),
(135,1117,l),
(26,822,l),
(417,743,l),
(418,734,l),
(138,432,l),
(393,253,l)
);
}
);
width = 1200;
},
{
associatedMasterId = "68A78E10-2392-4B34-B44D-B6A5B48D0FD1";
layerId = "89001EF3-A849-4507-8604-0AF89E92ACE0";
name = "19 Sep 24, 21:01";
shapes = (
{
closed = 1;
nodes = (
(598,680,l),
(602,680,l),
(856,277,l),
(1027,397,l),
(754,753,l),
(756,758,l),
(1154,877,l),
(1083,1072,l),
(685,904,l),
(682,907,l),
(705,1352,l),
(496,1352,l),
(519,908,l),
(515,905,l),
(117,1073,l),
(46,877,l),
(446,759,l),
(447,753,l),
(174,397,l),
(345,277,l)
);
}
);
width = 1200;
},
{
layerId = "88819DE9-98C6-4AB7-BD8B-9DF84621D738";
shapes = (
{
closed = 1;
nodes = (
(633,724,l),
(1118,996,l),
(1053,1111,l),
(575,819,l),
(90,552,l),
(155,437,l)
);
},
{
closed = 1;
nodes = (
(1118,552,l),
(633,819,l),
(155,1111,l),
(90,996,l),
(575,724,l),
(1053,437,l)
);
},
{
closed = 1;
nodes = (
(670,219,l),
(670,1329,l),
(538,1329,l),
(538,219,l)
);
}
);
width = 1208;
},
{
associatedMasterId = "88819DE9-98C6-4AB7-BD8B-9DF84621D738";
layerId = "86611DAA-D8F6-4991-BA0F-AB2A8E8D34A0";
name = "19 Sep 24, 20:23";
shapes = (
{
closed = 1;
nodes = (
(599,696,l),
(601,696,l),
(872,285,l),
(1015,385,l),
(745,760,l),
(747,763,l),
(1147,896,l),
(1089,1057,l),
(674,891,l),
(673,893,l),
(688,1349,l),
(513,1349,l),
(528,894,l),
(526,892,l),
(111,1058,l),
(53,895,l),
(456,764,l),
(457,759,l),
(186,385,l),
(329,285,l)
);
}
);
width = 1200;
},
{
layerId = "ED70A957-8AC1-4977-BF37-207E470C4E2E";
shapes = (
{
closed = 1;
nodes = (
(630,716,l),
(1120,983,l),
(1042,1119,l),
(568,828,l),
(78,565,l),
(156,429,l)
);
},
{
closed = 1;
nodes = (
(1120,565,l),
(630,828,l),
(156,1119,l),
(78,983,l),
(568,716,l),
(1042,429,l)
);
},
{
closed = 1;
nodes = (
(677,216,l),
(677,1332,l),
(521,1332,l),
(521,216,l)
);
}
);
width = 1198;
},
{
associatedMasterId = "ED70A957-8AC1-4977-BF37-207E470C4E2E";
layerId = "C98B7489-0D4A-49BD-9AE4-DA131B541191";
name = "19 Sep 24, 21:01";
shapes = (
{
closed = 1;
nodes = (
(598,680,l),
(602,680,l),
(856,277,l),
(1027,397,l),
(754,753,l),
(756,758,l),
(1154,877,l),
(1083,1072,l),
(685,904,l),
(682,907,l),
(705,1352,l),
(496,1352,l),
(519,908,l),
(515,905,l),
(117,1073,l),
(46,877,l),
(446,759,l),
(447,753,l),
(174,397,l),
(345,277,l)
);
}
);
width = 1200;
},
{
layerId = "1DFF5E08-190B-46A4-A527-B6F0A79A5803";
shapes = (
{
closed = 1;
nodes = (
(619,693,l),
(1124,944,l),
(1010,1143,l),
(547,854,l),
(42,604,l),
(156,405,l)
);
},
{
closed = 1;
nodes = (
(1124,604,l),
(619,854,l),
(156,1143,l),
(42,944,l),
(547,693,l),
(1010,405,l)
);
},
{
closed = 1;
nodes = (
(695,208,l),
(695,1340,l),
(471,1340,l),
(471,208,l)
);
}
);
width = 1166;
},
{
associatedMasterId = "1DFF5E08-190B-46A4-A527-B6F0A79A5803";
layerId = "0343F6F8-41DE-433C-88E1-DC2F681D9466";
name = "19 Sep 24, 21:01";
shapes = (
{
closed = 1;
nodes = (
(596,633,l),
(604,633,l),
(808,253,l),
(1062,432,l),
(782,733,l),
(784,742,l),
(1174,821,l),
(1065,1117,l),
(717,944,l),
(709,949,l),
(756,1361,l),
(445,1361,l),
(492,950,l),
(483,945,l),
(135,1117,l),
(26,822,l),
(417,743,l),
(418,734,l),
(138,432,l),
(393,253,l)
);
}
);
width = 1200;
},
{
layerId = "F632DC93-BEFD-4CC9-8CF6-AC4643A09268";
shapes = (
{
closed = 1;
nodes = (
(616,685,l),
(1126,931,l),
(999,1151,l),
(540,863,l),
(30,617,l),
(157,397,l)
);
},
{
closed = 1;
nodes = (
(1126,617,l),
(616,863,l),
(157,1151,l),
(30,931,l),
(540,685,l),
(999,397,l)
);
},
{
closed = 1;
nodes = (
(702,205,l),
(702,1343,l),
(454,1343,l),
(454,205,l)
);
}
);
width = 1156;
},
{
associatedMasterId = "F632DC93-BEFD-4CC9-8CF6-AC4643A09268";
layerId = "22EC93E5-0342-4724-94B5-F3A30A621C82";
name = "19 Sep 24, 20:56";
shapes = (
{
closed = 1;
nodes = (
(595,617,l),
(605,617,l),
(792,245,l),
(1074,444,l),
(791,726,l),
(793,737,l),
(1181,802,l),
(1059,1132,l),
(728,957,l),
(718,963,l),
(773,1364,l),
(428,1364,l),
(483,964,l),
(472,958,l),
(141,1132,l),
(19,804,l),
(407,738,l),
(408,728,l),
(126,444,l),
(409,245,l)
);
}
);
width = 1200;
}
);
unicode = 42;
}
{
glyphname = plus;
kernLeft = hyphen_left;
kernRight = hyphen_right;
layers = (
{
layerId = "68A78E10-2392-4B34-B44D-B6A5B48D0FD1";
shapes = (
{
closed = 1;
nodes = (
(690,164,l),
(690,1086,l),
(510,1086,l),
(510,164,l)
);
},
{
closed = 1;
nodes = (
(1060,541,l),
(1060,711,l),
(140,711,l),
(140,541,l)
);
}
);
width = 1200;
},
{
layerId = "50ED6B91-33B7-40F5-8C2C-B1BEC3C77CF0";
shapes = (
{
closed = 1;
nodes = (
(753,159,l),
(753,1135,l),
(447,1135,l),
(447,159,l)
);
},
{
closed = 1;
nodes = (
(1099,502,l),
(1099,792,l),
(101,792,l),
(101,502,l)
);
}
);
width = 1200;
},
{
layerId = "B7DB719C-51CF-4BC3-BA18-7A6A1AAC666B";
shapes = (
{
closed = 1;
nodes = (
(669,173,l),
(669,1077,l),
(531,1077,l),
(531,173,l)
);
},
{
closed = 1;
nodes = (
(1047,560,l),
(1047,690,l),
(153,690,l),
(153,560,l)
);
}
);
width = 1200;
},
{
layerId = "D010C1AA-6BDD-4F06-9849-880CC2F29E88";
shapes = (
{
closed = 1;
nodes = (
(771,147,l),
(771,1143,l),
(429,1143,l),
(429,147,l)
);
},
{
closed = 1;
nodes = (
(1106,485,l),
(1106,805,l),
(94,805,l),
(94,485,l)
);
}
);
width = 1200;
},
{
layerId = "88819DE9-98C6-4AB7-BD8B-9DF84621D738";
shapes = (
{
closed = 1;
nodes = (
(660,173,l),
(660,1077,l),
(522,1077,l),
(522,173,l)
);
},
{
closed = 1;
nodes = (
(1038,560,l),
(1038,690,l),
(144,690,l),
(144,560,l)
);
}
);
width = 1182;
},
{
layerId = "ED70A957-8AC1-4977-BF37-207E470C4E2E";
shapes = (
{
closed = 1;
nodes = (
(686,164,l),
(686,1086,l),
(506,1086,l),
(506,164,l)
);
},
{
closed = 1;
nodes = (
(1056,541,l),
(1056,711,l),
(136,711,l),
(136,541,l)
);
}
);
width = 1192;
},
{
layerId = "1DFF5E08-190B-46A4-A527-B6F0A79A5803";
shapes = (
{
closed = 1;
nodes = (
(764,159,l),
(764,1135,l),
(458,1135,l),
(458,159,l)
);
},
{
closed = 1;
nodes = (
(1110,502,l),
(1110,792,l),
(112,792,l),
(112,502,l)
);
}
);
width = 1222;
},
{
layerId = "F632DC93-BEFD-4CC9-8CF6-AC4643A09268";
shapes = (
{
closed = 1;
nodes = (
(781,147,l),
(781,1143,l),
(439,1143,l),
(439,147,l)
);
},
{
closed = 1;
nodes = (
(1116,485,l),
(1116,805,l),
(104,805,l),
(104,485,l)
);
}
);
width = 1220;
}
);
unicode = 43;
}
{
glyphname = comma;
kernLeft = comma_left;
kernRight = period_right;
layers = (
{
layerId = "68A78E10-2392-4B34-B44D-B6A5B48D0FD1";
shapes = (
{
closed = 1;
nodes = (
(699,-63,ls),
(748,5,o),
(776,67,o),
(776,131,cs),
(776,240,o),
(706,303,o),
(610,303,cs),
(517,303,o),
(451,233,o),
(451,147,cs),
(451,53,o),
(525,-6,o),
(615,-6,c),
(616,49,l),
(378,-271,l),
(494,-349,l)
);
}
);
width = 1200;
},
{
layerId = "50ED6B91-33B7-40F5-8C2C-B1BEC3C77CF0";
shapes = (
{
closed = 1;
nodes = (
(710,-78,ls),
(780,18,o),
(812,87,o),
(812,174,cs),
(812,292,o),
(737,386,o),
(605,386,cs),
(484,386,o),
(405,300,o),
(405,190,cs),
(405,69,o),
(509,3,o),
(597,10,c),
(603,103,l),
(325,-255,l),
(493,-375,l)
);
}
);
width = 1200;
},
{
layerId = "B7DB719C-51CF-4BC3-BA18-7A6A1AAC666B";
shapes = (
{
closed = 1;
nodes = (
(695,-58,ls),
(736,0,o),
(764,60,o),
(764,117,cs),
(764,223,o),
(696,275,o),
(612,275,cs),
(528,275,o),
(466,211,o),
(466,133,cs),
(466,48,o),
(530,-9,o),
(621,-11,c),
(620,31,l),
(396,-276,l),
(494,-340,l)
);
}
);
width = 1200;
},
{
layerId = "D010C1AA-6BDD-4F06-9849-880CC2F29E88";
shapes = (
{
closed = 1;
nodes = (
(714,-83,ls),
(792,23,o),
(824,94,o),
(824,188,cs),
(824,309,o),
(747,414,o),
(603,414,cs),
(473,414,o),
(390,322,o),
(390,204,cs),
(390,74,o),
(504,6,o),
(591,15,c),
(599,121,l),
(307,-250,l),
(493,-384,l)
);
}
);
width = 1200;
},
{
layerId = "88819DE9-98C6-4AB7-BD8B-9DF84621D738";
shapes = (
{
closed = 1;
nodes = (
(363,-58,ls),
(404,0,o),
(432,60,o),
(432,117,cs),
(432,223,o),
(364,275,o),
(280,275,cs),
(196,275,o),
(134,211,o),
(134,133,cs),
(134,48,o),
(198,-9,o),
(289,-11,c),
(288,31,l),
(64,-276,l),
(162,-340,l)
);
}
);
width = 556;
},
{
layerId = "ED70A957-8AC1-4977-BF37-207E470C4E2E";
shapes = (
{
closed = 1;
nodes = (
(378,-63,ls),
(427,5,o),
(455,67,o),
(455,131,cs),
(455,240,o),
(385,303,o),
(289,303,cs),
(196,303,o),
(130,233,o),
(130,147,cs),
(130,53,o),
(204,-6,o),
(294,-6,c),
(295,49,l),
(57,-271,l),
(173,-349,l)
);
}
);
width = 573;
},
{
layerId = "1DFF5E08-190B-46A4-A527-B6F0A79A5803";
shapes = (
{
closed = 1;
nodes = (
(421,-78,ls),
(491,18,o),
(523,87,o),
(523,174,cs),
(523,292,o),
(448,386,o),
(316,386,cs),
(195,386,o),
(116,300,o),
(116,190,cs),
(116,69,o),
(220,3,o),
(308,10,c),
(314,103,l),
(36,-255,l),
(204,-375,l)
);
}
);
width = 623;
},
{
layerId = "F632DC93-BEFD-4CC9-8CF6-AC4643A09268";
shapes = (
{
closed = 1;
nodes = (
(436,-83,ls),
(514,23,o),
(546,94,o),
(546,188,cs),
(546,309,o),
(469,414,o),
(325,414,cs),
(195,414,o),
(112,322,o),
(112,204,cs),
(112,74,o),
(226,6,o),
(313,15,c),
(321,121,l),
(29,-250,l),
(215,-384,l)
);
}
);
width = 640;
}
);
unicode = 44;
}
{
glyphname = hyphen;
kernLeft = hyphen_left;
kernRight = hyphen_right;
layers = (
{
layerId = "68A78E10-2392-4B34-B44D-B6A5B48D0FD1";
shapes = (
{
closed = 1;
nodes = (
(1045,533,l),
(1045,719,l),
(155,719,l),
(155,533,l)
);
}
);
width = 1200;
},
{
layerId = "50ED6B91-33B7-40F5-8C2C-B1BEC3C77CF0";
shapes = (
{
closed = 1;
nodes = (
(1072,493,l),
(1072,799,l),
(128,799,l),
(128,493,l)
);
}
);
width = 1200;
},
{
layerId = "B7DB719C-51CF-4BC3-BA18-7A6A1AAC666B";
shapes = (
{
closed = 1;
nodes = (
(1036,553,l),
(1036,699,l),
(164,699,l),
(164,553,l)
);
}
);
width = 1200;
},
{
layerId = "D010C1AA-6BDD-4F06-9849-880CC2F29E88";
shapes = (
{
closed = 1;
nodes = (
(1086,475,l),
(1086,815,l),
(114,815,l),
(114,475,l)
);
}
);
width = 1200;
},
{
layerId = "88819DE9-98C6-4AB7-BD8B-9DF84621D738";
shapes = (
{
closed = 1;
nodes = (
(1016,553,l),
(1016,699,l),
(144,699,l),
(144,553,l)
);
}
);
width = 1160;
},
{
layerId = "ED70A957-8AC1-4977-BF37-207E470C4E2E";
shapes = (
{
closed = 1;
nodes = (
(1026,533,l),
(1026,719,l),
(136,719,l),
(136,533,l)
);
}
);
width = 1162;
},
{
layerId = "1DFF5E08-190B-46A4-A527-B6F0A79A5803";
shapes = (
{
closed = 1;
nodes = (
(1056,493,l),
(1056,799,l),
(112,799,l),
(112,493,l)
);
}
);
width = 1168;
},
{
layerId = "F632DC93-BEFD-4CC9-8CF6-AC4643A09268";
shapes = (
{
closed = 1;
nodes = (
(1076,475,l),
(1076,815,l),
(104,815,l),
(104,475,l)
);
}
);
width = 1180;
}
);
unicode = 45;
}
{
glyphname = period;
kernLeft = period_left;
kernRight = period_right;
layers = (
{
layerId = "68A78E10-2392-4B34-B44D-B6A5B48D0FD1";
shapes = (
{
closed = 1;
nodes = (
(693,-29,o),
(764,42,o),
(764,135,cs),
(764,225,o),
(693,297,o),
(599,297,cs),
(508,297,o),
(435,225,o),
(435,135,cs),
(435,42,o),
(507,-29,o),
(599,-29,cs)
);
}
);
width = 1200;
},
{
layerId = "50ED6B91-33B7-40F5-8C2C-B1BEC3C77CF0";
shapes = (
{
closed = 1;
nodes = (
(717,-27,o),
(806,63,o),
(806,179,cs),
(806,293,o),
(717,384,o),
(600,384,cs),
(485,384,o),
(394,293,o),
(394,179,cs),
(394,63,o),
(485,-27,o),
(600,-27,cs)
);
}
);
width = 1200;
},
{
layerId = "B7DB719C-51CF-4BC3-BA18-7A6A1AAC666B";
shapes = (
{
closed = 1;
nodes = (
(685,-30,o),
(750,35,o),
(750,120,cs),
(750,202,o),
(685,268,o),
(599,268,cs),
(517,268,o),
(450,202,o),
(450,120,cs),
(450,35,o),
(515,-30,o),
(599,-30,cs)
);
}
);
width = 1200;
},
{
layerId = "D010C1AA-6BDD-4F06-9849-880CC2F29E88";
shapes = (
{
closed = 1;
nodes = (
(725,-30,o),
(820,65,o),
(820,188,cs),
(820,309,o),
(725,406,o),
(600,406,cs),
(477,406,o),
(380,309,o),
(380,188,cs),
(380,65,o),
(478,-30,o),
(600,-30,cs)
);
}
);
width = 1200;
},
{
layerId = "88819DE9-98C6-4AB7-BD8B-9DF84621D738";
shapes = (
{
closed = 1;
nodes = (
(351,-30,o),
(416,35,o),
(416,120,cs),
(416,202,o),
(351,268,o),
(265,268,cs),
(183,268,o),
(116,202,o),
(116,120,cs),
(116,35,o),
(181,-30,o),
(265,-30,cs)
);
}
);
width = 532;
},
{
layerId = "ED70A957-8AC1-4977-BF37-207E470C4E2E";
shapes = (
{
closed = 1;
nodes = (
(370,-29,o),
(441,42,o),
(441,135,cs),
(441,225,o),
(370,297,o),
(276,297,cs),
(185,297,o),
(112,225,o),
(112,135,cs),
(112,42,o),
(184,-29,o),
(276,-29,cs)
);
}
);
width = 553;
},
{
layerId = "1DFF5E08-190B-46A4-A527-B6F0A79A5803";
shapes = (
{
closed = 1;
nodes = (
(423,-27,o),
(512,63,o),
(512,179,cs),
(512,293,o),
(423,384,o),
(306,384,cs),
(191,384,o),
(100,293,o),
(100,179,cs),
(100,63,o),
(191,-27,o),
(306,-27,cs)
);
}
);
width = 612;
},
{
layerId = "F632DC93-BEFD-4CC9-8CF6-AC4643A09268";
shapes = (
{
closed = 1;
nodes = (
(441,-30,o),
(536,65,o),
(536,188,cs),
(536,309,o),
(441,406,o),
(316,406,cs),
(193,406,o),
(96,309,o),
(96,188,cs),
(96,65,o),
(194,-30,o),
(316,-30,cs)
);
}
);
width = 632;
}
);
unicode = 46;
}
{
glyphname = slash;
kernLeft = slash_left;
kernRight = slash_right;
layers = (
{
layerId = "68A78E10-2392-4B34-B44D-B6A5B48D0FD1";
shapes = (
{
closed = 1;
nodes = (
(298,-176,l),
(1090,1460,l),
(902,1460,l),
(110,-176,l)
);
}
);
width = 1200;
},
{
layerId = "50ED6B91-33B7-40F5-8C2C-B1BEC3C77CF0";
shapes = (
{
closed = 1;
nodes = (
(401,-176,l),
(1096,1460,l),
(799,1460,l),
(104,-176,l)
);
}
);
width = 1200;
},
{
layerId = "B7DB719C-51CF-4BC3-BA18-7A6A1AAC666B";
shapes = (
{
closed = 1;
nodes = (
(264,-176,l),
(1088,1460,l),
(936,1460,l),
(112,-176,l)
);
}
);
width = 1200;
},
{
layerId = "D010C1AA-6BDD-4F06-9849-880CC2F29E88";
shapes = (
{
closed = 1;
nodes = (
(435,-176,l),
(1098,1460,l),
(765,1460,l),
(102,-176,l)
);
}
);
width = 1200;
},
{
layerId = "88819DE9-98C6-4AB7-BD8B-9DF84621D738";
shapes = (
{
closed = 1;
nodes = (
(158,-176,l),
(982,1460,l),
(830,1460,l),
(6,-176,l)
);
}
);
width = 988;
},
{
layerId = "ED70A957-8AC1-4977-BF37-207E470C4E2E";
shapes = (
{
closed = 1;
nodes = (
(186,-176,l),
(1006,1460,l),
(818,1460,l),
(-2,-176,l)
);
}
);
width = 1004;
},
{
layerId = "1DFF5E08-190B-46A4-A527-B6F0A79A5803";
shapes = (
{
closed = 1;
nodes = (
(271,-176,l),
(1078,1460,l),
(781,1460,l),
(-26,-176,l)
);
}
);
width = 1052;
},
{
layerId = "F632DC93-BEFD-4CC9-8CF6-AC4643A09268";
shapes = (
{
closed = 1;
nodes = (
(299,-176,l),
(1102,1460,l),
(769,1460,l),
(-34,-176,l)
);
}
);
width = 1068;
}
);
unicode = 47;
}
{
color = 8;
glyphname = zero;
kernLeft = zero_left;
kernRight = zero_right;
layers = (
{
background = {
shapes = (
{
closed = 1;
nodes = (
(1067,836,l),
(1012,990,l),
(133,596,l),
(188,442,l)
);
},
{
closed = 1;
nodes = (
(914,-32,o),
(1102,234,o),
(1102,679,cs),
(1102,755,ls),
(1102,1198,o),
(914,1464,o),
(600,1464,cs),
(286,1464,o),
(98,1198,o),
(98,755,cs),
(98,679,ls),
(98,235,o),
(286,-32,o),
(600,-32,cs)
);
},
{
closed = 1;
nodes = (
(397,142,o),
(290,309,o),
(290,678,cs),
(290,756,ls),
(290,1106,o),
(397,1290,o),
(600,1290,cs),
(803,1290,o),
(910,1124,o),
(910,756,cs),
(910,678,ls),
(910,327,o),
(803,142,o),
(600,142,cs)
);
}
);
};
layerId = "68A78E10-2392-4B34-B44D-B6A5B48D0FD1";
shapes = (
{
closed = 1;
nodes = (
(1059,871,l),
(1004,1028,l),
(142,562,l),
(197,405,l)
);
},
{
closed = 1;
nodes = (
(918,-32,o),
(1102,231,o),
(1102,679,cs),
(1102,755,ls),
(1102,1202,o),
(918,1464,o),
(600,1464,cs),
(282,1464,o),
(98,1202,o),
(98,755,cs),
(98,679,ls),
(98,232,o),
(282,-32,o),
(600,-32,cs)
);
},
{
closed = 1;
nodes = (
(388,138,o),
(276,307,o),
(276,678,cs),
(276,756,ls),
(276,1109,o),
(388,1294,o),
(600,1294,cs),
(812,1294,o),
(924,1127,o),
(924,756,cs),
(924,678,ls),
(924,325,o),
(812,138,o),
(600,138,cs)
);
}
);
width = 1200;
},
{
background = {
shapes = (
{
closed = 1;
nodes = (
(1081,807,l),
(983,1026,l),
(129,625,l),
(227,406,l)
);
},
{
closed = 1;
nodes = (
(929,-34,o),
(1124,228,o),
(1124,692,cs),
(1124,741,ls),
(1124,1205,o),
(929,1466,o),
(601,1466,cs),
(273,1466,o),
(76,1205,o),
(76,741,cs),
(76,692,ls),
(76,228,o),
(273,-34,o),
(601,-34,cs)
);
},
{
closed = 1;
nodes = (
(453,250,o),
(383,392,o),
(383,679,cs),
(383,755,ls),
(383,1041,o),
(453,1182,o),
(601,1182,cs),
(749,1182,o),
(817,1041,o),
(817,755,cs),
(817,679,ls),
(817,392,o),
(749,250,o),
(601,250,cs)
);
}
);
};
layerId = "50ED6B91-33B7-40F5-8C2C-B1BEC3C77CF0";
shapes = (
{
closed = 1;
nodes = (
(1079,831,l),
(981,1056,l),
(121,602,l),
(219,377,l)
);
},
{
closed = 1;
nodes = (
(930,-34,o),
(1124,228,o),
(1124,692,cs),
(1124,741,ls),
(1124,1206,o),
(930,1466,o),
(601,1466,cs),
(272,1466,o),
(76,1206,o),
(76,741,cs),
(76,692,ls),
(76,228,o),
(272,-34,o),
(601,-34,cs)
);
},
{
closed = 1;
nodes = (
(440,240,o),
(368,381,o),
(368,679,cs),
(368,755,ls),
(368,1048,o),
(443,1192,o),
(608,1192,cs),
(760,1192,o),
(832,1054,o),
(832,755,cs),
(832,679,ls),
(832,386,o),
(757,240,o),
(592,240,cs)
);
}
);
width = 1200;
},
{
layerId = "B7DB719C-51CF-4BC3-BA18-7A6A1AAC666B";
shapes = (
{
closed = 1;
nodes = (
(1052,884,l),
(1011,1018,l),
(148,548,l),
(189,414,l)
);
},
{
closed = 1;
nodes = (
(913,-30,o),
(1094,233,o),
(1094,675,cs),
(1094,760,ls),
(1094,1199,o),
(913,1462,o),
(600,1462,cs),
(287,1462,o),
(106,1199,o),
(106,760,cs),
(106,675,ls),
(106,234,o),
(287,-30,o),
(600,-30,cs)
);
},
{
closed = 1;
nodes = (
(375,108,o),
(252,284,o),
(252,678,cs),
(252,756,ls),
(252,1127,o),
(374,1324,o),
(597,1324,cs),
(825,1324,o),
(948,1149,o),
(948,756,cs),
(948,678,ls),
(948,306,o),
(826,108,o),
(603,108,cs)
);
}
);
width = 1200;
},
{
layerId = "D010C1AA-6BDD-4F06-9849-880CC2F29E88";
shapes = (
{
closed = 1;
nodes = (
(1086,817,l),
(974,1065,l),
(114,615,l),
(226,367,l)
);
},
{
closed = 1;
nodes = (
(935,-35,o),
(1132,226,o),
(1132,696,cs),
(1132,736,ls),
(1132,1207,o),
(935,1467,o),
(601,1467,cs),
(268,1467,o),
(68,1207,o),
(68,736,cs),
(68,696,ls),
(68,226,o),
(268,-35,o),
(601,-35,cs)
);
},
{
closed = 1;
nodes = (
(457,275,o),
(398,406,o),
(398,679,cs),
(398,755,ls),
(398,1026,o),
(461,1157,o),
(611,1157,cs),
(743,1157,o),
(802,1028,o),
(802,755,cs),
(802,679,ls),
(802,407,o),
(739,275,o),
(589,275,cs)
);
}
);
width = 1200;
},
{
layerId = "88819DE9-98C6-4AB7-BD8B-9DF84621D738";
shapes = (
{
closed = 1;
nodes = (
(1090,884,l),
(1049,1018,l),
(186,548,l),
(227,414,l)
);
},
{
closed = 1;
nodes = (
(951,-30,o),
(1132,233,o),
(1132,675,cs),
(1132,760,ls),
(1132,1199,o),
(951,1462,o),
(638,1462,cs),
(325,1462,o),
(144,1199,o),
(144,760,cs),
(144,675,ls),
(144,234,o),
(325,-30,o),
(638,-30,cs)
);
},
{
closed = 1;
nodes = (
(413,108,o),
(290,284,o),
(290,678,cs),
(290,756,ls),
(290,1127,o),
(412,1324,o),
(635,1324,cs),
(863,1324,o),
(986,1149,o),
(986,756,cs),
(986,678,ls),
(986,306,o),
(864,108,o),
(641,108,cs)
);
}
);
width = 1276;
},
{
background = {
shapes = (
{
closed = 1;
nodes = (
(1099,836,l),
(1044,990,l),
(165,596,l),
(220,442,l)
);
},
{
closed = 1;
nodes = (
(946,-32,o),
(1134,234,o),
(1134,679,cs),
(1134,755,ls),
(1134,1198,o),
(946,1464,o),
(632,1464,cs),
(318,1464,o),
(130,1198,o),
(130,755,cs),
(130,679,ls),
(130,235,o),
(318,-32,o),
(632,-32,cs)
);
},
{
closed = 1;
nodes = (
(429,142,o),
(322,309,o),
(322,678,cs),
(322,756,ls),
(322,1106,o),
(429,1290,o),
(632,1290,cs),
(835,1290,o),
(942,1124,o),
(942,756,cs),
(942,678,ls),
(942,327,o),
(835,142,o),
(632,142,cs)
);
}
);
};
layerId = "ED70A957-8AC1-4977-BF37-207E470C4E2E";
shapes = (
{
closed = 1;
nodes = (
(1091,871,l),
(1036,1028,l),
(174,562,l),
(229,405,l)
);
},
{
closed = 1;
nodes = (
(950,-32,o),
(1134,231,o),
(1134,679,cs),
(1134,755,ls),
(1134,1202,o),
(950,1464,o),
(632,1464,cs),
(314,1464,o),
(130,1202,o),
(130,755,cs),
(130,679,ls),
(130,232,o),
(314,-32,o),
(632,-32,cs)
);
},
{
closed = 1;
nodes = (
(420,138,o),
(308,307,o),
(308,678,cs),
(308,756,ls),
(308,1109,o),
(420,1294,o),
(632,1294,cs),
(844,1294,o),
(956,1127,o),
(956,756,cs),
(956,678,ls),
(956,325,o),
(844,138,o),
(632,138,cs)
);
}
);
width = 1264;
},
{
background = {
shapes = (
{
closed = 1;
nodes = (
(1093,807,l),
(995,1026,l),
(141,625,l),
(239,406,l)
);
},
{
closed = 1;
nodes = (
(941,-34,o),
(1136,228,o),
(1136,692,cs),
(1136,741,ls),
(1136,1205,o),
(941,1466,o),
(613,1466,cs),
(285,1466,o),
(88,1205,o),
(88,741,cs),
(88,692,ls),
(88,228,o),
(285,-34,o),
(613,-34,cs)
);
},
{
closed = 1;
nodes = (
(465,250,o),
(395,392,o),
(395,679,cs),
(395,755,ls),
(395,1041,o),
(465,1182,o),
(613,1182,cs),
(761,1182,o),
(829,1041,o),
(829,755,cs),
(829,679,ls),
(829,392,o),
(761,250,o),
(613,250,cs)
);
}
);
};
layerId = "1DFF5E08-190B-46A4-A527-B6F0A79A5803";
shapes = (
{
closed = 1;
nodes = (
(1091,831,l),
(993,1056,l),
(133,602,l),
(231,377,l)
);
},
{
closed = 1;
nodes = (
(942,-34,o),
(1136,228,o),
(1136,692,cs),
(1136,741,ls),
(1136,1206,o),
(942,1466,o),
(613,1466,cs),
(284,1466,o),
(88,1206,o),
(88,741,cs),
(88,692,ls),
(88,228,o),
(284,-34,o),
(613,-34,cs)
);
},
{
closed = 1;
nodes = (
(452,240,o),
(380,381,o),
(380,679,cs),
(380,755,ls),
(380,1048,o),
(455,1192,o),
(620,1192,cs),
(772,1192,o),
(844,1054,o),
(844,755,cs),
(844,679,ls),
(844,386,o),
(769,240,o),
(604,240,cs)
);
}
);
width = 1224;
},
{
layerId = "F632DC93-BEFD-4CC9-8CF6-AC4643A09268";
shapes = (
{
closed = 1;
nodes = (
(1092,817,l),
(980,1065,l),
(120,615,l),
(232,367,l)
);
},
{
closed = 1;
nodes = (
(941,-35,o),
(1138,226,o),
(1138,696,cs),
(1138,736,ls),
(1138,1207,o),
(941,1467,o),
(607,1467,cs),
(274,1467,o),
(74,1207,o),
(74,736,cs),
(74,696,ls),
(74,226,o),
(274,-35,o),
(607,-35,cs)
);
},
{
closed = 1;
nodes = (
(463,275,o),
(404,406,o),
(404,679,cs),
(404,755,ls),
(404,1026,o),
(467,1157,o),
(617,1157,cs),
(749,1157,o),
(808,1028,o),
(808,755,cs),
(808,679,ls),
(808,407,o),
(745,275,o),
(595,275,cs)
);
}
);
width = 1212;
}
);
unicode = 48;
}
{
color = 8;
glyphname = one;
kernLeft = one_left;
kernRight = one_right;
layers = (
{
background = {
shapes = (
{
closed = 1;
nodes = (
(897,0,l),
(897,1432,l),
(763,1432,l),
(181,1062,l),
(287,902,l),
(705,1174,l),
(705,0,l)
);
}
);
};
layerId = "68A78E10-2392-4B34-B44D-B6A5B48D0FD1";
shapes = (
{
closed = 1;
nodes = (
(770,80,l),
(770,1432,l),
(641,1432,l),
(149,1171,l),
(235,1012,l),
(580,1197,l),
(580,80,l)
);
},
{
closed = 1;
nodes = (
(1106,0,l),
(1106,180,l),
(206,180,l),
(206,0,l)
);
}
);
width = 1200;
},
{
background = {
shapes = (
{
closed = 1;
nodes = (
(963,0,l),
(963,1432,l),
(730,1432,l),
(124,1059,l),
(289,804,l),
(648,1034,l),
(648,0,l)
);
}
);
};
layerId = "50ED6B91-33B7-40F5-8C2C-B1BEC3C77CF0";
shapes = (
{
closed = 1;
nodes = (
(831,110,l),
(831,1432,l),
(616,1432,l),
(101,1178,l),
(231,919,l),
(527,1067,l),
(527,110,l)
);
},
{
closed = 1;
nodes = (
(1158,0,l),
(1158,282,l),
(154,282,l),
(154,0,l)
);
}
);
width = 1200;
},
{
layerId = "B7DB719C-51CF-4BC3-BA18-7A6A1AAC666B";
shapes = (
{
closed = 1;
nodes = (
(750,70,l),
(750,1432,l),
(649,1432,l),
(165,1169,l),
(236,1043,l),
(598,1240,l),
(598,70,l)
);
},
{
closed = 1;
nodes = (
(1089,0,l),
(1089,146,l),
(223,146,l),
(223,0,l)
);
}
);
width = 1200;
},
{
layerId = "D010C1AA-6BDD-4F06-9849-880CC2F29E88";
shapes = (
{
closed = 1;
nodes = (
(851,120,l),
(851,1432,l),
(608,1432,l),
(85,1180,l),
(230,888,l),
(509,1024,l),
(509,120,l)
);
},
{
closed = 1;
nodes = (
(1175,0,l),
(1175,316,l),
(137,316,l),
(137,0,l)
);
}
);
width = 1200;
},
{
layerId = "88819DE9-98C6-4AB7-BD8B-9DF84621D738";
shapes = (
{
closed = 1;
nodes = (
(719,70,l),
(719,1432,l),
(618,1432,l),
(134,1169,l),
(205,1043,l),
(567,1240,l),
(567,70,l)
);
},
{
closed = 1;
nodes = (
(1058,0,l),
(1058,146,l),
(192,146,l),
(192,0,l)
);
}
);
width = 1152;
},
{
background = {
shapes = (
{
closed = 1;
nodes = (
(872,0,l),
(872,1432,l),
(738,1432,l),
(156,1062,l),
(262,902,l),
(680,1174,l),
(680,0,l)
);
}
);
};
layerId = "ED70A957-8AC1-4977-BF37-207E470C4E2E";
shapes = (
{
closed = 1;
nodes = (
(745,80,l),
(745,1432,l),
(616,1432,l),
(124,1171,l),
(210,1012,l),
(555,1197,l),
(555,80,l)
);
},
{
closed = 1;
nodes = (
(1081,0,l),
(1081,180,l),
(181,180,l),
(181,0,l)
);
}
);
width = 1165;
},
{
background = {
shapes = (
{
closed = 1;
nodes = (
(956,0,l),
(956,1432,l),
(723,1432,l),
(117,1059,l),
(282,804,l),
(641,1034,l),
(641,0,l)
);
}
);
};
layerId = "1DFF5E08-190B-46A4-A527-B6F0A79A5803";
shapes = (
{
closed = 1;
nodes = (
(824,110,l),
(824,1432,l),
(609,1432,l),
(94,1178,l),
(224,919,l),
(520,1067,l),
(520,110,l)
);
},
{
closed = 1;
nodes = (
(1151,0,l),
(1151,282,l),
(147,282,l),
(147,0,l)
);
}
);
width = 1205;
},
{
layerId = "F632DC93-BEFD-4CC9-8CF6-AC4643A09268";
shapes = (
{
closed = 1;
nodes = (
(850,120,l),
(850,1432,l),
(607,1432,l),
(84,1180,l),
(229,888,l),
(508,1024,l),
(508,120,l)
);
},
{
closed = 1;
nodes = (
(1174,0,l),
(1174,316,l),
(136,316,l),
(136,0,l)
);
}
);
width = 1218;
}
);
unicode = 49;
}
{
color = 8;
glyphname = two;
kernLeft = two_left;
kernRight = two_right;
layers = (
{
layerId = "68A78E10-2392-4B34-B44D-B6A5B48D0FD1";
shapes = (
{
closed = 1;
nodes = (
(1036,0,l),
(1036,176,l),
(387,176,l),
(387,184,l),
(779,620,ls),
(956,817,o),
(1014,929,o),
(1014,1071,cs),
(1014,1083,ls),
(1014,1309,o),
(851,1464,o),
(614,1464,cs),
(410,1464,o),
(249,1359,o),
(150,1157,c),
(320,1075,l),
(389,1214,o),
(483,1281,o),
(609,1281,cs),
(742,1281,o),
(820,1206,o),
(820,1078,cs),
(820,1068,ls),
(820,961,o),
(777,878,o),
(647,732,cs),
(150,172,l),
(150,0,l)
);
}
);
width = 1200;
},
{
layerId = "50ED6B91-33B7-40F5-8C2C-B1BEC3C77CF0";
shapes = (
{
closed = 1;
nodes = (
(1082,0,l),
(1082,287,l),
(523,287,l),
(523,297,l),
(809,604,ls),
(998,807,o),
(1055,915,o),
(1055,1064,cs),
(1055,1073,ls),
(1055,1308,o),
(880,1466,o),
(620,1466,cs),
(379,1466,o),
(190,1338,o),
(108,1117,c),
(401,1008,l),
(442,1113,o),
(504,1164,o),
(593,1164,cs),
(678,1164,o),
(729,1113,o),
(729,1028,cs),
(729,1021,ls),
(729,942,o),
(699,885,o),
(599,775,cs),
(114,242,l),
(114,0,l)
);
}
);
width = 1200;
},
{
layerId = "B7DB719C-51CF-4BC3-BA18-7A6A1AAC666B";
shapes = (
{
closed = 1;
nodes = (
(1020,0,l),
(1020,140,l),
(342,140,l),
(342,146,l),
(769,625,ls),
(942,820,o),
(1001,934,o),
(1001,1073,cs),
(1001,1086,ls),
(1001,1308,o),
(842,1462,o),
(612,1462,cs),
(420,1462,o),
(269,1364,o),
(164,1170,c),
(293,1097,l),
(371,1246,o),
(476,1318,o),
(614,1318,cs),
(762,1318,o),
(849,1235,o),
(849,1094,cs),
(849,1083,ls),
(849,967,o),
(803,876,o),
(663,718,cs),
(162,149,l),
(162,0,l)
);
}
);
width = 1200;
},
{
layerId = "D010C1AA-6BDD-4F06-9849-880CC2F29E88";
shapes = (
{
closed = 1;
nodes = (
(1096,0,l),
(1096,324,l),
(567,324,l),
(567,334,l),
(817,599,ls),
(1010,804,o),
(1067,910,o),
(1067,1061,cs),
(1067,1069,ls),
(1067,1308,o),
(888,1467,o),
(620,1467,cs),
(367,1467,o),
(169,1331,o),
(92,1104,c),
(426,985,l),
(458,1079,o),
(510,1125,o),
(586,1125,cs),
(655,1125,o),
(697,1082,o),
(697,1011,cs),
(697,1005,ls),
(697,936,o),
(671,887,o),
(581,789,cs),
(100,265,l),
(100,0,l)
);
}
);
width = 1200;
},
{
associatedMasterId = "50ED6B91-33B7-40F5-8C2C-B1BEC3C77CF0";
layerId = "95896CE0-6FBF-4F9B-BD35-F7722CC88E46";
name = "27 Nov 24, 14:07";
shapes = (
{
closed = 1;
nodes = (
(1082,0,l),
(1082,286,l),
(523,286,l),
(523,296,l),
(809,604,ls),
(998,807,o),
(1055,916,o),
(1055,1071,cs),
(1055,1080,ls),
(1055,1314,o),
(884,1466,o),
(621,1466,cs),
(370,1466,o),
(191,1346,o),
(108,1117,c),
(401,1008,l),
(440,1111,o),
(504,1164,o),
(592,1164,cs),
(679,1164,o),
(729,1111,o),
(729,1029,cs),
(729,1022,ls),
(729,942,o),
(698,884,o),
(599,775,cs),
(114,242,l),
(114,0,l)
);
}
);
width = 1200;
},
{
associatedMasterId = "68A78E10-2392-4B34-B44D-B6A5B48D0FD1";
layerId = "18060786-DC1A-4594-A4CE-58F3863F060D";
name = "27 Nov 24, 14:07";
shapes = (
{
closed = 1;
nodes = (
(1036,0,l),
(1036,176,l),
(387,176,l),
(387,184,l),
(779,620,ls),
(957,818,o),
(1014,927,o),
(1014,1070,cs),
(1014,1082,ls),
(1014,1309,o),
(852,1463,o),
(614,1463,cs),
(407,1463,o),
(249,1360,o),
(150,1157,c),
(320,1075,l),
(388,1213,o),
(483,1281,o),
(608,1281,cs),
(742,1281,o),
(820,1205,o),
(820,1078,cs),
(820,1068,ls),
(820,961,o),
(777,878,o),
(647,732,cs),
(150,172,l),
(150,0,l)
);
}
);
width = 1200;
},
{
layerId = "88819DE9-98C6-4AB7-BD8B-9DF84621D738";
shapes = (
{
closed = 1;
nodes = (
(992,0,l),
(992,140,l),
(314,140,l),
(314,146,l),
(741,625,ls),
(914,820,o),
(973,934,o),
(973,1073,cs),
(973,1086,ls),
(973,1308,o),
(814,1462,o),
(584,1462,cs),
(392,1462,o),
(241,1364,o),
(136,1170,c),
(265,1097,l),
(343,1246,o),
(448,1318,o),
(586,1318,cs),
(734,1318,o),
(821,1235,o),
(821,1094,cs),
(821,1083,ls),
(821,967,o),
(775,876,o),
(635,718,cs),
(134,149,l),
(134,0,l)
);
}
);
width = 1136;
},
{
layerId = "ED70A957-8AC1-4977-BF37-207E470C4E2E";
shapes = (
{
closed = 1;
nodes = (
(1008,0,l),
(1008,176,l),
(359,176,l),
(359,184,l),
(751,620,ls),
(928,817,o),
(986,929,o),
(986,1071,cs),
(986,1083,ls),
(986,1309,o),
(823,1464,o),
(586,1464,cs),
(382,1464,o),
(221,1359,o),
(122,1157,c),
(292,1075,l),
(361,1214,o),
(455,1281,o),
(581,1281,cs),
(714,1281,o),
(792,1206,o),
(792,1078,cs),
(792,1068,ls),
(792,961,o),
(749,878,o),
(619,732,cs),
(122,172,l),
(122,0,l)
);
}
);
width = 1138;
},
{
layerId = "1DFF5E08-190B-46A4-A527-B6F0A79A5803";
shapes = (
{
closed = 1;
nodes = (
(1053,0,l),
(1053,287,l),
(494,287,l),
(494,297,l),
(780,604,ls),
(969,807,o),
(1026,915,o),
(1026,1064,cs),
(1026,1073,ls),
(1026,1308,o),
(851,1466,o),
(591,1466,cs),
(350,1466,o),
(161,1338,o),
(79,1117,c),
(372,1008,l),
(413,1113,o),
(475,1164,o),
(564,1164,cs),
(649,1164,o),
(700,1113,o),
(700,1028,cs),
(700,1021,ls),
(700,942,o),
(670,885,o),
(570,775,cs),
(85,242,l),
(85,0,l)
);
}
);
width = 1141;
},
{
layerId = "F632DC93-BEFD-4CC9-8CF6-AC4643A09268";
shapes = (
{
closed = 1;
nodes = (
(1068,0,l),
(1068,324,l),
(539,324,l),
(539,334,l),
(789,599,ls),
(982,804,o),
(1039,910,o),
(1039,1061,cs),
(1039,1069,ls),
(1039,1308,o),
(860,1467,o),
(592,1467,cs),
(339,1467,o),
(141,1331,o),
(64,1104,c),
(398,985,l),
(430,1079,o),
(482,1125,o),
(558,1125,cs),
(627,1125,o),
(669,1082,o),
(669,1011,cs),
(669,1005,ls),
(669,936,o),
(643,887,o),
(553,789,cs),
(72,265,l),
(72,0,l)
);
}
);
width = 1142;
}
);
unicode = 50;
}
{
color = 8;
glyphname = three;
kernLeft = three_left;
kernRight = three_right;
layers = (
{
layerId = "68A78E10-2392-4B34-B44D-B6A5B48D0FD1";
shapes = (
{
closed = 1;
nodes = (
(882,-31,o),
(1068,138,o),
(1068,372,cs),
(1068,391,ls),
(1068,568,o),
(962,705,o),
(786,743,c),
(786,749,l),
(944,798,o),
(1027,912,o),
(1027,1075,cs),
(1027,1085,ls),
(1027,1310,o),
(860,1463,o),
(614,1463,cs),
(390,1463,o),
(216,1343,o),
(145,1138,c),
(317,1081,l),
(364,1214,o),
(467,1288,o),
(608,1288,cs),
(751,1288,o),
(839,1204,o),
(839,1075,cs),
(839,1056,ls),
(839,912,o),
(735,825,o),
(563,825,cs),
(439,825,l),
(439,649,l),
(583,649,ls),
(774,649,o),
(881,559,o),
(881,406,cs),
(881,380,ls),
(881,238,o),
(774,145,o),
(613,145,cs),
(448,145,o),
(328,234,o),
(285,391,c),
(113,339,l),
(174,108,o),
(363,-31,o),
(622,-31,cs)
);
}
);
width = 1200;
},
{
layerId = "50ED6B91-33B7-40F5-8C2C-B1BEC3C77CF0";
shapes = (
{
closed = 1;
nodes = (
(923,-34,o),
(1116,132,o),
(1116,373,cs),
(1116,385,ls),
(1116,558,o),
(1012,696,o),
(816,736,c),
(816,743,l),
(981,793,o),
(1073,918,o),
(1073,1081,cs),
(1073,1091,ls),
(1073,1314,o),
(891,1466,o),
(618,1466,cs),
(364,1466,o),
(170,1336,o),
(105,1123,c),
(387,1030,l),
(415,1123,o),
(492,1178,o),
(594,1178,cs),
(702,1178,o),
(762,1121,o),
(762,1036,cs),
(762,1019,ls),
(762,923,o),
(691,869,o),
(567,869,cs),
(413,869,l),
(413,587,l),
(599,587,ls),
(739,587,o),
(807,529,o),
(807,432,cs),
(807,412,ls),
(807,312,o),
(733,255,o),
(618,255,cs),
(480,255,o),
(388,324,o),
(349,458,c),
(73,365,l),
(145,109,o),
(345,-34,o),
(643,-34,cs)
);
}
);
width = 1200;
},
{
layerId = "B7DB719C-51CF-4BC3-BA18-7A6A1AAC666B";
shapes = (
{
closed = 1;
nodes = (
(868,-30,o),
(1052,140,o),
(1052,372,cs),
(1052,393,ls),
(1052,571,o),
(945,708,o),
(776,745,c),
(776,751,l),
(931,800,o),
(1011,910,o),
(1011,1073,cs),
(1011,1083,ls),
(1011,1308,o),
(850,1462,o),
(613,1462,cs),
(398,1462,o),
(231,1345,o),
(158,1143,c),
(294,1098,l),
(347,1244,o),
(459,1324,o),
(613,1324,cs),
(767,1324,o),
(865,1232,o),
(865,1088,cs),
(865,1068,ls),
(865,908,o),
(749,810,o),
(562,810,cs),
(448,810,l),
(448,670,l),
(578,670,ls),
(785,670,o),
(906,569,o),
(906,397,cs),
(906,369,ls),
(906,213,o),
(787,108,o),
(611,108,cs),
(437,108,o),
(308,204,o),
(264,368,c),
(126,330,l),
(184,107,o),
(369,-30,o),
(615,-30,cs)
);
}
);
width = 1200;
},
{
layerId = "D010C1AA-6BDD-4F06-9849-880CC2F29E88";
shapes = (
{
closed = 1;
nodes = (
(937,-35,o),
(1132,130,o),
(1132,373,cs),
(1132,383,ls),
(1132,555,o),
(1029,693,o),
(826,733,c),
(826,741,l),
(993,791,o),
(1088,920,o),
(1088,1083,cs),
(1088,1093,ls),
(1088,1315,o),
(901,1467,o),
(619,1467,cs),
(355,1467,o),
(155,1334,o),
(92,1118,c),
(410,1013,l),
(432,1092,o),
(500,1141,o),
(589,1141,cs),
(685,1141,o),
(736,1093,o),
(736,1023,cs),
(736,1007,ls),
(736,927,o),
(676,884,o),
(568,884,cs),
(404,884,l),
(404,566,l),
(603,566,ls),
(725,566,o),
(780,519,o),
(780,440,cs),
(780,422,ls),
(780,336,o),
(718,291,o),
(620,291,cs),
(491,291,o),
(408,354,o),
(370,480,c),
(60,374,l),
(135,109,o),
(339,-35,o),
(650,-35,cs)
);
}
);
width = 1200;
},
{
layerId = "88819DE9-98C6-4AB7-BD8B-9DF84621D738";
shapes = (
{
closed = 1;
nodes = (
(846,-30,o),
(1030,140,o),
(1030,372,cs),
(1030,393,ls),
(1030,571,o),
(923,708,o),
(754,745,c),
(754,751,l),
(909,800,o),
(989,910,o),
(989,1073,cs),
(989,1083,ls),
(989,1308,o),
(828,1462,o),
(591,1462,cs),
(376,1462,o),
(209,1345,o),
(136,1143,c),
(272,1098,l),
(325,1244,o),
(437,1324,o),
(591,1324,cs),
(745,1324,o),
(843,1232,o),
(843,1088,cs),
(843,1068,ls),
(843,908,o),
(727,810,o),
(540,810,cs),
(426,810,l),
(426,670,l),
(556,670,ls),
(763,670,o),
(884,569,o),
(884,397,cs),
(884,369,ls),
(884,213,o),
(765,108,o),
(589,108,cs),
(415,108,o),
(286,204,o),
(242,368,c),
(104,330,l),
(162,107,o),
(347,-30,o),
(593,-30,cs)
);
}
);
width = 1164;
},
{
layerId = "ED70A957-8AC1-4977-BF37-207E470C4E2E";
shapes = (
{
closed = 1;
nodes = (
(863,-31,o),
(1049,138,o),
(1049,372,cs),
(1049,391,ls),
(1049,568,o),
(943,705,o),
(767,743,c),
(767,749,l),
(925,798,o),
(1008,912,o),
(1008,1075,cs),
(1008,1085,ls),
(1008,1310,o),
(841,1463,o),
(595,1463,cs),
(371,1463,o),
(197,1343,o),
(126,1138,c),
(298,1081,l),
(345,1214,o),
(448,1288,o),
(589,1288,cs),
(732,1288,o),
(820,1204,o),
(820,1075,cs),
(820,1056,ls),
(820,912,o),
(716,825,o),
(544,825,cs),
(420,825,l),
(420,649,l),
(564,649,ls),
(755,649,o),
(862,559,o),
(862,406,cs),
(862,380,ls),
(862,238,o),
(755,145,o),
(594,145,cs),
(429,145,o),
(309,234,o),
(266,391,c),
(94,339,l),
(155,108,o),
(344,-31,o),
(603,-31,cs)
);
}
);
width = 1173;
},
{
layerId = "1DFF5E08-190B-46A4-A527-B6F0A79A5803";
shapes = (
{
closed = 1;
nodes = (
(914,-34,o),
(1107,132,o),
(1107,373,cs),
(1107,385,ls),
(1107,558,o),
(1003,696,o),
(807,736,c),
(807,743,l),
(972,793,o),
(1064,918,o),
(1064,1081,cs),
(1064,1091,ls),
(1064,1314,o),
(882,1466,o),
(609,1466,cs),
(355,1466,o),
(161,1336,o),
(96,1123,c),
(378,1030,l),
(406,1123,o),
(483,1178,o),
(585,1178,cs),
(693,1178,o),
(753,1121,o),
(753,1036,cs),
(753,1019,ls),
(753,923,o),
(682,869,o),
(558,869,cs),
(404,869,l),
(404,587,l),
(590,587,ls),
(730,587,o),
(798,529,o),
(798,432,cs),
(798,412,ls),
(798,312,o),
(724,255,o),
(609,255,cs),
(471,255,o),
(379,324,o),
(340,458,c),
(64,365,l),
(136,109,o),
(336,-34,o),
(634,-34,cs)
);
}
);
width = 1201;
},
{
layerId = "F632DC93-BEFD-4CC9-8CF6-AC4643A09268";
shapes = (
{
closed = 1;
nodes = (
(931,-35,o),
(1126,130,o),
(1126,373,cs),
(1126,383,ls),
(1126,555,o),
(1023,693,o),
(820,733,c),
(820,741,l),
(987,791,o),
(1082,920,o),
(1082,1083,cs),
(1082,1093,ls),
(1082,1315,o),
(895,1467,o),
(613,1467,cs),
(349,1467,o),
(149,1334,o),
(86,1118,c),
(404,1013,l),
(426,1092,o),
(494,1141,o),
(583,1141,cs),
(679,1141,o),
(730,1093,o),
(730,1023,cs),
(730,1007,ls),
(730,927,o),
(670,884,o),
(562,884,cs),
(398,884,l),
(398,566,l),
(597,566,ls),
(719,566,o),
(774,519,o),
(774,440,cs),
(774,422,ls),
(774,336,o),
(712,291,o),
(614,291,cs),
(485,291,o),
(402,354,o),
(364,480,c),
(54,374,l),
(129,109,o),
(333,-35,o),
(644,-35,cs)
);
}
);
width = 1210;
}
);
unicode = 51;
}
{
color = 8;
glyphname = four;
kernLeft = four_left;
kernRight = four_right;
layers = (
{
layerId = "68A78E10-2392-4B34-B44D-B6A5B48D0FD1";
shapes = (
{
closed = 1;
nodes = (
(898,0,l),
(898,1432,l),
(702,1432,l),
(76,510,l),
(76,358,l),
(1114,358,l),
(1114,528,l),
(838,528,l),
(792,524,l),
(282,524,l),
(282,529,l),
(715,1166,l),
(798,1166,l),
(720,1257,l),
(720,466,l),
(714,426,l),
(714,0,l)
);
}
);
width = 1200;
},
{
layerId = "50ED6B91-33B7-40F5-8C2C-B1BEC3C77CF0";
shapes = (
{
closed = 1;
nodes = (
(950,0,l),
(950,1432,l),
(640,1432,l),
(46,549,l),
(46,305,l),
(1144,305,l),
(1144,575,l),
(851,575,l),
(780,559,l),
(341,559,l),
(341,567,l),
(660,1041,l),
(711,1041,l),
(668,1098,l),
(668,487,l),
(650,438,l),
(650,0,l)
);
}
);
width = 1200;
},
{
layerId = "B7DB719C-51CF-4BC3-BA18-7A6A1AAC666B";
shapes = (
{
closed = 1;
nodes = (
(881,0,l),
(881,1432,l),
(723,1432,l),
(86,497,l),
(86,376,l),
(1104,376,l),
(1104,512,l),
(834,512,l),
(796,512,l),
(261,512,l),
(261,516,l),
(733,1208,l),
(827,1208,l),
(737,1310,l),
(737,459,l),
(735,422,l),
(735,0,l)
);
}
);
width = 1200;
},
{
layerId = "D010C1AA-6BDD-4F06-9849-880CC2F29E88";
shapes = (
{
closed = 1;
nodes = (
(967,0,l),
(967,1432,l),
(619,1432,l),
(36,562,l),
(36,287,l),
(1154,287,l),
(1154,589,l),
(855,589,l),
(776,571,l),
(361,571,l),
(361,580,l),
(642,999,l),
(682,999,l),
(651,1045,l),
(651,494,l),
(629,442,l),
(629,0,l)
);
}
);
width = 1200;
},
{
layerId = "88819DE9-98C6-4AB7-BD8B-9DF84621D738";
shapes = (
{
closed = 1;
nodes = (
(879,0,l),
(879,1432,l),
(721,1432,l),
(84,497,l),
(84,376,l),
(1102,376,l),
(1102,512,l),
(832,512,l),
(794,512,l),
(259,512,l),
(259,516,l),
(731,1208,l),
(825,1208,l),
(735,1310,l),
(735,459,l),
(733,422,l),
(733,0,l)
);
}
);
width = 1196;
},
{
layerId = "ED70A957-8AC1-4977-BF37-207E470C4E2E";
shapes = (
{
closed = 1;
nodes = (
(900,0,l),
(900,1432,l),
(704,1432,l),
(78,510,l),
(78,358,l),
(1116,358,l),
(1116,528,l),
(840,528,l),
(794,524,l),
(284,524,l),
(284,529,l),
(717,1166,l),
(800,1166,l),
(722,1257,l),
(722,466,l),
(716,426,l),
(716,0,l)
);
}
);
width = 1204;
},
{
layerId = "1DFF5E08-190B-46A4-A527-B6F0A79A5803";
shapes = (
{
closed = 1;
nodes = (
(964,0,l),
(964,1432,l),
(654,1432,l),
(60,549,l),
(60,305,l),
(1158,305,l),
(1158,575,l),
(865,575,l),
(794,559,l),
(355,559,l),
(355,567,l),
(674,1041,l),
(725,1041,l),
(682,1098,l),
(682,487,l),
(664,438,l),
(664,0,l)
);
}
);
width = 1228;
},
{
layerId = "F632DC93-BEFD-4CC9-8CF6-AC4643A09268";
shapes = (
{
closed = 1;
nodes = (
(985,0,l),
(985,1432,l),
(637,1432,l),
(54,562,l),
(54,287,l),
(1172,287,l),
(1172,589,l),
(873,589,l),
(794,571,l),
(379,571,l),
(379,580,l),
(660,999,l),
(700,999,l),
(669,1045,l),
(669,494,l),
(647,442,l),
(647,0,l)
);
}
);
width = 1236;
}
);
unicode = 52;
}
{
color = 8;
glyphname = five;
kernLeft = five_left;
kernRight = five_right;
layers = (
{
layerId = "68A78E10-2392-4B34-B44D-B6A5B48D0FD1";
shapes = (
{
closed = 1;
nodes = (
(891,-31,o),
(1080,156,o),
(1080,442,cs),
(1080,462,ls),
(1080,730,o),
(912,913,o),
(664,913,cs),
(537,913,o),
(425,867,o),
(342,783,c),
(337,785,l),
(404,1255,l),
(1002,1255,l),
(1002,1432,l),
(257,1432,l),
(156,669,l),
(350,609,l),
(424,695,o),
(513,739,o),
(624,739,cs),
(788,739,o),
(893,634,o),
(893,467,cs),
(893,437,ls),
(893,260,o),
(779,145,o),
(599,145,cs),
(439,145,o),
(329,233,o),
(284,395,c),
(112,342,l),
(178,109,o),
(360,-31,o),
(601,-31,cs)
);
}
);
width = 1200;
},
{
layerId = "50ED6B91-33B7-40F5-8C2C-B1BEC3C77CF0";
shapes = (
{
closed = 1;
nodes = (
(907,-34,o),
(1118,167,o),
(1118,466,cs),
(1118,476,ls),
(1118,752,o),
(953,938,o),
(708,938,cs),
(585,938,o),
(482,896,o),
(396,812,c),
(388,816,l),
(436,1155,l),
(1032,1155,l),
(1032,1432,l),
(218,1432,l),
(120,668,l),
(388,585,l),
(441,649,o),
(517,684,o),
(603,684,cs),
(726,684,o),
(808,603,o),
(808,479,cs),
(808,459,ls),
(808,335,o),
(724,255,o),
(595,255,cs),
(471,255,o),
(380,328,o),
(346,456,c),
(72,356,l),
(136,117,o),
(338,-34,o),
(595,-34,cs)
);
}
);
width = 1200;
},
{
associatedMasterId = "68A78E10-2392-4B34-B44D-B6A5B48D0FD1";
layerId = "632EFB59-C29E-4FED-A850-CDE9E31C7C50";
name = "4 Jun 24, 01:01";
shapes = (
{
closed = 1;
nodes = (
(895,-32,o),
(1080,159,o),
(1080,451,cs),
(1080,471,ls),
(1080,743,o),
(912,931,o),
(668,931,cs),
(547,931,o),
(435,887,o),
(353,807,c),
(348,809,l),
(406,1254,l),
(1002,1254,l),
(1002,1432,l),
(257,1432,l),
(162,687,l),
(356,627,l),
(427,715,o),
(515,757,o),
(628,757,cs),
(789,757,o),
(892,648,o),
(892,476,cs),
(892,446,ls),
(892,260,o),
(782,144,o),
(606,144,cs),
(444,144,o),
(330,233,o),
(284,395,c),
(112,342,l),
(179,108,o),
(365,-32,o),
(610,-32,cs)
);
}
);
width = 1200;
},
{
layerId = "B7DB719C-51CF-4BC3-BA18-7A6A1AAC666B";
shapes = (
{
closed = 1;
nodes = (
(886,-30,o),
(1068,152,o),
(1068,434,cs),
(1068,457,ls),
(1068,722,o),
(899,905,o),
(650,905,cs),
(522,905,o),
(407,857,o),
(325,773,c),
(321,774,l),
(395,1288,l),
(993,1288,l),
(993,1432,l),
(271,1432,l),
(169,669,l),
(339,617,l),
(419,710,o),
(513,757,o),
(632,757,cs),
(810,757,o),
(922,644,o),
(922,463,cs),
(922,430,ls),
(922,235,o),
(798,108,o),
(602,108,cs),
(430,108,o),
(313,201,o),
(264,375,c),
(126,337,l),
(193,106,o),
(369,-30,o),
(604,-30,cs)
);
}
);
width = 1200;
},
{
layerId = "D010C1AA-6BDD-4F06-9849-880CC2F29E88";
shapes = (
{
closed = 1;
nodes = (
(913,-35,o),
(1132,171,o),
(1132,474,cs),
(1132,481,ls),
(1132,759,o),
(967,946,o),
(722,946,cs),
(601,946,o),
(501,906,o),
(413,822,c),
(404,826,l),
(446,1122,l),
(1041,1122,l),
(1041,1432,l),
(204,1432,l),
(108,668,l),
(400,577,l),
(449,632,o),
(516,666,o),
(595,666,cs),
(716,666,o),
(780,593,o),
(780,487,cs),
(780,470,ls),
(780,360,o),
(711,291,o),
(593,291,cs),
(481,291,o),
(396,360,o),
(366,476,c),
(58,361,l),
(122,119,o),
(330,-35,o),
(592,-35,cs)
);
}
);
width = 1200;
},
{
layerId = "88819DE9-98C6-4AB7-BD8B-9DF84621D738";
shapes = (
{
closed = 1;
nodes = (
(896,-30,o),
(1078,152,o),
(1078,434,cs),
(1078,457,ls),
(1078,722,o),
(909,905,o),
(660,905,cs),
(532,905,o),
(417,857,o),
(335,773,c),
(331,774,l),
(405,1288,l),
(1003,1288,l),
(1003,1432,l),
(281,1432,l),
(179,669,l),
(349,617,l),
(429,710,o),
(523,757,o),
(642,757,cs),
(820,757,o),
(932,644,o),
(932,463,cs),
(932,430,ls),
(932,235,o),
(808,108,o),
(612,108,cs),
(440,108,o),
(323,201,o),
(274,375,c),
(136,337,l),
(203,106,o),
(379,-30,o),
(614,-30,cs)
);
}
);
width = 1204;
},
{
layerId = "ED70A957-8AC1-4977-BF37-207E470C4E2E";
shapes = (
{
closed = 1;
nodes = (
(905,-31,o),
(1094,156,o),
(1094,442,cs),
(1094,462,ls),
(1094,730,o),
(926,913,o),
(678,913,cs),
(551,913,o),
(439,867,o),
(356,783,c),
(351,785,l),
(418,1255,l),
(1016,1255,l),
(1016,1432,l),
(271,1432,l),
(170,669,l),
(364,609,l),
(438,695,o),
(527,739,o),
(638,739,cs),
(802,739,o),
(907,634,o),
(907,467,cs),
(907,437,ls),
(907,260,o),
(793,145,o),
(613,145,cs),
(453,145,o),
(343,233,o),
(298,395,c),
(126,342,l),
(192,109,o),
(374,-31,o),
(615,-31,cs)
);
}
);
width = 1212;
},
{
layerId = "1DFF5E08-190B-46A4-A527-B6F0A79A5803";
shapes = (
{
closed = 1;
nodes = (
(931,-34,o),
(1142,167,o),
(1142,466,cs),
(1142,476,ls),
(1142,752,o),
(977,938,o),
(732,938,cs),
(609,938,o),
(506,896,o),
(420,812,c),
(412,816,l),
(460,1155,l),
(1056,1155,l),
(1056,1432,l),
(242,1432,l),
(144,668,l),
(412,585,l),
(465,649,o),
(541,684,o),
(627,684,cs),
(750,684,o),
(832,603,o),
(832,479,cs),
(832,459,ls),
(832,335,o),
(748,255,o),
(619,255,cs),
(495,255,o),
(404,328,o),
(370,456,c),
(96,356,l),
(160,117,o),
(362,-34,o),
(619,-34,cs)
);
}
);
width = 1236;
},
{
layerId = "F632DC93-BEFD-4CC9-8CF6-AC4643A09268";
shapes = (
{
closed = 1;
nodes = (
(941,-35,o),
(1160,171,o),
(1160,474,cs),
(1160,481,ls),
(1160,759,o),
(995,946,o),
(750,946,cs),
(629,946,o),
(529,906,o),
(441,822,c),
(432,826,l),
(474,1122,l),
(1069,1122,l),
(1069,1432,l),
(232,1432,l),
(136,668,l),
(428,577,l),
(477,632,o),
(544,666,o),
(623,666,cs),
(744,666,o),
(808,593,o),
(808,487,cs),
(808,470,ls),
(808,360,o),
(739,291,o),
(621,291,cs),
(509,291,o),
(424,360,o),
(394,476,c),
(86,361,l),
(150,119,o),
(358,-35,o),
(620,-35,cs)
);
}
);
width = 1246;
}
);
unicode = 53;
}
{
color = 8;
glyphname = six;
kernLeft = six_left;
kernRight = six_right;
layers = (
{
layerId = "68A78E10-2392-4B34-B44D-B6A5B48D0FD1";
shapes = (
{
closed = 1;
nodes = (
(878,-30,o),
(1077,168,o),
(1077,444,cs),
(1077,464,ls),
(1077,726,o),
(902,922,o),
(661,922,cs),
(571,922,o),
(490,895,o),
(422,845,c),
(417,852,l),
(474,903,o),
(522,952,o),
(579,1023,cs),
(855,1364,l),
(701,1476,l),
(341,996,ls),
(186,790,o),
(123,638,o),
(123,472,cs),
(123,452,ls),
(123,170,o),
(320,-30,o),
(599,-30,cs)
);
},
{
closed = 1;
nodes = (
(426,148,o),
(311,266,o),
(311,439,cs),
(311,469,ls),
(311,643,o),
(427,762,o),
(601,762,cs),
(775,762,o),
(889,644,o),
(889,469,cs),
(889,439,ls),
(889,266,o),
(774,148,o),
(599,148,cs)
);
}
);
width = 1200;
},
{
layerId = "50ED6B91-33B7-40F5-8C2C-B1BEC3C77CF0";
shapes = (
{
closed = 1;
nodes = (
(903,-31,o),
(1117,177,o),
(1117,472,cs),
(1117,482,ls),
(1117,748,o),
(960,939,o),
(714,939,cs),
(640,939,o),
(576,923,o),
(521,894,c),
(517,902,l),
(574,943,o),
(619,984,o),
(668,1041,cs),
(896,1308,l),
(645,1490,l),
(331,1077,ls),
(150,839,o),
(83,673,o),
(83,488,cs),
(83,478,ls),
(83,181,o),
(296,-31,o),
(598,-31,cs)
);
},
{
closed = 1;
nodes = (
(469,259,o),
(393,343,o),
(393,469,cs),
(393,489,ls),
(393,615,o),
(469,699,o),
(600,699,cs),
(732,699,o),
(807,615,o),
(807,489,cs),
(807,469,ls),
(807,343,o),
(731,259,o),
(600,259,cs)
);
}
);
width = 1200;
},
{
layerId = "B7DB719C-51CF-4BC3-BA18-7A6A1AAC666B";
shapes = (
{
closed = 1;
nodes = (
(869,-30,o),
(1064,165,o),
(1064,435,cs),
(1064,458,ls),
(1064,719,o),
(883,916,o),
(643,916,cs),
(548,916,o),
(461,886,o),
(389,829,c),
(384,835,l),
(441,889,o),
(489,941,o),
(549,1017,cs),
(841,1383,l),
(720,1471,l),
(344,969,ls),
(198,774,o),
(136,626,o),
(136,467,cs),
(136,443,ls),
(136,166,o),
(328,-30,o),
(599,-30,cs)
);
},
{
closed = 1;
nodes = (
(411,110,o),
(284,239,o),
(284,429,cs),
(284,462,ls),
(284,652,o),
(413,782,o),
(601,782,cs),
(789,782,o),
(916,653,o),
(916,462,cs),
(916,429,ls),
(916,239,o),
(788,110,o),
(599,110,cs)
);
}
);
width = 1200;
},
{
layerId = "D010C1AA-6BDD-4F06-9849-880CC2F29E88";
shapes = (
{
closed = 1;
nodes = (
(911,-32,o),
(1130,180,o),
(1130,481,cs),
(1130,488,ls),
(1130,755,o),
(979,944,o),
(731,944,cs),
(663,944,o),
(605,932,o),
(554,910,c),
(550,918,l),
(607,956,o),
(651,995,o),
(697,1047,cs),
(910,1289,l),
(626,1495,l),
(328,1104,ls),
(138,855,o),
(70,684,o),
(70,493,cs),
(70,487,ls),
(70,184,o),
(288,-32,o),
(598,-32,cs)
);
},
{
closed = 1;
nodes = (
(483,294,o),
(420,368,o),
(420,479,cs),
(420,496,ls),
(420,607,o),
(483,680,o),
(600,680,cs),
(717,680,o),
(780,606,o),
(780,496,cs),
(780,479,ls),
(780,368,o),
(717,294,o),
(600,294,cs)
);
}
);
width = 1200;
},
{
layerId = "88819DE9-98C6-4AB7-BD8B-9DF84621D738";
shapes = (
{
closed = 1;
nodes = (
(859,-30,o),
(1054,165,o),
(1054,435,cs),
(1054,458,ls),
(1054,719,o),
(873,916,o),
(633,916,cs),
(538,916,o),
(451,886,o),
(379,829,c),
(374,835,l),
(431,889,o),
(479,941,o),
(539,1017,cs),
(831,1383,l),
(710,1471,l),
(334,969,ls),
(188,774,o),
(126,626,o),
(126,467,cs),
(126,443,ls),
(126,166,o),
(318,-30,o),
(589,-30,cs)
);
},
{
closed = 1;
nodes = (
(401,110,o),
(274,239,o),
(274,429,cs),
(274,462,ls),
(274,652,o),
(403,782,o),
(591,782,cs),
(779,782,o),
(906,653,o),
(906,462,cs),
(906,429,ls),
(906,239,o),
(778,110,o),
(589,110,cs)
);
}
);
width = 1160;
},
{
layerId = "ED70A957-8AC1-4977-BF37-207E470C4E2E";
shapes = (
{
closed = 1;
nodes = (
(853,-30,o),
(1052,168,o),
(1052,444,cs),
(1052,464,ls),
(1052,726,o),
(877,922,o),
(636,922,cs),
(546,922,o),
(465,895,o),
(397,845,c),
(392,852,l),
(449,903,o),
(497,952,o),
(554,1023,cs),
(830,1364,l),
(676,1476,l),
(316,996,ls),
(161,790,o),
(98,638,o),
(98,472,cs),
(98,452,ls),
(98,170,o),
(295,-30,o),
(574,-30,cs)
);
},
{
closed = 1;
nodes = (
(401,148,o),
(286,266,o),
(286,439,cs),
(286,469,ls),
(286,643,o),
(402,762,o),
(576,762,cs),
(750,762,o),
(864,644,o),
(864,469,cs),
(864,439,ls),
(864,266,o),
(749,148,o),
(574,148,cs)
);
}
);
width = 1130;
},
{
layerId = "1DFF5E08-190B-46A4-A527-B6F0A79A5803";
shapes = (
{
closed = 1;
nodes = (
(894,-31,o),
(1108,177,o),
(1108,472,cs),
(1108,482,ls),
(1108,748,o),
(951,939,o),
(705,939,cs),
(631,939,o),
(567,923,o),
(512,894,c),
(508,902,l),
(565,943,o),
(610,984,o),
(659,1041,cs),
(887,1308,l),
(636,1490,l),
(322,1077,ls),
(141,839,o),
(74,673,o),
(74,488,cs),
(74,478,ls),
(74,181,o),
(287,-31,o),
(589,-31,cs)
);
},
{
closed = 1;
nodes = (
(460,259,o),
(384,343,o),
(384,469,cs),
(384,489,ls),
(384,615,o),
(460,699,o),
(591,699,cs),
(723,699,o),
(798,615,o),
(798,489,cs),
(798,469,ls),
(798,343,o),
(722,259,o),
(591,259,cs)
);
}
);
width = 1162;
},
{
layerId = "F632DC93-BEFD-4CC9-8CF6-AC4643A09268";
shapes = (
{
closed = 1;
nodes = (
(907,-32,o),
(1126,180,o),
(1126,481,cs),
(1126,488,ls),
(1126,755,o),
(975,944,o),
(727,944,cs),
(659,944,o),
(601,932,o),
(550,910,c),
(546,918,l),
(603,956,o),
(647,995,o),
(693,1047,cs),
(906,1289,l),
(622,1495,l),
(324,1104,ls),
(134,855,o),
(66,684,o),
(66,493,cs),
(66,487,ls),
(66,184,o),
(284,-32,o),
(594,-32,cs)
);
},
{
closed = 1;
nodes = (
(479,294,o),
(416,368,o),
(416,479,cs),
(416,496,ls),
(416,607,o),
(479,680,o),
(596,680,cs),
(713,680,o),
(776,606,o),
(776,496,cs),
(776,479,ls),
(776,368,o),
(713,294,o),
(596,294,cs)
);
}
);
width = 1172;
}
);
unicode = 54;
}
{
color = 8;
glyphname = seven;
kernLeft = seven_left;
kernRight = seven_right;
layers = (
{
layerId = "68A78E10-2392-4B34-B44D-B6A5B48D0FD1";
shapes = (
{
closed = 1;
nodes = (
(1064,1273,l),
(1064,1432,l),
(136,1432,l),
(136,1252,l),
(845,1252,l),
(845,1247,l),
(254,48,l),
(426,-32,l)
);
}
);
width = 1200;
},
{
layerId = "50ED6B91-33B7-40F5-8C2C-B1BEC3C77CF0";
shapes = (
{
closed = 1;
nodes = (
(1094,1190,l),
(1094,1432,l),
(106,1432,l),
(106,1143,l),
(732,1143,l),
(732,1135,l),
(218,96,l),
(497,-34,l)
);
}
);
width = 1200;
},
{
layerId = "B7DB719C-51CF-4BC3-BA18-7A6A1AAC666B";
shapes = (
{
closed = 1;
nodes = (
(1054,1301,l),
(1054,1432,l),
(146,1432,l),
(146,1288,l),
(883,1288,l),
(883,1284,l),
(266,32,l),
(402,-31,l)
);
}
);
width = 1200;
},
{
layerId = "D010C1AA-6BDD-4F06-9849-880CC2F29E88";
shapes = (
{
closed = 1;
nodes = (
(1104,1162,l),
(1104,1432,l),
(96,1432,l),
(96,1106,l),
(694,1106,l),
(694,1097,l),
(206,112,l),
(521,-35,l)
);
}
);
width = 1200;
},
{
layerId = "88819DE9-98C6-4AB7-BD8B-9DF84621D738";
shapes = (
{
closed = 1;
nodes = (
(974,1301,l),
(974,1432,l),
(66,1432,l),
(66,1288,l),
(803,1288,l),
(803,1284,l),
(186,32,l),
(322,-31,l)
);
}
);
width = 1020;
},
{
layerId = "ED70A957-8AC1-4977-BF37-207E470C4E2E";
shapes = (
{
closed = 1;
nodes = (
(988,1273,l),
(988,1432,l),
(60,1432,l),
(60,1252,l),
(769,1252,l),
(769,1247,l),
(178,48,l),
(350,-32,l)
);
}
);
width = 1028;
},
{
layerId = "1DFF5E08-190B-46A4-A527-B6F0A79A5803";
shapes = (
{
closed = 1;
nodes = (
(1030,1190,l),
(1030,1432,l),
(42,1432,l),
(42,1143,l),
(668,1143,l),
(668,1135,l),
(154,96,l),
(433,-34,l)
);
}
);
width = 1052;
},
{
layerId = "F632DC93-BEFD-4CC9-8CF6-AC4643A09268";
shapes = (
{
closed = 1;
nodes = (
(1044,1162,l),
(1044,1432,l),
(36,1432,l),
(36,1106,l),
(634,1106,l),
(634,1097,l),
(146,112,l),
(461,-35,l)
);
}
);
width = 1060;
}
);
unicode = 55;
}
{
color = 8;
glyphname = eight;
kernLeft = eight_left;
kernRight = eight_right;
layers = (
{
layerId = "68A78E10-2392-4B34-B44D-B6A5B48D0FD1";
shapes = (
{
closed = 1;
nodes = (
(867,-32,o),
(1065,142,o),
(1065,379,cs),
(1065,393,ls),
(1065,555,o),
(968,701,o),
(817,760,c),
(817,765,l),
(941,826,o),
(1016,943,o),
(1016,1078,cs),
(1016,1088,ls),
(1016,1307,o),
(842,1464,o),
(600,1464,cs),
(358,1464,o),
(184,1307,o),
(184,1088,cs),
(184,1078,ls),
(184,944,o),
(259,826,o),
(383,765,c),
(383,760,l),
(232,701,o),
(135,555,o),
(135,393,cs),
(135,379,ls),
(135,142,o),
(333,-32,o),
(600,-32,cs)
);
},
{
closed = 1;
nodes = (
(436,140,o),
(321,246,o),
(321,395,cs),
(321,417,ls),
(321,567,o),
(436,672,o),
(600,672,cs),
(764,672,o),
(879,567,o),
(879,417,cs),
(879,395,ls),
(879,246,o),
(764,140,o),
(600,140,cs)
);
},
{
closed = 1;
nodes = (
(461,843,o),
(368,930,o),
(368,1058,cs),
(368,1078,ls),
(368,1206,o),
(461,1292,o),
(600,1292,cs),
(740,1292,o),
(832,1206,o),
(832,1078,cs),
(832,1058,ls),
(832,929,o),
(739,843,o),
(600,843,cs)
);
}
);
width = 1200;
},
{
layerId = "50ED6B91-33B7-40F5-8C2C-B1BEC3C77CF0";
shapes = (
{
closed = 1;
nodes = (
(897,-34,o),
(1105,138,o),
(1105,384,cs),
(1105,390,ls),
(1105,551,o),
(1008,696,o),
(857,757,c),
(857,765,l),
(982,827,o),
(1060,945,o),
(1060,1077,cs),
(1060,1081,ls),
(1060,1310,o),
(874,1466,o),
(600,1466,cs),
(326,1466,o),
(140,1310,o),
(140,1081,cs),
(140,1077,ls),
(140,946,o),
(219,825,o),
(343,765,c),
(343,757,l),
(192,696,o),
(95,553,o),
(95,390,cs),
(95,384,ls),
(95,138,o),
(303,-34,o),
(600,-34,cs)
);
},
{
closed = 1;
nodes = (
(479,237,o),
(400,313,o),
(400,428,cs),
(400,444,ls),
(400,560,o),
(479,635,o),
(600,635,cs),
(722,635,o),
(801,560,o),
(801,444,cs),
(801,428,ls),
(801,313,o),
(722,237,o),
(600,237,cs)
);
},
{
closed = 1;
nodes = (
(501,875,o),
(436,937,o),
(436,1030,cs),
(436,1044,ls),
(436,1138,o),
(501,1200,o),
(600,1200,cs),
(700,1200,o),
(764,1138,o),
(764,1044,cs),
(764,1030,ls),
(764,936,o),
(699,875,o),
(600,875,cs)
);
}
);
width = 1200;
},
{
layerId = "B7DB719C-51CF-4BC3-BA18-7A6A1AAC666B";
shapes = (
{
closed = 1;
nodes = (
(857,-30,o),
(1052,144,o),
(1052,377,cs),
(1052,394,ls),
(1052,556,o),
(955,697,o),
(804,761,c),
(804,765,l),
(927,825,o),
(1001,942,o),
(1001,1078,cs),
(1001,1090,ls),
(1001,1305,o),
(831,1462,o),
(600,1462,cs),
(369,1462,o),
(199,1305,o),
(199,1090,cs),
(199,1078,ls),
(199,943,o),
(272,826,o),
(396,765,c),
(396,761,l),
(245,697,o),
(148,556,o),
(148,394,cs),
(148,377,ls),
(148,144,o),
(343,-30,o),
(600,-30,cs)
);
},
{
closed = 1;
nodes = (
(421,108,o),
(294,223,o),
(294,384,cs),
(294,408,ls),
(294,569,o),
(421,684,o),
(600,684,cs),
(779,684,o),
(906,569,o),
(906,408,cs),
(906,384,ls),
(906,223,o),
(779,108,o),
(600,108,cs)
);
},
{
closed = 1;
nodes = (
(448,832,o),
(345,927,o),
(345,1067,cs),
(345,1089,ls),
(345,1230,o),
(448,1324,o),
(600,1324,cs),
(753,1324,o),
(855,1230,o),
(855,1089,cs),
(855,1067,ls),
(855,927,o),
(752,832,o),
(600,832,cs)
);
}
);
width = 1200;
},
{
layerId = "D010C1AA-6BDD-4F06-9849-880CC2F29E88";
shapes = (
{
closed = 1;
nodes = (
(907,-35,o),
(1118,136,o),
(1118,386,cs),
(1118,389,ls),
(1118,550,o),
(1021,696,o),
(870,756,c),
(870,765,l),
(995,827,o),
(1075,946,o),
(1075,1076,cs),
(1075,1078,ls),
(1075,1311,o),
(885,1467,o),
(600,1467,cs),
(315,1467,o),
(125,1311,o),
(125,1078,cs),
(125,1076,ls),
(125,946,o),
(205,825,o),
(330,765,c),
(330,756,l),
(178,696,o),
(82,552,o),
(82,389,cs),
(82,386,ls),
(82,136,o),
(293,-35,o),
(600,-35,cs)
);
},
{
closed = 1;
nodes = (
(493,269,o),
(426,335,o),
(426,439,cs),
(426,453,ls),
(426,557,o),
(493,623,o),
(600,623,cs),
(707,623,o),
(774,557,o),
(774,453,cs),
(774,439,ls),
(774,335,o),
(707,269,o),
(600,269,cs)
);
},
{
closed = 1;
nodes = (
(514,886,o),
(459,939,o),
(459,1021,cs),
(459,1033,ls),
(459,1115,o),
(514,1169,o),
(600,1169,cs),
(686,1169,o),
(741,1115,o),
(741,1033,cs),
(741,1021,ls),
(741,938,o),
(686,886,o),
(600,886,cs)
);
}
);
width = 1200;
},
{
layerId = "88819DE9-98C6-4AB7-BD8B-9DF84621D738";
shapes = (
{
closed = 1;
nodes = (
(803,-30,o),
(998,144,o),
(998,377,cs),
(998,394,ls),
(998,556,o),
(901,697,o),
(750,761,c),
(750,765,l),
(873,825,o),
(947,942,o),
(947,1078,cs),
(947,1090,ls),
(947,1305,o),
(777,1462,o),
(546,1462,cs),
(315,1462,o),
(145,1305,o),
(145,1090,cs),
(145,1078,ls),
(145,943,o),
(218,826,o),
(342,765,c),
(342,761,l),
(191,697,o),
(94,556,o),
(94,394,cs),
(94,377,ls),
(94,144,o),
(289,-30,o),
(546,-30,cs)
);
},
{
closed = 1;
nodes = (
(367,108,o),
(240,223,o),
(240,384,cs),
(240,408,ls),
(240,569,o),
(367,684,o),
(546,684,cs),
(725,684,o),
(852,569,o),
(852,408,cs),
(852,384,ls),
(852,223,o),
(725,108,o),
(546,108,cs)
);
},
{
closed = 1;
nodes = (
(394,832,o),
(291,927,o),
(291,1067,cs),
(291,1089,ls),
(291,1230,o),
(394,1324,o),
(546,1324,cs),
(699,1324,o),
(801,1230,o),
(801,1089,cs),
(801,1067,ls),
(801,927,o),
(698,832,o),
(546,832,cs)
);
}
);
width = 1092;
},
{
layerId = "ED70A957-8AC1-4977-BF37-207E470C4E2E";
shapes = (
{
closed = 1;
nodes = (
(816,-32,o),
(1014,142,o),
(1014,379,cs),
(1014,393,ls),
(1014,555,o),
(917,701,o),
(766,760,c),
(766,765,l),
(890,826,o),
(965,943,o),
(965,1078,cs),
(965,1088,ls),
(965,1307,o),
(791,1464,o),
(549,1464,cs),
(307,1464,o),
(133,1307,o),
(133,1088,cs),
(133,1078,ls),
(133,944,o),
(208,826,o),
(332,765,c),
(332,760,l),
(181,701,o),
(84,555,o),
(84,393,cs),
(84,379,ls),
(84,142,o),
(282,-32,o),
(549,-32,cs)
);
},
{
closed = 1;
nodes = (
(385,140,o),
(270,246,o),
(270,395,cs),
(270,417,ls),
(270,567,o),
(385,672,o),
(549,672,cs),
(713,672,o),
(828,567,o),
(828,417,cs),
(828,395,ls),
(828,246,o),
(713,140,o),
(549,140,cs)
);
},
{
closed = 1;
nodes = (
(410,843,o),
(317,930,o),
(317,1058,cs),
(317,1078,ls),
(317,1206,o),
(410,1292,o),
(549,1292,cs),
(689,1292,o),
(781,1206,o),
(781,1078,cs),
(781,1058,ls),
(781,929,o),
(688,843,o),
(549,843,cs)
);
}
);
width = 1098;
},
{
layerId = "1DFF5E08-190B-46A4-A527-B6F0A79A5803";
shapes = (
{
closed = 1;
nodes = (
(856,-34,o),
(1064,138,o),
(1064,384,cs),
(1064,390,ls),
(1064,551,o),
(967,696,o),
(816,757,c),
(816,765,l),
(941,827,o),
(1019,945,o),
(1019,1077,cs),
(1019,1081,ls),
(1019,1310,o),
(833,1466,o),
(559,1466,cs),
(285,1466,o),
(99,1310,o),
(99,1081,cs),
(99,1077,ls),
(99,946,o),
(178,825,o),
(302,765,c),
(302,757,l),
(151,696,o),
(54,553,o),
(54,390,cs),
(54,384,ls),
(54,138,o),
(262,-34,o),
(559,-34,cs)
);
},
{
closed = 1;
nodes = (
(438,237,o),
(359,313,o),
(359,428,cs),
(359,444,ls),
(359,560,o),
(438,635,o),
(559,635,cs),
(681,635,o),
(760,560,o),
(760,444,cs),
(760,428,ls),
(760,313,o),
(681,237,o),
(559,237,cs)
);
},
{
closed = 1;
nodes = (
(460,875,o),
(395,937,o),
(395,1030,cs),
(395,1044,ls),
(395,1138,o),
(460,1200,o),
(559,1200,cs),
(659,1200,o),
(723,1138,o),
(723,1044,cs),
(723,1030,ls),
(723,936,o),
(658,875,o),
(559,875,cs)
);
}
);
width = 1118;
},
{
layerId = "F632DC93-BEFD-4CC9-8CF6-AC4643A09268";
shapes = (
{
closed = 1;
nodes = (
(869,-35,o),
(1080,136,o),
(1080,386,cs),
(1080,389,ls),
(1080,550,o),
(983,696,o),
(832,756,c),
(832,765,l),
(957,827,o),
(1037,946,o),
(1037,1076,cs),
(1037,1078,ls),
(1037,1311,o),
(847,1467,o),
(562,1467,cs),
(277,1467,o),
(87,1311,o),
(87,1078,cs),
(87,1076,ls),
(87,946,o),
(167,825,o),
(292,765,c),
(292,756,l),
(140,696,o),
(44,552,o),
(44,389,cs),
(44,386,ls),
(44,136,o),
(255,-35,o),
(562,-35,cs)
);
},
{
closed = 1;
nodes = (
(455,269,o),
(388,335,o),
(388,439,cs),
(388,453,ls),
(388,557,o),
(455,623,o),
(562,623,cs),
(669,623,o),
(736,557,o),
(736,453,cs),
(736,439,ls),
(736,335,o),
(669,269,o),
(562,269,cs)
);
},
{
closed = 1;
nodes = (
(476,886,o),
(421,939,o),
(421,1021,cs),
(421,1033,ls),
(421,1115,o),
(476,1169,o),
(562,1169,cs),
(648,1169,o),
(703,1115,o),
(703,1033,cs),
(703,1021,ls),
(703,938,o),
(648,886,o),
(562,886,cs)
);
}
);
width = 1124;
}
);
unicode = 56;
}
{
glyphname = colon;
kernLeft = colon_left;
kernRight = colon_right;
layers = (
{
layerId = "68A78E10-2392-4B34-B44D-B6A5B48D0FD1";
shapes = (
{
closed = 1;
nodes = (
(693,752,o),
(764,823,o),
(764,916,cs),
(764,1006,o),
(693,1078,o),
(599,1078,cs),
(509,1078,o),
(436,1006,o),
(436,916,cs),
(436,823,o),
(508,752,o),
(599,752,cs)
);
},
{
closed = 1;
nodes = (
(693,-30,o),
(764,41,o),
(764,134,cs),
(764,224,o),
(693,296,o),
(599,296,cs),
(509,296,o),
(436,224,o),
(436,134,cs),
(436,41,o),
(508,-30,o),
(599,-30,cs)
);
}
);
width = 1200;
},
{
layerId = "50ED6B91-33B7-40F5-8C2C-B1BEC3C77CF0";
shapes = (
{
closed = 1;
nodes = (
(717,678,o),
(806,767,o),
(806,882,cs),
(806,996,o),
(717,1086,o),
(600,1086,cs),
(485,1086,o),
(394,996,o),
(394,882,cs),
(394,767,o),
(486,678,o),
(600,678,cs)
);
},
{
closed = 1;
nodes = (
(717,-30,o),
(806,59,o),
(806,175,cs),
(806,288,o),
(717,379,o),
(600,379,cs),
(485,379,o),
(394,288,o),
(394,175,cs),
(394,59,o),
(486,-30,o),
(600,-30,cs)
);
}
);
width = 1200;
},
{
layerId = "B7DB719C-51CF-4BC3-BA18-7A6A1AAC666B";
shapes = (
{
closed = 1;
nodes = (
(685,777,o),
(750,842,o),
(750,927,cs),
(750,1009,o),
(685,1075,o),
(599,1075,cs),
(517,1075,o),
(450,1009,o),
(450,927,cs),
(450,842,o),
(515,777,o),
(599,777,cs)
);
},
{
closed = 1;
nodes = (
(685,-30,o),
(750,35,o),
(750,120,cs),
(750,202,o),
(685,268,o),
(599,268,cs),
(517,268,o),
(450,202,o),
(450,120,cs),
(450,35,o),
(515,-30,o),
(599,-30,cs)
);
}
);
width = 1200;
},
{
layerId = "D010C1AA-6BDD-4F06-9849-880CC2F29E88";
shapes = (
{
closed = 1;
nodes = (
(725,653,o),
(820,748,o),
(820,871,cs),
(820,992,o),
(725,1089,o),
(600,1089,cs),
(477,1089,o),
(380,992,o),
(380,871,cs),
(380,748,o),
(478,653,o),
(600,653,cs)
);
},
{
closed = 1;
nodes = (
(725,-30,o),
(820,65,o),
(820,188,cs),
(820,309,o),
(725,406,o),
(600,406,cs),
(477,406,o),
(380,309,o),
(380,188,cs),
(380,65,o),
(478,-30,o),
(600,-30,cs)
);
}
);
width = 1200;
},
{
layerId = "88819DE9-98C6-4AB7-BD8B-9DF84621D738";
shapes = (
{
closed = 1;
nodes = (
(361,777,o),
(426,842,o),
(426,927,cs),
(426,1009,o),
(361,1075,o),
(275,1075,cs),
(193,1075,o),
(126,1009,o),
(126,927,cs),
(126,842,o),
(191,777,o),
(275,777,cs)
);
},
{
closed = 1;
nodes = (
(361,-30,o),
(426,35,o),
(426,120,cs),
(426,202,o),
(361,268,o),
(275,268,cs),
(193,268,o),
(126,202,o),
(126,120,cs),
(126,35,o),
(191,-30,o),
(275,-30,cs)
);
}
);
width = 552;
},
{
layerId = "ED70A957-8AC1-4977-BF37-207E470C4E2E";
shapes = (
{
closed = 1;
nodes = (
(377,753,o),
(448,824,o),
(448,917,cs),
(448,1007,o),
(377,1079,o),
(283,1079,cs),
(193,1079,o),
(120,1007,o),
(120,917,cs),
(120,824,o),
(192,753,o),
(283,753,cs)
);
},
{
closed = 1;
nodes = (
(377,-30,o),
(448,41,o),
(448,134,cs),
(448,224,o),
(377,296,o),
(283,296,cs),
(193,296,o),
(120,224,o),
(120,134,cs),
(120,41,o),
(192,-30,o),
(283,-30,cs)
);
}
);
width = 568;
},
{
layerId = "1DFF5E08-190B-46A4-A527-B6F0A79A5803";
shapes = (
{
closed = 1;
nodes = (
(425,678,o),
(514,767,o),
(514,882,cs),
(514,996,o),
(425,1086,o),
(308,1086,cs),
(193,1086,o),
(102,996,o),
(102,882,cs),
(102,767,o),
(194,678,o),
(308,678,cs)
);
},
{
closed = 1;
nodes = (
(425,-30,o),
(514,59,o),
(514,175,cs),
(514,288,o),
(425,379,o),
(308,379,cs),
(193,379,o),
(102,288,o),
(102,175,cs),
(102,59,o),
(194,-30,o),
(308,-30,cs)
);
}
);
width = 616;
},
{
layerId = "F632DC93-BEFD-4CC9-8CF6-AC4643A09268";
shapes = (
{
closed = 1;
nodes = (
(441,653,o),
(536,748,o),
(536,871,cs),
(536,992,o),
(441,1089,o),
(316,1089,cs),
(193,1089,o),
(96,992,o),
(96,871,cs),
(96,748,o),
(194,653,o),
(316,653,cs)
);
},
{
closed = 1;
nodes = (
(441,-30,o),
(536,65,o),
(536,188,cs),
(536,309,o),
(441,406,o),
(316,406,cs),
(193,406,o),
(96,309,o),
(96,188,cs),
(96,65,o),
(194,-30,o),
(316,-30,cs)
);
}
);
width = 632;
}
);
unicode = 58;
}
{
glyphname = semicolon;
kernLeft = colon_left;
kernRight = colon_right;
layers = (
{
layerId = "68A78E10-2392-4B34-B44D-B6A5B48D0FD1";
shapes = (
{
closed = 1;
nodes = (
(706,753,o),
(777,824,o),
(777,917,cs),
(777,1007,o),
(706,1079,o),
(612,1079,cs),
(521,1079,o),
(448,1007,o),
(448,917,cs),
(448,824,o),
(520,753,o),
(612,753,cs)
);
},
{
closed = 1;
nodes = (
(699,-63,ls),
(748,5,o),
(776,67,o),
(776,131,cs),
(776,240,o),
(706,303,o),
(610,303,cs),
(517,303,o),
(451,233,o),
(451,147,cs),
(451,53,o),
(525,-6,o),
(615,-6,c),
(616,49,l),
(378,-271,l),
(494,-349,l)
);
}
);
width = 1200;
},
{
layerId = "50ED6B91-33B7-40F5-8C2C-B1BEC3C77CF0";
shapes = (
{
closed = 1;
nodes = (
(724,676,o),
(813,766,o),
(813,882,cs),
(813,996,o),
(724,1087,o),
(607,1087,cs),
(492,1087,o),
(401,996,o),
(401,882,cs),
(401,766,o),
(492,676,o),
(607,676,cs)
);
},
{
closed = 1;
nodes = (
(710,-78,ls),
(780,18,o),
(812,87,o),
(812,174,cs),
(812,292,o),
(737,386,o),
(605,386,cs),
(484,386,o),
(405,300,o),
(405,190,cs),
(405,69,o),
(509,3,o),
(597,10,c),
(603,103,l),
(325,-255,l),
(493,-375,l)
);
}
);
width = 1200;
},
{
layerId = "B7DB719C-51CF-4BC3-BA18-7A6A1AAC666B";
shapes = (
{
closed = 1;
nodes = (
(700,778,o),
(765,843,o),
(765,928,cs),
(765,1010,o),
(700,1076,o),
(614,1076,cs),
(532,1076,o),
(465,1010,o),
(465,928,cs),
(465,843,o),
(530,778,o),
(614,778,cs)
);
},
{
closed = 1;
nodes = (
(695,-58,ls),
(736,0,o),
(764,60,o),
(764,117,cs),
(764,223,o),
(696,275,o),
(612,275,cs),
(528,275,o),
(466,211,o),
(466,133,cs),
(466,48,o),
(530,-9,o),
(621,-11,c),
(620,31,l),
(396,-276,l),
(494,-340,l)
);
}
);
width = 1200;
},
{
layerId = "D010C1AA-6BDD-4F06-9849-880CC2F29E88";
shapes = (
{
closed = 1;
nodes = (
(730,647,o),
(825,742,o),
(825,865,cs),
(825,986,o),
(730,1083,o),
(605,1083,cs),
(482,1083,o),
(385,986,o),
(385,865,cs),
(385,742,o),
(483,647,o),
(605,647,cs)
);
},
{
closed = 1;
nodes = (
(714,-83,ls),
(792,23,o),
(824,94,o),
(824,188,cs),
(824,309,o),
(747,414,o),
(603,414,cs),
(473,414,o),
(390,322,o),
(390,204,cs),
(390,74,o),
(504,6,o),
(591,15,c),
(599,121,l),
(307,-250,l),
(493,-384,l)
);
}
);
width = 1200;
}
);
metricLeft = comma;
unicode = 59;
}
{
glyphname = less;
kernLeft = less_left;
kernRight = less_right;
layers = (
{
layerId = "68A78E10-2392-4B34-B44D-B6A5B48D0FD1";
shapes = (
{
closed = 1;
nodes = (
(1030,259,l),
(348,622,l),
(348,630,l),
(1030,992,l),
(1030,1188,l),
(150,710,l),
(150,542,l),
(1030,63,l)
);
}
);
width = 1200;
},
{
layerId = "50ED6B91-33B7-40F5-8C2C-B1BEC3C77CF0";
shapes = (
{
closed = 1;
nodes = (
(1060,335,l),
(442,640,l),
(442,652,l),
(1060,957,l),
(1060,1255,l),
(100,762,l),
(100,530,l),
(1060,37,l)
);
}
);
width = 1200;
},
{
layerId = "B7DB719C-51CF-4BC3-BA18-7A6A1AAC666B";
shapes = (
{
closed = 1;
nodes = (
(1030,247,l),
(316,622,l),
(316,630,l),
(1030,1006,l),
(1030,1173,l),
(150,700,l),
(150,553,l),
(1030,80,l)
);
}
);
width = 1200;
},
{
layerId = "D010C1AA-6BDD-4F06-9849-880CC2F29E88";
shapes = (
{
closed = 1;
nodes = (
(1080,357,l),
(484,641,l),
(484,649,l),
(1080,933,l),
(1080,1281,l),
(90,771,l),
(90,518,l),
(1080,9,l)
);
}
);
width = 1200;
},
{
associatedMasterId = "50ED6B91-33B7-40F5-8C2C-B1BEC3C77CF0";
layerId = "04138ADE-3DD8-4D79-A5A9-B153FB8D1054";
name = "21 Oct 24, 17:36";
shapes = (
{
closed = 1;
nodes = (
(1100,348,l),
(454,654,l),
(454,662,l),
(1100,968,l),
(1100,1266,l),
(100,774,l),
(100,542,l),
(1100,50,l)
);
}
);
width = 1200;
},
{
associatedMasterId = "D010C1AA-6BDD-4F06-9849-880CC2F29E88";
layerId = "1A76E770-7629-4C5A-BFAC-45025C49FF84";
name = "21 Oct 24, 17:39";
shapes = (
{
closed = 1;
nodes = (
(1110,369,l),
(491,658,l),
(491,666,l),
(1110,954,l),
(1110,1285,l),
(90,788,l),
(90,535,l),
(1110,38,l)
);
}
);
width = 1200;
},
{
layerId = "88819DE9-98C6-4AB7-BD8B-9DF84621D738";
shapes = (
{
closed = 1;
nodes = (
(980,247,l),
(266,622,l),
(266,630,l),
(980,1006,l),
(980,1173,l),
(100,700,l),
(100,553,l),
(980,80,l)
);
}
);
width = 1090;
},
{
layerId = "ED70A957-8AC1-4977-BF37-207E470C4E2E";
shapes = (
{
closed = 1;
nodes = (
(972,259,l),
(290,622,l),
(290,630,l),
(972,992,l),
(972,1188,l),
(92,710,l),
(92,542,l),
(972,63,l)
);
}
);
width = 1078;
},
{
layerId = "1DFF5E08-190B-46A4-A527-B6F0A79A5803";
shapes = (
{
closed = 1;
nodes = (
(1028,335,l),
(410,640,l),
(410,652,l),
(1028,957,l),
(1028,1255,l),
(68,762,l),
(68,530,l),
(1028,37,l)
);
}
);
width = 1122;
},
{
associatedMasterId = "1DFF5E08-190B-46A4-A527-B6F0A79A5803";
layerId = "893CBA71-FFD7-4C22-BC01-3D1C38DD5CFF";
name = "21 Oct 24, 17:36";
shapes = (
{
closed = 1;
nodes = (
(1100,348,l),
(454,654,l),
(454,662,l),
(1100,968,l),
(1100,1266,l),
(100,774,l),
(100,542,l),
(1100,50,l)
);
}
);
width = 1200;
},
{
layerId = "F632DC93-BEFD-4CC9-8CF6-AC4643A09268";
shapes = (
{
closed = 1;
nodes = (
(1050,357,l),
(454,641,l),
(454,649,l),
(1050,933,l),
(1050,1281,l),
(60,771,l),
(60,518,l),
(1050,9,l)
);
}
);
width = 1140;
},
{
associatedMasterId = "F632DC93-BEFD-4CC9-8CF6-AC4643A09268";
layerId = "ACC65E13-588B-42D6-AF4F-601B5DBEE56C";
name = "21 Oct 24, 17:39";
shapes = (
{
closed = 1;
nodes = (
(1110,369,l),
(491,658,l),
(491,666,l),
(1110,954,l),
(1110,1285,l),
(90,788,l),
(90,535,l),
(1110,38,l)
);
}
);
width = 1200;
}
);
unicode = 60;
}
{
glyphname = equal;
kernLeft = equal_left;
kernRight = equal_right;
layers = (
{
layerId = "68A78E10-2392-4B34-B44D-B6A5B48D0FD1";
shapes = (
{
closed = 1;
nodes = (
(1070,763,l),
(1070,935,l),
(130,935,l),
(130,763,l)
);
},
{
closed = 1;
nodes = (
(1070,317,l),
(1070,489,l),
(130,489,l),
(130,317,l)
);
}
);
width = 1200;
},
{
layerId = "50ED6B91-33B7-40F5-8C2C-B1BEC3C77CF0";
shapes = (
{
closed = 1;
nodes = (
(1090,761,l),
(1090,1027,l),
(110,1027,l),
(110,761,l)
);
},
{
closed = 1;
nodes = (
(1090,265,l),
(1090,531,l),
(110,531,l),
(110,265,l)
);
}
);
width = 1200;
},
{
layerId = "B7DB719C-51CF-4BC3-BA18-7A6A1AAC666B";
shapes = (
{
closed = 1;
nodes = (
(1064,769,l),
(1064,911,l),
(136,911,l),
(136,769,l)
);
},
{
closed = 1;
nodes = (
(1064,341,l),
(1064,483,l),
(136,483,l),
(136,341,l)
);
}
);
width = 1200;
},
{
layerId = "D010C1AA-6BDD-4F06-9849-880CC2F29E88";
shapes = (
{
closed = 1;
nodes = (
(1096,738,l),
(1096,1046,l),
(104,1046,l),
(104,738,l)
);
},
{
closed = 1;
nodes = (
(1096,244,l),
(1096,552,l),
(104,552,l),
(104,244,l)
);
}
);
width = 1200;
},
{
layerId = "88819DE9-98C6-4AB7-BD8B-9DF84621D738";
shapes = (
{
closed = 1;
nodes = (
(1074,769,l),
(1074,911,l),
(146,911,l),
(146,769,l)
);
},
{
closed = 1;
nodes = (
(1074,341,l),
(1074,483,l),
(146,483,l),
(146,341,l)
);
}
);
width = 1220;
},
{
layerId = "ED70A957-8AC1-4977-BF37-207E470C4E2E";
shapes = (
{
closed = 1;
nodes = (
(1080,763,l),
(1080,935,l),
(140,935,l),
(140,763,l)
);
},
{
closed = 1;
nodes = (
(1080,317,l),
(1080,489,l),
(140,489,l),
(140,317,l)
);
}
);
width = 1220;
},
{
layerId = "1DFF5E08-190B-46A4-A527-B6F0A79A5803";
shapes = (
{
closed = 1;
nodes = (
(1102,761,l),
(1102,1027,l),
(122,1027,l),
(122,761,l)
);
},
{
closed = 1;
nodes = (
(1102,265,l),
(1102,531,l),
(122,531,l),
(122,265,l)
);
}
);
width = 1224;
},
{
layerId = "F632DC93-BEFD-4CC9-8CF6-AC4643A09268";
shapes = (
{
closed = 1;
nodes = (
(1108,738,l),
(1108,1046,l),
(116,1046,l),
(116,738,l)
);
},
{
closed = 1;
nodes = (
(1108,244,l),
(1108,552,l),
(116,552,l),
(116,244,l)
);
}
);
width = 1224;
}
);
unicode = 61;
}
{
glyphname = greater;
kernLeft = greater_left;
kernRight = greater_right;
layers = (
{
layerId = "68A78E10-2392-4B34-B44D-B6A5B48D0FD1";
shapes = (
{
closed = 1;
nodes = (
(1050,542,l),
(1050,710,l),
(170,1188,l),
(170,992,l),
(852,630,l),
(852,622,l),
(170,259,l),
(170,63,l)
);
}
);
width = 1200;
},
{
background = {
shapes = (
{
alignment = 1;
pos = (1200,0);
ref = less;
scale = (-1,1);
}
);
};
layerId = "50ED6B91-33B7-40F5-8C2C-B1BEC3C77CF0";
shapes = (
{
closed = 1;
nodes = (
(1100,530,l),
(1100,762,l),
(140,1255,l),
(140,957,l),
(758,652,l),
(758,640,l),
(140,335,l),
(140,37,l)
);
}
);
width = 1200;
},
{
background = {
shapes = (
{
alignment = 1;
pos = (1200,0);
ref = less;
scale = (-1,1);
}
);
};
layerId = "B7DB719C-51CF-4BC3-BA18-7A6A1AAC666B";
shapes = (
{
closed = 1;
nodes = (
(1050,553,l),
(1050,700,l),
(170,1173,l),
(170,1006,l),
(884,630,l),
(884,622,l),
(170,247,l),
(170,80,l)
);
}
);
width = 1200;
},
{
layerId = "D010C1AA-6BDD-4F06-9849-880CC2F29E88";
shapes = (
{
closed = 1;
nodes = (
(1110,518,l),
(1110,771,l),
(120,1281,l),
(120,933,l),
(716,649,l),
(716,641,l),
(120,357,l),
(120,9,l)
);
}
);
width = 1200;
},
{
background = {
shapes = (
{
alignment = 1;
pos = (1146,0);
ref = less;
scale = (-1,1);
}
);
};
layerId = "88819DE9-98C6-4AB7-BD8B-9DF84621D738";
shapes = (
{
closed = 1;
nodes = (
(996,553,l),
(996,700,l),
(116,1173,l),
(116,1006,l),
(830,630,l),
(830,622,l),
(116,247,l),
(116,80,l)
);
}
);
width = 1102;
},
{
layerId = "ED70A957-8AC1-4977-BF37-207E470C4E2E";
shapes = (
{
closed = 1;
nodes = (
(992,542,l),
(992,710,l),
(112,1188,l),
(112,992,l),
(794,630,l),
(794,622,l),
(112,259,l),
(112,63,l)
);
}
);
width = 1090;
},
{
background = {
shapes = (
{
alignment = 1;
pos = (1160,0);
ref = less;
scale = (-1,1);
}
);
};
layerId = "1DFF5E08-190B-46A4-A527-B6F0A79A5803";
shapes = (
{
closed = 1;
nodes = (
(1060,530,l),
(1060,762,l),
(100,1255,l),
(100,957,l),
(718,652,l),
(718,640,l),
(100,335,l),
(100,37,l)
);
}
);
width = 1134;
},
{
layerId = "F632DC93-BEFD-4CC9-8CF6-AC4643A09268";
shapes = (
{
closed = 1;
nodes = (
(1086,518,l),
(1086,771,l),
(96,1281,l),
(96,933,l),
(692,649,l),
(692,641,l),
(96,357,l),
(96,9,l)
);
}
);
width = 1152;
}
);
unicode = 62;
}
{
glyphname = question;
kernLeft = question_left;
kernRight = question_right;
layers = (
{
background = {
shapes = (
{
closed = 1;
nodes = (
(668,475,l),
(668,515,ls),
(668,588,o),
(701,646,o),
(788,727,cs),
(870,803,ls),
(973,899,o),
(1012,978,o),
(1012,1090,cs),
(1012,1094,ls),
(1012,1315,o),
(854,1464,o),
(620,1464,cs),
(389,1464,o),
(204,1328,o),
(134,1107,c),
(304,1048,l),
(354,1201,o),
(468,1288,o),
(618,1288,cs),
(745,1288,o),
(824,1216,o),
(824,1100,cs),
(824,1086,ls),
(824,1019,o),
(794,968,o),
(710,890,cs),
(628,814,ls),
(520,714,o),
(482,641,o),
(482,535,cs),
(482,475,l)
);
}
);
};
layerId = "68A78E10-2392-4B34-B44D-B6A5B48D0FD1";
shapes = (
{
closed = 1;
nodes = (
(673,468,l),
(673,640,l),
(818,728,ls),
(989,832,o),
(1057,940,o),
(1057,1093,cs),
(1057,1096,ls),
(1057,1310,o),
(898,1463,o),
(644,1463,cs),
(395,1463,o),
(205,1332,o),
(129,1107,c),
(307,1045,l),
(360,1202,o),
(478,1288,o),
(642,1288,cs),
(784,1288,o),
(869,1219,o),
(869,1103,cs),
(869,1089,ls),
(869,1001,o),
(814,925,o),
(697,853,cs),
(486,724,l),
(486,468,l)
);
},
{
closed = 1;
nodes = (
(672,-31,o),
(744,40,o),
(744,132,cs),
(744,223,o),
(673,293,o),
(580,293,cs),
(487,293,o),
(415,224,o),
(415,132,cs),
(415,40,o),
(487,-31,o),
(580,-31,cs)
);
}
);
width = 1200;
},
{
layerId = "50ED6B91-33B7-40F5-8C2C-B1BEC3C77CF0";
shapes = (
{
closed = 1;
nodes = (
(734,467,l),
(734,614,l),
(864,690,ls),
(1026,785,o),
(1097,900,o),
(1097,1056,cs),
(1097,1058,ls),
(1097,1299,o),
(911,1466,o),
(633,1466,cs),
(373,1466,o),
(169,1325,o),
(89,1088,c),
(378,994,l),
(418,1110,o),
(511,1178,o),
(629,1178,cs),
(726,1178,o),
(787,1130,o),
(787,1051,cs),
(787,1039,ls),
(787,966,o),
(741,912,o),
(619,844,cs),
(423,734,l),
(423,467,l)
);
},
{
closed = 1;
nodes = (
(688,-34,o),
(777,57,o),
(777,167,cs),
(777,276,o),
(690,361,o),
(579,361,cs),
(468,361,o),
(379,276,o),
(379,167,cs),
(379,57,o),
(468,-34,o),
(579,-34,cs)
);
}
);
width = 1200;
},
{
layerId = "B7DB719C-51CF-4BC3-BA18-7A6A1AAC666B";
shapes = (
{
closed = 1;
nodes = (
(653,468,l),
(653,648,l),
(802,741,ls),
(975,849,o),
(1044,953,o),
(1044,1105,cs),
(1044,1109,ls),
(1044,1314,o),
(894,1462,o),
(647,1462,cs),
(402,1462,o),
(217,1334,o),
(142,1113,c),
(283,1062,l),
(341,1233,o),
(467,1324,o),
(646,1324,cs),
(803,1324,o),
(896,1248,o),
(896,1120,cs),
(896,1105,ls),
(896,1012,o),
(838,929,o),
(723,856,cs),
(507,720,l),
(507,468,l)
);
},
{
closed = 1;
nodes = (
(667,-30,o),
(733,34,o),
(733,120,cs),
(733,205,o),
(667,270,o),
(580,270,cs),
(493,270,o),
(427,206,o),
(427,120,cs),
(427,34,o),
(493,-30,o),
(580,-30,cs)
);
}
);
width = 1200;
},
{
layerId = "D010C1AA-6BDD-4F06-9849-880CC2F29E88";
shapes = (
{
closed = 1;
nodes = (
(754,467,l),
(754,605,l),
(879,677,ls),
(1039,769,o),
(1110,887,o),
(1110,1043,cs),
(1110,1045,ls),
(1110,1295,o),
(915,1467,o),
(629,1467,cs),
(366,1467,o),
(157,1322,o),
(76,1082,c),
(402,977,l),
(437,1079,o),
(522,1141,o),
(624,1141,cs),
(707,1141,o),
(760,1100,o),
(760,1033,cs),
(760,1022,ls),
(760,954,o),
(717,908,o),
(593,841,cs),
(402,737,l),
(402,467,l)
);
},
{
closed = 1;
nodes = (
(694,-35,o),
(789,62,o),
(789,178,cs),
(789,293,o),
(696,383,o),
(578,383,cs),
(461,383,o),
(367,293,o),
(367,178,cs),
(367,62,o),
(462,-35,o),
(578,-35,cs)
);
}
);
width = 1200;
},
{
layerId = "88819DE9-98C6-4AB7-BD8B-9DF84621D738";
shapes = (
{
closed = 1;
nodes = (
(585,468,l),
(585,648,l),
(734,741,ls),
(907,849,o),
(976,953,o),
(976,1105,cs),
(976,1109,ls),
(976,1314,o),
(826,1462,o),
(579,1462,cs),
(334,1462,o),
(149,1334,o),
(74,1113,c),
(215,1062,l),
(273,1233,o),
(399,1324,o),
(578,1324,cs),
(735,1324,o),
(828,1248,o),
(828,1120,cs),
(828,1105,ls),
(828,1012,o),
(770,929,o),
(655,856,cs),
(439,720,l),
(439,468,l)
);
},
{
closed = 1;
nodes = (
(599,-30,o),
(665,34,o),
(665,120,cs),
(665,205,o),
(599,270,o),
(512,270,cs),
(425,270,o),
(359,206,o),
(359,120,cs),
(359,34,o),
(425,-30,o),
(512,-30,cs)
);
}
);
width = 1080;
},
{
background = {
shapes = (
{
closed = 1;
nodes = (
(605,475,l),
(605,515,ls),
(605,588,o),
(638,646,o),
(725,727,cs),
(807,803,ls),
(910,899,o),
(949,978,o),
(949,1090,cs),
(949,1094,ls),
(949,1315,o),
(791,1464,o),
(557,1464,cs),
(326,1464,o),
(141,1328,o),
(71,1107,c),
(241,1048,l),
(291,1201,o),
(405,1288,o),
(555,1288,cs),
(682,1288,o),
(761,1216,o),
(761,1100,cs),
(761,1086,ls),
(761,1019,o),
(731,968,o),
(647,890,cs),
(565,814,ls),
(457,714,o),
(419,641,o),
(419,535,cs),
(419,475,l)
);
}
);
};
layerId = "ED70A957-8AC1-4977-BF37-207E470C4E2E";
shapes = (
{
closed = 1;
nodes = (
(610,468,l),
(610,640,l),
(755,728,ls),
(926,832,o),
(994,940,o),
(994,1093,cs),
(994,1096,ls),
(994,1310,o),
(835,1463,o),
(581,1463,cs),
(332,1463,o),
(142,1332,o),
(66,1107,c),
(244,1045,l),
(297,1202,o),
(415,1288,o),
(579,1288,cs),
(721,1288,o),
(806,1219,o),
(806,1103,cs),
(806,1089,ls),
(806,1001,o),
(751,925,o),
(634,853,cs),
(423,724,l),
(423,468,l)
);
},
{
closed = 1;
nodes = (
(609,-31,o),
(681,40,o),
(681,132,cs),
(681,223,o),
(610,293,o),
(517,293,cs),
(424,293,o),
(352,224,o),
(352,132,cs),
(352,40,o),
(424,-31,o),
(517,-31,cs)
);
}
);
width = 1092;
},
{
layerId = "1DFF5E08-190B-46A4-A527-B6F0A79A5803";
shapes = (
{
closed = 1;
nodes = (
(687,467,l),
(687,614,l),
(817,690,ls),
(979,785,o),
(1050,900,o),
(1050,1056,cs),
(1050,1058,ls),
(1050,1299,o),
(864,1466,o),
(586,1466,cs),
(326,1466,o),
(122,1325,o),
(42,1088,c),
(331,994,l),
(371,1110,o),
(464,1178,o),
(582,1178,cs),
(679,1178,o),
(740,1130,o),
(740,1051,cs),
(740,1039,ls),
(740,966,o),
(694,912,o),
(572,844,cs),
(376,734,l),
(376,467,l)
);
},
{
closed = 1;
nodes = (
(641,-34,o),
(730,57,o),
(730,167,cs),
(730,276,o),
(643,361,o),
(532,361,cs),
(421,361,o),
(332,276,o),
(332,167,cs),
(332,57,o),
(421,-34,o),
(532,-34,cs)
);
}
);
width = 1130;
},
{
layerId = "F632DC93-BEFD-4CC9-8CF6-AC4643A09268";
shapes = (
{
closed = 1;
nodes = (
(712,467,l),
(712,605,l),
(837,677,ls),
(997,769,o),
(1068,887,o),
(1068,1043,cs),
(1068,1045,ls),
(1068,1295,o),
(873,1467,o),
(587,1467,cs),
(324,1467,o),
(115,1322,o),
(34,1082,c),
(360,977,l),
(395,1079,o),
(480,1141,o),
(582,1141,cs),
(665,1141,o),
(718,1100,o),
(718,1033,cs),
(718,1022,ls),
(718,954,o),
(675,908,o),
(551,841,cs),
(360,737,l),
(360,467,l)
);
},
{
closed = 1;
nodes = (
(652,-35,o),
(747,62,o),
(747,178,cs),
(747,293,o),
(654,383,o),
(536,383,cs),
(419,383,o),
(325,293,o),
(325,178,cs),
(325,62,o),
(420,-35,o),
(536,-35,cs)
);
}
);
width = 1142;
}
);
unicode = 63;
}
{
glyphname = at;
kernLeft = at_left;
kernRight = at_right;
layers = (
{
layerId = "68A78E10-2392-4B34-B44D-B6A5B48D0FD1";
shapes = (
{
closed = 1;
nodes = (
(857,-233,o),
(988,-192,o),
(1094,-111,c),
(1008,31,l),
(911,-41,o),
(819,-72,o),
(707,-72,cs),
(390,-72,o),
(227,178,o),
(227,662,cs),
(227,714,ls),
(227,1205,o),
(362,1443,o),
(640,1443,cs),
(838,1443,o),
(944,1312,o),
(944,1067,cs),
(944,961,l),
(939,961,l),
(889,1054,o),
(815,1099,o),
(710,1099,cs),
(519,1099,o),
(386,925,o),
(386,674,cs),
(386,648,ls),
(386,394,o),
(516,222,o),
(707,222,cs),
(809,222,o),
(881,265,o),
(939,361,c),
(944,361,l),
(944,233,l),
(1109,233,l),
(1109,1072,ls),
(1109,1402,o),
(931,1604,o),
(641,1604,cs),
(260,1604,o),
(57,1293,o),
(57,709,cs),
(57,667,ls),
(57,90,o),
(289,-233,o),
(705,-233,cs)
);
},
{
closed = 1;
nodes = (
(623,376,o),
(550,476,o),
(550,643,cs),
(550,679,ls),
(550,844,o),
(624,945,o),
(745,945,cs),
(864,945,o),
(939,843,o),
(939,679,cs),
(939,643,ls),
(939,479,o),
(864,376,o),
(745,376,cs)
);
}
);
width = 1200;
},
{
layerId = "50ED6B91-33B7-40F5-8C2C-B1BEC3C77CF0";
shapes = (
{
closed = 1;
nodes = (
(862,-233,o),
(993,-192,o),
(1106,-107,c),
(986,95,l),
(894,26,o),
(806,-5,o),
(702,-5,cs),
(423,-5,o),
(282,217,o),
(282,656,cs),
(282,720,ls),
(282,1167,o),
(401,1381,o),
(650,1381,cs),
(821,1381,o),
(908,1275,o),
(908,1066,cs),
(908,973,l),
(900,973,l),
(851,1070,o),
(790,1112,o),
(699,1112,cs),
(513,1112,o),
(389,936,o),
(389,673,cs),
(389,647,ls),
(389,385,o),
(511,210,o),
(692,210,cs),
(782,210,o),
(844,252,o),
(900,351,c),
(908,351,l),
(908,221,l),
(1129,221,l),
(1129,1071,ls),
(1129,1411,o),
(952,1608,o),
(646,1608,cs),
(253,1608,o),
(43,1297,o),
(43,715,cs),
(43,661,ls),
(43,86,o),
(279,-233,o),
(706,-233,cs)
);
},
{
closed = 1;
nodes = (
(661,425,o),
(605,506,o),
(605,643,cs),
(605,679,ls),
(605,814,o),
(662,897,o),
(756,897,cs),
(847,897,o),
(902,816,o),
(902,679,cs),
(902,643,ls),
(902,505,o),
(848,425,o),
(756,425,cs)
);
}
);
width = 1200;
},
{
associatedMasterId = "68A78E10-2392-4B34-B44D-B6A5B48D0FD1";
layerId = "6B89881D-236A-499C-BAB5-7FEF6D3CAE29";
name = "9 Jun 24, 22:52";
shapes = (
{
closed = 1;
nodes = (
(856,-233,o),
(987,-192,o),
(1094,-110,c),
(1001,42,l),
(909,-29,o),
(818,-61,o),
(707,-61,cs),
(398,-61,o),
(236,188,o),
(236,664,cs),
(236,712,ls),
(236,1199,o),
(370,1437,o),
(644,1437,cs),
(834,1437,o),
(936,1308,o),
(936,1067,cs),
(936,644,ls),
(936,480,o),
(862,378,o),
(744,378,cs),
(624,378,o),
(552,476,o),
(552,640,cs),
(552,676,ls),
(552,842,o),
(635,944,o),
(770,944,cs),
(840,944,o),
(896,922,o),
(954,870,c),
(954,998,l),
(890,1059,o),
(820,1088,o),
(734,1088,cs),
(524,1088,o),
(382,919,o),
(382,671,cs),
(382,645,ls),
(382,394,o),
(512,222,o),
(701,222,cs),
(801,222,o),
(882,270,o),
(939,363,c),
(944,363,l),
(944,233,l),
(1112,233,l),
(1112,1072,ls),
(1112,1407,o),
(936,1609,o),
(644,1609,cs),
(259,1609,o),
(50,1291,o),
(50,707,cs),
(50,669,ls),
(50,97,o),
(289,-233,o),
(703,-233,cs)
);
}
);
width = 1200;
},
{
associatedMasterId = "50ED6B91-33B7-40F5-8C2C-B1BEC3C77CF0";
layerId = "8C172977-B910-461A-B17E-A6DD30E01FAF";
name = "9 Jun 24, 22:58";
shapes = (
{
closed = 1;
nodes = (
(863,-233,o),
(995,-190,o),
(1105,-102,c),
(986,92,l),
(900,22,o),
(812,-11,o),
(708,-11,cs),
(426,-11,o),
(276,224,o),
(276,664,cs),
(276,712,ls),
(276,1156,o),
(401,1387,o),
(643,1387,cs),
(810,1387,o),
(900,1275,o),
(900,1067,cs),
(900,624,ls),
(900,493,o),
(846,418,o),
(752,418,cs),
(657,418,o),
(600,497,o),
(600,630,cs),
(600,666,ls),
(600,813,o),
(673,904,o),
(793,904,cs),
(855,904,o),
(903,882,o),
(954,830,c),
(954,1011,l),
(892,1072,o),
(824,1101,o),
(740,1101,cs),
(533,1101,o),
(390,921,o),
(390,660,cs),
(390,634,ls),
(390,380,o),
(517,210,o),
(707,210,cs),
(789,210,o),
(859,248,o),
(899,314,c),
(907,314,l),
(907,221,l),
(1122,221,l),
(1122,1072,ls),
(1122,1412,o),
(946,1609,o),
(643,1609,cs),
(248,1609,o),
(40,1298,o),
(40,707,cs),
(40,669,ls),
(40,86,o),
(276,-233,o),
(706,-233,cs)
);
}
);
width = 1200;
},
{
layerId = "B7DB719C-51CF-4BC3-BA18-7A6A1AAC666B";
shapes = (
{
closed = 1;
nodes = (
(855,-233,o),
(986,-192,o),
(1090,-113,c),
(1015,10,l),
(917,-63,o),
(823,-95,o),
(708,-95,cs),
(379,-95,o),
(208,165,o),
(208,664,cs),
(208,712,ls),
(208,1217,o),
(349,1464,o),
(637,1464,cs),
(843,1464,o),
(956,1324,o),
(956,1067,cs),
(956,957,l),
(952,957,l),
(902,1049,o),
(823,1095,o),
(714,1095,cs),
(521,1095,o),
(385,921,o),
(385,674,cs),
(385,648,ls),
(385,397,o),
(518,226,o),
(712,226,cs),
(818,226,o),
(893,269,o),
(952,364,c),
(956,364,l),
(956,237,l),
(1102,237,l),
(1102,1072,ls),
(1102,1399,o),
(924,1602,o),
(639,1602,cs),
(262,1602,o),
(62,1292,o),
(62,707,cs),
(62,669,ls),
(62,91,o),
(292,-233,o),
(704,-233,cs)
);
},
{
closed = 1;
nodes = (
(610,360,o),
(531,466,o),
(531,643,cs),
(531,679,ls),
(531,854,o),
(611,961,o),
(741,961,cs),
(870,961,o),
(951,852,o),
(951,679,cs),
(951,643,ls),
(951,470,o),
(869,360,o),
(741,360,cs)
);
}
);
width = 1200;
},
{
layerId = "D010C1AA-6BDD-4F06-9849-880CC2F29E88";
shapes = (
{
closed = 1;
nodes = (
(864,-233,o),
(995,-192,o),
(1110,-106,c),
(979,116,l),
(888,48,o),
(802,17,o),
(700,17,cs),
(434,17,o),
(300,230,o),
(300,654,cs),
(300,722,ls),
(300,1154,o),
(414,1360,o),
(653,1360,cs),
(815,1360,o),
(896,1262,o),
(896,1065,cs),
(896,977,l),
(887,977,l),
(838,1075,o),
(782,1116,o),
(695,1116,cs),
(511,1116,o),
(390,940,o),
(390,673,cs),
(390,647,ls),
(390,382,o),
(509,206,o),
(687,206,cs),
(773,206,o),
(832,248,o),
(887,348,c),
(896,348,l),
(896,217,l),
(1136,217,l),
(1136,1070,ls),
(1136,1414,o),
(959,1609,o),
(647,1609,cs),
(251,1609,o),
(38,1298,o),
(38,717,cs),
(38,659,ls),
(38,85,o),
(276,-233,o),
(706,-233,cs)
);
},
{
closed = 1;
nodes = (
(674,441,o),
(623,516,o),
(623,643,cs),
(623,679,ls),
(623,804,o),
(675,881,o),
(759,881,cs),
(841,881,o),
(889,807,o),
(889,679,cs),
(889,643,ls),
(889,513,o),
(843,441,o),
(759,441,cs)
);
}
);
width = 1200;
},
{
associatedMasterId = "B7DB719C-51CF-4BC3-BA18-7A6A1AAC666B";
layerId = "C2893C5F-53DE-4A1E-A20F-2106CC475901";
name = "10 Oct 24, 23:36";
shapes = (
{
closed = 1;
nodes = (
(853,-233,o),
(984,-193,o),
(1090,-113,c),
(1006,25,l),
(912,-46,o),
(820,-78,o),
(707,-78,cs),
(389,-78,o),
(223,176,o),
(223,664,cs),
(223,712,ls),
(223,1215,o),
(357,1454,o),
(639,1454,cs),
(844,1454,o),
(956,1318,o),
(956,1067,cs),
(956,938,l),
(952,938,l),
(902,1045,o),
(824,1096,o),
(712,1096,cs),
(516,1096,o),
(379,923,o),
(379,674,cs),
(379,648,ls),
(379,397,o),
(514,226,o),
(712,226,cs),
(816,226,o),
(890,273,o),
(952,379,c),
(956,379,l),
(956,237,l),
(1109,237,l),
(1109,1072,ls),
(1109,1405,o),
(931,1609,o),
(641,1609,cs),
(261,1609,o),
(53,1290,o),
(53,707,cs),
(53,669,ls),
(53,101,o),
(293,-233,o),
(702,-233,cs)
);
},
{
closed = 1;
nodes = (
(613,365,o),
(536,469,o),
(536,643,cs),
(536,679,ls),
(536,852,o),
(614,957,o),
(741,957,cs),
(868,957,o),
(948,849,o),
(948,679,cs),
(948,643,ls),
(948,473,o),
(867,365,o),
(741,365,cs)
);
}
);
visible = 1;
width = 1200;
},
{
background = {
shapes = (
{
closed = 1;
nodes = (
(1064,961,o),
(1167,855,o),
(1167,678,cs),
(1167,642,ls),
(1167,462,o),
(1063,360,o),
(912,360,cs),
(746,360,o),
(656,469,o),
(656,642,cs),
(656,678,ls),
(656,850,o),
(752,961,o),
(912,961,cs)
);
}
);
};
layerId = "88819DE9-98C6-4AB7-BD8B-9DF84621D738";
shapes = (
{
closed = 1;
nodes = (
(1035,-233,o),
(1185,-193,o),
(1304,-113,c),
(1229,9,l),
(1118,-65,o),
(1003,-95,o),
(871,-95,cs),
(490,-95,o),
(284,166,o),
(284,664,cs),
(284,712,ls),
(284,1216,o),
(455,1464,o),
(783,1464,cs),
(1026,1464,o),
(1173,1324,o),
(1173,1067,cs),
(1173,957,l),
(1169,957,l),
(1113,1045,o),
(1017,1095,o),
(884,1095,cs),
(663,1095,o),
(508,926,o),
(508,674,cs),
(508,648,ls),
(508,397,o),
(660,226,o),
(882,226,cs),
(1016,226,o),
(1102,270,o),
(1169,364,c),
(1173,364,l),
(1173,237,l),
(1317,237,l),
(1317,1072,ls),
(1317,1399,o),
(1114,1602,o),
(786,1602,cs),
(363,1602,o),
(136,1292,o),
(136,707,cs),
(136,669,ls),
(136,92,o),
(397,-233,o),
(865,-233,cs)
);
},
{
closed = 1;
nodes = (
(759,360,o),
(656,466,o),
(656,643,cs),
(656,679,ls),
(656,859,o),
(760,961,o),
(911,961,cs),
(1064,961,o),
(1167,855,o),
(1167,679,cs),
(1167,642,ls),
(1167,462,o),
(1063,360,o),
(911,360,cs)
);
}
);
width = 1483;
},
{
layerId = "ED70A957-8AC1-4977-BF37-207E470C4E2E";
shapes = (
{
closed = 1;
nodes = (
(1045,-233,o),
(1196,-193,o),
(1319,-111,c),
(1235,31,l),
(1124,-42,o),
(1011,-72,o),
(878,-72,cs),
(505,-72,o),
(304,179,o),
(304,662,cs),
(304,714,ls),
(304,1204,o),
(472,1443,o),
(792,1443,cs),
(1027,1443,o),
(1168,1310,o),
(1168,1065,cs),
(1168,961,l),
(1163,961,l),
(1106,1051,o),
(1012,1099,o),
(881,1099,cs),
(661,1099,o),
(510,929,o),
(510,674,cs),
(510,648,ls),
(510,394,o),
(661,222,o),
(882,222,cs),
(1012,222,o),
(1097,266,o),
(1163,361,c),
(1168,361,l),
(1168,233,l),
(1335,233,l),
(1335,1070,ls),
(1335,1400,o),
(1128,1604,o),
(794,1604,cs),
(364,1604,o),
(130,1293,o),
(130,709,cs),
(130,667,ls),
(130,91,o),
(398,-233,o),
(873,-233,cs)
);
},
{
closed = 1;
nodes = (
(775,376,o),
(679,476,o),
(679,644,cs),
(679,679,ls),
(679,848,o),
(776,945,o),
(920,945,cs),
(1067,945,o),
(1162,846,o),
(1162,679,cs),
(1162,643,ls),
(1162,472,o),
(1066,376,o),
(921,376,cs)
);
}
);
width = 1507;
},
{
layerId = "1DFF5E08-190B-46A4-A527-B6F0A79A5803";
shapes = (
{
closed = 1;
nodes = (
(1074,-233,o),
(1230,-193,o),
(1363,-107,c),
(1253,95,l),
(1140,25,o),
(1033,-5,o),
(899,-5,cs),
(551,-5,o),
(364,217,o),
(364,656,cs),
(364,720,ls),
(364,1166,o),
(522,1381,o),
(818,1381,cs),
(1029,1381,o),
(1152,1266,o),
(1152,1057,cs),
(1152,973,l),
(1144,973,l),
(1086,1067,o),
(997,1112,o),
(872,1112,cs),
(653,1112,o),
(517,937,o),
(517,673,cs),
(517,647,ls),
(517,385,o),
(662,210,o),
(881,210,cs),
(998,210,o),
(1082,253,o),
(1144,351,c),
(1152,351,l),
(1152,221,l),
(1387,221,l),
(1387,1062,ls),
(1387,1403,o),
(1168,1608,o),
(816,1608,cs),
(366,1608,o),
(112,1297,o),
(112,715,cs),
(112,661,ls),
(112,86,o),
(399,-233,o),
(897,-233,cs)
);
},
{
closed = 1;
nodes = (
(824,425,o),
(748,506,o),
(748,645,cs),
(748,677,ls),
(748,815,o),
(824,897,o),
(945,897,cs),
(1074,897,o),
(1145,817,o),
(1145,677,cs),
(1145,644,ls),
(1145,503,o),
(1073,425,o),
(949,425,cs)
);
}
);
width = 1547;
},
{
layerId = "F632DC93-BEFD-4CC9-8CF6-AC4643A09268";
shapes = (
{
closed = 1;
nodes = (
(1084,-233,o),
(1242,-193,o),
(1378,-106,c),
(1259,116,l),
(1146,47,o),
(1040,17,o),
(906,17,cs),
(566,17,o),
(384,230,o),
(384,654,cs),
(384,722,ls),
(384,1154,o),
(539,1360,o),
(827,1360,cs),
(1030,1360,o),
(1147,1252,o),
(1147,1055,cs),
(1147,977,l),
(1138,977,l),
(1079,1073,o),
(992,1116,o),
(869,1116,cs),
(651,1116,o),
(519,940,o),
(519,673,cs),
(519,647,ls),
(519,382,o),
(663,206,o),
(881,206,cs),
(994,206,o),
(1078,250,o),
(1138,348,c),
(1147,348,l),
(1147,217,l),
(1405,217,l),
(1405,1060,ls),
(1405,1404,o),
(1182,1609,o),
(823,1609,cs),
(367,1609,o),
(106,1298,o),
(106,717,cs),
(106,659,ls),
(106,85,o),
(399,-233,o),
(905,-233,cs)
);
},
{
closed = 1;
nodes = (
(840,441,o),
(771,516,o),
(771,645,cs),
(771,677,ls),
(771,804,o),
(840,881,o),
(953,881,cs),
(1076,881,o),
(1140,807,o),
(1140,677,cs),
(1140,645,ls),
(1140,513,o),
(1076,441,o),
(958,441,cs)
);
}
);
width = 1531;
}
);
unicode = 64;
}
{
color = 8;
glyphname = A;
kernLeft = A_left;
kernRight = A_right;
layers = (
{
anchors = (
{
name = bottom;
pos = (600,23);
},
{
name = ogonek;
pos = (1143,0);
},
{
name = top;
pos = (602,1432);
}
);
layerId = "68A78E10-2392-4B34-B44D-B6A5B48D0FD1";
shapes = (
{
closed = 1;
nodes = (
(252,0,l),
(555,1063,l),
(596,1218,l),
(602,1218,l),
(642,1063,l),
(947,0,l),
(1143,0,l),
(700,1432,l),
(503,1432,l),
(58,0,l)
);
},
{
closed = 1;
nodes = (
(945,369,l),
(892,536,l),
(306,536,l),
(254,369,l)
);
}
);
width = 1200;
},
{
anchors = (
{
name = bottom;
pos = (597,24);
},
{
name = ogonek;
pos = (1184,0);
},
{
name = top;
pos = (602,1432);
}
);
layerId = "50ED6B91-33B7-40F5-8C2C-B1BEC3C77CF0";
shapes = (
{
closed = 1;
nodes = (
(326,0,l),
(550,885,l),
(593,1095,l),
(600,1095,l),
(647,885,l),
(868,0,l),
(1184,0,l),
(743,1432,l),
(461,1432,l),
(16,0,l)
);
},
{
closed = 1;
nodes = (
(970,276,l),
(888,517,l),
(296,517,l),
(220,276,l)
);
}
);
width = 1200;
},
{
anchors = (
{
name = bottom;
pos = (600,20);
},
{
name = ogonek;
pos = (1129,0);
},
{
name = top;
pos = (602,1432);
}
);
layerId = "B7DB719C-51CF-4BC3-BA18-7A6A1AAC666B";
shapes = (
{
closed = 1;
nodes = (
(227,0,l),
(557,1122,l),
(597,1260,l),
(603,1260,l),
(640,1122,l),
(973,0,l),
(1129,0,l),
(686,1432,l),
(517,1432,l),
(72,0,l)
);
},
{
closed = 1;
nodes = (
(937,400,l),
(893,542,l),
(309,542,l),
(265,400,l)
);
}
);
width = 1200;
},
{
anchors = (
{
name = bottom;
pos = (597,26);
},
{
name = ogonek;
pos = (1198,0);
},
{
name = top;
pos = (602,1432);
}
);
layerId = "D010C1AA-6BDD-4F06-9849-880CC2F29E88";
shapes = (
{
closed = 1;
nodes = (
(351,0,l),
(548,826,l),
(592,1054,l),
(599,1054,l),
(649,826,l),
(842,0,l),
(1198,0,l),
(757,1432,l),
(447,1432,l),
(2,0,l)
);
},
{
closed = 1;
nodes = (
(978,245,l),
(887,511,l),
(293,511,l),
(209,245,l)
);
}
);
width = 1200;
},
{
anchors = (
{
name = bottom;
pos = (572,20);
},
{
name = ogonek;
pos = (1101,0);
},
{
name = top;
pos = (574,1432);
}
);
layerId = "88819DE9-98C6-4AB7-BD8B-9DF84621D738";
shapes = (
{
closed = 1;
nodes = (
(199,0,l),
(529,1122,l),
(569,1260,l),
(575,1260,l),
(612,1122,l),
(945,0,l),
(1101,0,l),
(658,1432,l),
(489,1432,l),
(44,0,l)
);
},
{
closed = 1;
nodes = (
(909,400,l),
(865,542,l),
(281,542,l),
(237,400,l)
);
}
);
width = 1145;
},
{
anchors = (
{
name = bottom;
pos = (574,23);
},
{
name = ogonek;
pos = (1117,0);
},
{
name = top;
pos = (576,1432);
}
);
layerId = "ED70A957-8AC1-4977-BF37-207E470C4E2E";
shapes = (
{
closed = 1;
nodes = (
(226,0,l),
(529,1063,l),
(570,1218,l),
(576,1218,l),
(616,1063,l),
(921,0,l),
(1117,0,l),
(674,1432,l),
(477,1432,l),
(32,0,l)
);
},
{
closed = 1;
nodes = (
(919,369,l),
(866,536,l),
(280,536,l),
(228,369,l)
);
}
);
width = 1149;
},
{
anchors = (
{
name = bottom;
pos = (577,24);
},
{
name = ogonek;
pos = (1164,0);
},
{
name = top;
pos = (582,1432);
}
);
layerId = "1DFF5E08-190B-46A4-A527-B6F0A79A5803";
shapes = (
{
closed = 1;
nodes = (
(306,0,l),
(530,885,l),
(573,1095,l),
(580,1095,l),
(627,885,l),
(848,0,l),
(1164,0,l),
(723,1432,l),
(441,1432,l),
(-4,0,l)
);
},
{
closed = 1;
nodes = (
(950,276,l),
(868,517,l),
(276,517,l),
(200,276,l)
);
}
);
width = 1160;
},
{
anchors = (
{
name = bottom;
pos = (579,26);
},
{
name = ogonek;
pos = (1180,0);
},
{
name = top;
pos = (584,1432);
}
);
layerId = "F632DC93-BEFD-4CC9-8CF6-AC4643A09268";
shapes = (
{
closed = 1;
nodes = (
(333,0,l),
(530,826,l),
(574,1054,l),
(581,1054,l),
(631,826,l),
(824,0,l),
(1180,0,l),
(739,1432,l),
(429,1432,l),
(-16,0,l)
);
},
{
closed = 1;
nodes = (
(960,245,l),
(869,511,l),
(275,511,l),
(191,245,l)
);
}
);
width = 1164;
}
);
unicode = 65;
}
{
color = 2;
glyphname = B;
kernLeft = H_left;
kernRight = B_right;
layers = (
{
layerId = "68A78E10-2392-4B34-B44D-B6A5B48D0FD1";
shapes = (
{
closed = 1;
nodes = (
(653,0,ls),
(906,0,o),
(1074,151,o),
(1074,379,cs),
(1074,407,ls),
(1074,581,o),
(975,710,o),
(811,745,c),
(811,752,l),
(943,801,o),
(1017,912,o),
(1017,1061,cs),
(1017,1089,ls),
(1017,1296,o),
(867,1432,o),
(618,1432,cs),
(172,1432,l),
(172,0,l)
);
},
{
closed = 1;
nodes = (
(354,1268,l),
(601,1268,ls),
(750,1268,o),
(829,1193,o),
(829,1054,cs),
(829,1034,ls),
(829,896,o),
(748,820,o),
(601,820,cs),
(295,820,l),
(295,666,l),
(624,666,ls),
(795,666,o),
(886,580,o),
(886,427,cs),
(886,403,ls),
(886,250,o),
(795,164,o),
(635,164,cs),
(354,164,l)
);
}
);
width = 1200;
},
{
layerId = "50ED6B91-33B7-40F5-8C2C-B1BEC3C77CF0";
shapes = (
{
closed = 1;
nodes = (
(675,0,ls),
(950,0,o),
(1124,145,o),
(1124,374,cs),
(1124,397,ls),
(1124,572,o),
(1024,699,o),
(853,743,c),
(853,752,l),
(992,805,o),
(1067,915,o),
(1067,1063,cs),
(1067,1084,ls),
(1067,1297,o),
(907,1432,o),
(655,1432,cs),
(130,1432,l),
(130,0,l)
);
},
{
closed = 1;
nodes = (
(432,1184,l),
(591,1184,ls),
(702,1184,o),
(763,1128,o),
(763,1026,cs),
(763,1012,ls),
(763,910,o),
(702,854,o),
(591,854,cs),
(365,854,l),
(365,608,l),
(626,608,ls),
(750,608,o),
(820,546,o),
(820,437,cs),
(820,419,ls),
(820,309,o),
(753,248,o),
(633,248,cs),
(432,248,l)
);
}
);
width = 1200;
},
{
layerId = "B7DB719C-51CF-4BC3-BA18-7A6A1AAC666B";
shapes = (
{
closed = 1;
nodes = (
(644,0,ls),
(889,0,o),
(1056,152,o),
(1056,380,cs),
(1056,410,ls),
(1056,585,o),
(956,714,o),
(796,746,c),
(796,752,l),
(926,800,o),
(999,911,o),
(999,1060,cs),
(999,1090,ls),
(999,1299,o),
(848,1432,o),
(605,1432,cs),
(184,1432,l),
(184,0,l)
);
},
{
closed = 1;
nodes = (
(328,1296,l),
(603,1296,ls),
(765,1296,o),
(851,1216,o),
(851,1066,cs),
(851,1044,ls),
(851,895,o),
(763,814,o),
(603,814,cs),
(270,814,l),
(270,678,l),
(622,678,ls),
(810,678,o),
(908,586,o),
(908,420,cs),
(908,394,ls),
(908,230,o),
(808,136,o),
(634,136,cs),
(328,136,l)
);
}
);
width = 1200;
},
{
layerId = "D010C1AA-6BDD-4F06-9849-880CC2F29E88";
shapes = (
{
closed = 1;
nodes = (
(681,0,ls),
(966,0,o),
(1140,145,o),
(1140,372,cs),
(1140,393,ls),
(1140,563,o),
(1045,694,o),
(866,742,c),
(866,752,l),
(1006,806,o),
(1083,915,o),
(1083,1064,cs),
(1083,1082,ls),
(1083,1282,o),
(936,1432,o),
(666,1432,cs),
(116,1432,l),
(116,0,l)
);
},
{
closed = 1;
nodes = (
(456,1154,l),
(588,1154,ls),
(687,1154,o),
(741,1099,o),
(741,1005,cs),
(741,993,ls),
(741,899,o),
(689,844,o),
(588,844,cs),
(389,844,l),
(389,610,l),
(627,610,ls),
(735,610,o),
(798,552,o),
(798,452,cs),
(798,436,ls),
(798,336,o),
(741,278,o),
(633,278,cs),
(456,278,l)
);
}
);
width = 1200;
},
{
layerId = "88819DE9-98C6-4AB7-BD8B-9DF84621D738";
shapes = (
{
closed = 1;
nodes = (
(656,0,ls),
(901,0,o),
(1068,152,o),
(1068,380,cs),
(1068,410,ls),
(1068,585,o),
(968,714,o),
(808,746,c),
(808,752,l),
(938,800,o),
(1011,911,o),
(1011,1060,cs),
(1011,1090,ls),
(1011,1299,o),
(860,1432,o),
(617,1432,cs),
(196,1432,l),
(196,0,l)
);
},
{
closed = 1;
nodes = (
(340,1296,l),
(615,1296,ls),
(777,1296,o),
(863,1216,o),
(863,1066,cs),
(863,1044,ls),
(863,895,o),
(775,814,o),
(615,814,cs),
(282,814,l),
(282,678,l),
(634,678,ls),
(822,678,o),
(920,586,o),
(920,420,cs),
(920,394,ls),
(920,230,o),
(820,136,o),
(646,136,cs),
(340,136,l)
);
}
);
width = 1194;
},
{
layerId = "ED70A957-8AC1-4977-BF37-207E470C4E2E";
shapes = (
{
closed = 1;
nodes = (
(673,0,ls),
(926,0,o),
(1094,151,o),
(1094,379,cs),
(1094,407,ls),
(1094,581,o),
(995,710,o),
(831,745,c),
(831,752,l),
(963,801,o),
(1037,912,o),
(1037,1061,cs),
(1037,1089,ls),
(1037,1296,o),
(887,1432,o),
(638,1432,cs),
(192,1432,l),
(192,0,l)
);
},
{
closed = 1;
nodes = (
(374,1268,l),
(621,1268,ls),
(770,1268,o),
(849,1193,o),
(849,1054,cs),
(849,1034,ls),
(849,896,o),
(768,820,o),
(621,820,cs),
(315,820,l),
(315,666,l),
(644,666,ls),
(815,666,o),
(906,580,o),
(906,427,cs),
(906,403,ls),
(906,250,o),
(815,164,o),
(655,164,cs),
(374,164,l)
);
}
);
width = 1208;
},
{
layerId = "1DFF5E08-190B-46A4-A527-B6F0A79A5803";
shapes = (
{
closed = 1;
nodes = (
(725,0,ls),
(1000,0,o),
(1174,145,o),
(1174,374,cs),
(1174,397,ls),
(1174,572,o),
(1074,699,o),
(903,743,c),
(903,752,l),
(1042,805,o),
(1117,915,o),
(1117,1063,cs),
(1117,1084,ls),
(1117,1297,o),
(957,1432,o),
(705,1432,cs),
(180,1432,l),
(180,0,l)
);
},
{
closed = 1;
nodes = (
(482,1184,l),
(641,1184,ls),
(752,1184,o),
(813,1128,o),
(813,1026,cs),
(813,1012,ls),
(813,910,o),
(752,854,o),
(641,854,cs),
(415,854,l),
(415,608,l),
(676,608,ls),
(800,608,o),
(870,546,o),
(870,437,cs),
(870,419,ls),
(870,309,o),
(803,248,o),
(683,248,cs),
(482,248,l)
);
}
);
width = 1252;
},
{
layerId = "F632DC93-BEFD-4CC9-8CF6-AC4643A09268";
shapes = (
{
closed = 1;
nodes = (
(741,0,ls),
(1026,0,o),
(1200,145,o),
(1200,372,cs),
(1200,393,ls),
(1200,563,o),
(1105,694,o),
(926,742,c),
(926,752,l),
(1066,806,o),
(1143,915,o),
(1143,1064,cs),
(1143,1082,ls),
(1143,1282,o),
(996,1432,o),
(726,1432,cs),
(176,1432,l),
(176,0,l)
);
},
{
closed = 1;
nodes = (
(516,1154,l),
(648,1154,ls),
(747,1154,o),
(801,1099,o),
(801,1005,cs),
(801,993,ls),
(801,899,o),
(749,844,o),
(648,844,cs),
(449,844,l),
(449,610,l),
(687,610,ls),
(795,610,o),
(858,552,o),
(858,452,cs),
(858,436,ls),
(858,336,o),
(801,278,o),
(693,278,cs),
(516,278,l)
);
}
);
width = 1285;
}
);
unicode = 66;
}
{
color = 2;
glyphname = C;
kernLeft = O_left;
kernRight = C_right;
layers = (
{
anchors = (
{
name = bottom;
pos = (655,0);
},
{
name = top;
pos = (645,1432);
}
);
layerId = "68A78E10-2392-4B34-B44D-B6A5B48D0FD1";
shapes = (
{
closed = 1;
nodes = (
(885,-32,o),
(1049,91,o),
(1123,321,c),
(950,385,l),
(898,223,o),
(801,144,o),
(656,144,cs),
(423,144,o),
(290,343,o),
(290,692,cs),
(290,740,ls),
(290,1092,o),
(417,1288,o),
(643,1288,cs),
(787,1288,o),
(874,1215,o),
(932,1046,c),
(1104,1112,l),
(1029,1341,o),
(868,1464,o),
(647,1464,cs),
(307,1464,o),
(100,1189,o),
(100,735,cs),
(100,697,ls),
(100,249,o),
(314,-32,o),
(653,-32,cs)
);
}
);
width = 1200;
},
{
associatedMasterId = "68A78E10-2392-4B34-B44D-B6A5B48D0FD1";
layerId = "9708F120-A4BF-4A9B-BD7D-296BEF37B67F";
name = "3 Jun 24, 13:02";
shapes = (
{
closed = 1;
nodes = (
(891,-32,o),
(1049,98,o),
(1120,320,c),
(947,383,l),
(899,228,o),
(806,144,o),
(654,144,cs),
(422,144,o),
(288,341,o),
(288,692,cs),
(288,741,ls),
(288,1091,o),
(416,1288,o),
(644,1288,cs),
(794,1288,o),
(876,1206,o),
(928,1048,c),
(1100,1113,l),
(1027,1343,o),
(880,1464,o),
(642,1464,cs),
(305,1464,o),
(100,1198,o),
(100,757,cs),
(100,676,ls),
(100,233,o),
(311,-32,o),
(652,-32,cs)
);
}
);
width = 1200;
},
{
associatedMasterId = "50ED6B91-33B7-40F5-8C2C-B1BEC3C77CF0";
layerId = "7BD824B9-B9E0-4E1A-B52C-A3E8E42A8BDA";
name = "5 Jun 24, 14:05";
shapes = (
{
closed = 1;
nodes = (
(881,-34,o),
(1040,92,o),
(1105,257,c),
(852,403,l),
(816,313,o),
(756,254,o),
(656,254,cs),
(488,254,o),
(388,416,o),
(388,689,cs),
(388,743,ls),
(388,1019,o),
(482,1178,o),
(646,1178,cs),
(750,1178,o),
(809,1121,o),
(836,995,c),
(1117,1075,l),
(1064,1322,o),
(889,1466,o),
(644,1466,cs),
(298,1466,o),
(76,1182,o),
(76,738,cs),
(76,694,ls),
(76,254,o),
(305,-34,o),
(654,-34,cs)
);
}
);
width = 1200;
},
{
anchors = (
{
name = bottom;
pos = (656,0);
},
{
name = top;
pos = (645,1432);
}
);
layerId = "50ED6B91-33B7-40F5-8C2C-B1BEC3C77CF0";
name = "Bold 12";
shapes = (
{
closed = 1;
nodes = (
(905,-34,o),
(1084,114,o),
(1145,369,c),
(861,453,l),
(829,324,o),
(759,256,o),
(655,256,cs),
(489,256,o),
(390,417,o),
(390,689,cs),
(390,743,ls),
(390,1019,o),
(482,1176,o),
(643,1176,cs),
(749,1176,o),
(810,1117,o),
(843,986,c),
(1127,1071,l),
(1066,1325,o),
(894,1466,o),
(647,1466,cs),
(299,1466,o),
(76,1182,o),
(76,738,cs),
(76,694,ls),
(76,255,o),
(307,-34,o),
(657,-34,cs)
);
}
);
width = 1200;
},
{
anchors = (
{
name = bottom;
pos = (654,0);
},
{
name = top;
pos = (645,1432);
}
);
layerId = "B7DB719C-51CF-4BC3-BA18-7A6A1AAC666B";
shapes = (
{
closed = 1;
nodes = (
(878,-30,o),
(1037,84,o),
(1116,305,c),
(979,362,l),
(921,192,o),
(815,110,o),
(656,110,cs),
(401,110,o),
(256,321,o),
(256,693,cs),
(256,739,ls),
(256,1113,o),
(395,1322,o),
(643,1322,cs),
(799,1322,o),
(895,1244,o),
(961,1066,c),
(1096,1126,l),
(1016,1345,o),
(859,1462,o),
(647,1462,cs),
(310,1462,o),
(108,1190,o),
(108,734,cs),
(108,698,ls),
(108,248,o),
(316,-30,o),
(651,-30,cs)
);
}
);
width = 1200;
},
{
anchors = (
{
name = bottom;
pos = (656,0);
},
{
name = top;
pos = (645,1432);
}
);
layerId = "D010C1AA-6BDD-4F06-9849-880CC2F29E88";
shapes = (
{
closed = 1;
nodes = (
(912,-35,o),
(1095,121,o),
(1152,385,c),
(831,476,l),
(806,360,o),
(745,299,o),
(654,299,cs),
(507,299,o),
(418,445,o),
(418,688,cs),
(418,744,ls),
(418,991,o),
(500,1133,o),
(643,1133,cs),
(736,1133,o),
(788,1081,o),
(813,966,c),
(1134,1057,l),
(1078,1320,o),
(903,1467,o),
(647,1467,cs),
(296,1467,o),
(68,1180,o),
(68,739,cs),
(68,693,ls),
(68,256,o),
(304,-35,o),
(658,-35,cs)
);
}
);
width = 1200;
},
{
anchors = (
{
name = bottom;
pos = (672,0);
},
{
name = top;
pos = (663,1432);
}
);
layerId = "88819DE9-98C6-4AB7-BD8B-9DF84621D738";
shapes = (
{
closed = 1;
nodes = (
(896,-30,o),
(1055,84,o),
(1134,305,c),
(997,362,l),
(939,192,o),
(833,110,o),
(674,110,cs),
(419,110,o),
(274,321,o),
(274,693,cs),
(274,739,ls),
(274,1113,o),
(413,1322,o),
(661,1322,cs),
(817,1322,o),
(913,1244,o),
(979,1066,c),
(1114,1126,l),
(1034,1345,o),
(877,1462,o),
(665,1462,cs),
(328,1462,o),
(126,1190,o),
(126,734,cs),
(126,698,ls),
(126,248,o),
(334,-30,o),
(669,-30,cs)
);
}
);
width = 1210;
},
{
anchors = (
{
name = bottom;
pos = (675,0);
},
{
name = top;
pos = (665,1432);
}
);
layerId = "ED70A957-8AC1-4977-BF37-207E470C4E2E";
shapes = (
{
closed = 1;
nodes = (
(905,-32,o),
(1069,91,o),
(1143,321,c),
(970,385,l),
(918,223,o),
(821,144,o),
(676,144,cs),
(443,144,o),
(310,343,o),
(310,692,cs),
(310,740,ls),
(310,1092,o),
(437,1288,o),
(663,1288,cs),
(807,1288,o),
(894,1215,o),
(952,1046,c),
(1124,1112,l),
(1049,1341,o),
(888,1464,o),
(667,1464,cs),
(327,1464,o),
(120,1189,o),
(120,735,cs),
(120,697,ls),
(120,249,o),
(334,-32,o),
(673,-32,cs)
);
}
);
width = 1215;
},
{
anchors = (
{
name = bottom;
pos = (682,0);
},
{
name = top;
pos = (671,1432);
}
);
layerId = "1DFF5E08-190B-46A4-A527-B6F0A79A5803";
name = "Bold 12";
shapes = (
{
closed = 1;
nodes = (
(931,-34,o),
(1110,114,o),
(1171,369,c),
(887,453,l),
(855,324,o),
(785,256,o),
(681,256,cs),
(515,256,o),
(416,417,o),
(416,689,cs),
(416,743,ls),
(416,1019,o),
(508,1176,o),
(669,1176,cs),
(775,1176,o),
(836,1117,o),
(869,986,c),
(1153,1071,l),
(1092,1325,o),
(920,1466,o),
(673,1466,cs),
(325,1466,o),
(102,1182,o),
(102,738,cs),
(102,694,ls),
(102,255,o),
(333,-34,o),
(683,-34,cs)
);
}
);
width = 1231;
},
{
anchors = (
{
name = bottom;
pos = (684,0);
},
{
name = top;
pos = (673,1432);
}
);
layerId = "F632DC93-BEFD-4CC9-8CF6-AC4643A09268";
shapes = (
{
closed = 1;
nodes = (
(940,-35,o),
(1123,121,o),
(1180,385,c),
(859,476,l),
(834,360,o),
(773,299,o),
(682,299,cs),
(535,299,o),
(446,445,o),
(446,688,cs),
(446,744,ls),
(446,991,o),
(528,1133,o),
(671,1133,cs),
(764,1133,o),
(816,1081,o),
(841,966,c),
(1162,1057,l),
(1106,1320,o),
(931,1467,o),
(675,1467,cs),
(324,1467,o),
(96,1180,o),
(96,739,cs),
(96,693,ls),
(96,256,o),
(332,-35,o),
(686,-35,cs)
);
}
);
width = 1236;
}
);
unicode = 67;
}
{
color = 8;
glyphname = D;
kernLeft = H_left;
kernRight = O_right;
layers = (
{
anchors = (
{
name = top;
pos = (565,1432);
}
);
layerId = "68A78E10-2392-4B34-B44D-B6A5B48D0FD1";
shapes = (
{
closed = 1;
nodes = (
(518,0,ls),
(881,0,o),
(1096,260,o),
(1096,697,cs),
(1096,735,ls),
(1096,1172,o),
(881,1432,o),
(518,1432,cs),
(140,1432,l),
(140,0,l)
);
},
{
closed = 1;
nodes = (
(324,1258,l),
(512,1258,ls),
(772,1258,o),
(906,1081,o),
(906,740,cs),
(906,692,ls),
(906,351,o),
(772,174,o),
(512,174,cs),
(324,174,l)
);
}
);
width = 1200;
},
{
anchors = (
{
name = top;
pos = (572,1432);
}
);
layerId = "50ED6B91-33B7-40F5-8C2C-B1BEC3C77CF0";
shapes = (
{
closed = 1;
nodes = (
(534,0,ls),
(893,0,o),
(1120,269,o),
(1120,694,cs),
(1120,738,ls),
(1120,1163,o),
(893,1432,o),
(534,1432,cs),
(116,1432,l),
(116,0,l)
);
},
{
closed = 1;
nodes = (
(422,1144,l),
(530,1144,ls),
(713,1144,o),
(806,1009,o),
(806,743,cs),
(806,689,ls),
(806,422,o),
(714,288,o),
(530,288,cs),
(422,288,l)
);
}
);
width = 1200;
},
{
anchors = (
{
name = top;
pos = (566,1432);
}
);
layerId = "B7DB719C-51CF-4BC3-BA18-7A6A1AAC666B";
shapes = (
{
closed = 1;
nodes = (
(513,0,ls),
(877,0,o),
(1088,257,o),
(1088,698,cs),
(1088,734,ls),
(1088,1175,o),
(877,1432,o),
(513,1432,cs),
(148,1432,l),
(148,0,l)
);
},
{
closed = 1;
nodes = (
(292,1294,l),
(506,1294,ls),
(792,1294,o),
(940,1104,o),
(940,739,cs),
(940,693,ls),
(940,328,o),
(791,138,o),
(506,138,cs),
(292,138,l)
);
}
);
width = 1200;
},
{
anchors = (
{
name = top;
pos = (568,1432);
}
);
layerId = "D010C1AA-6BDD-4F06-9849-880CC2F29E88";
shapes = (
{
closed = 1;
nodes = (
(539,0,ls),
(897,0,o),
(1128,272,o),
(1128,693,cs),
(1128,739,ls),
(1128,1160,o),
(897,1432,o),
(539,1432,cs),
(108,1432,l),
(108,0,l)
);
},
{
closed = 1;
nodes = (
(452,1102,l),
(536,1102,ls),
(696,1102,o),
(778,982,o),
(778,744,cs),
(778,688,ls),
(778,449,o),
(698,330,o),
(536,330,cs),
(452,330,l)
);
}
);
width = 1200;
},
{
anchors = (
{
name = top;
pos = (612,1432);
}
);
layerId = "88819DE9-98C6-4AB7-BD8B-9DF84621D738";
shapes = (
{
closed = 1;
nodes = (
(559,0,ls),
(923,0,o),
(1134,257,o),
(1134,698,cs),
(1134,734,ls),
(1134,1175,o),
(923,1432,o),
(559,1432,cs),
(194,1432,l),
(194,0,l)
);
},
{
closed = 1;
nodes = (
(338,1294,l),
(552,1294,ls),
(838,1294,o),
(986,1104,o),
(986,739,cs),
(986,693,ls),
(986,328,o),
(837,138,o),
(552,138,cs),
(338,138,l)
);
}
);
width = 1258;
},
{
anchors = (
{
name = top;
pos = (615,1432);
}
);
layerId = "ED70A957-8AC1-4977-BF37-207E470C4E2E";
shapes = (
{
closed = 1;
nodes = (
(568,0,ls),
(931,0,o),
(1146,260,o),
(1146,697,cs),
(1146,735,ls),
(1146,1172,o),
(931,1432,o),
(568,1432,cs),
(190,1432,l),
(190,0,l)
);
},
{
closed = 1;
nodes = (
(374,1258,l),
(562,1258,ls),
(822,1258,o),
(956,1081,o),
(956,740,cs),
(956,692,ls),
(956,351,o),
(822,174,o),
(562,174,cs),
(374,174,l)
);
}
);
width = 1264;
},
{
anchors = (
{
name = top;
pos = (634,1432);
}
);
layerId = "1DFF5E08-190B-46A4-A527-B6F0A79A5803";
shapes = (
{
closed = 1;
nodes = (
(596,0,ls),
(955,0,o),
(1182,269,o),
(1182,694,cs),
(1182,738,ls),
(1182,1163,o),
(955,1432,o),
(596,1432,cs),
(178,1432,l),
(178,0,l)
);
},
{
closed = 1;
nodes = (
(484,1144,l),
(592,1144,ls),
(775,1144,o),
(868,1009,o),
(868,743,cs),
(868,689,ls),
(868,422,o),
(776,288,o),
(592,288,cs),
(484,288,l)
);
}
);
width = 1282;
},
{
anchors = (
{
name = top;
pos = (634,1432);
}
);
layerId = "F632DC93-BEFD-4CC9-8CF6-AC4643A09268";
shapes = (
{
closed = 1;
nodes = (
(605,0,ls),
(963,0,o),
(1194,272,o),
(1194,693,cs),
(1194,739,ls),
(1194,1160,o),
(963,1432,o),
(605,1432,cs),
(174,1432,l),
(174,0,l)
);
},
{
closed = 1;
nodes = (
(518,1102,l),
(602,1102,ls),
(762,1102,o),
(844,982,o),
(844,744,cs),
(844,688,ls),
(844,449,o),
(764,330,o),
(602,330,cs),
(518,330,l)
);
}
);
width = 1288;
}
);
unicode = 68;
}
{
color = 8;
glyphname = E;
kernLeft = H_left;
kernRight = E_right;
layers = (
{
anchors = (
{
name = bottom;
pos = (597,0);
},
{
name = ogonek;
pos = (1010,0);
},
{
name = top;
pos = (589,1432);
}
);
layerId = "68A78E10-2392-4B34-B44D-B6A5B48D0FD1";
shapes = (
{
closed = 1;
nodes = (
(1010,0,l),
(1010,174,l),
(370,174,l),
(370,1258,l),
(994,1258,l),
(994,1432,l),
(184,1432,l),
(184,0,l)
);
},
{
closed = 1;
nodes = (
(914,647,l),
(914,821,l),
(292,821,l),
(292,647,l)
);
}
);
width = 1200;
},
{
anchors = (
{
name = bottom;
pos = (597,0);
},
{
name = ogonek;
pos = (1050,0);
},
{
name = top;
pos = (589,1432);
}
);
layerId = "50ED6B91-33B7-40F5-8C2C-B1BEC3C77CF0";
shapes = (
{
closed = 1;
nodes = (
(1050,0,l),
(1050,286,l),
(450,286,l),
(450,1146,l),
(1034,1146,l),
(1034,1432,l),
(144,1432,l),
(144,0,l)
);
},
{
closed = 1;
nodes = (
(954,589,l),
(954,873,l),
(333,873,l),
(333,589,l)
);
}
);
width = 1200;
},
{
anchors = (
{
name = bottom;
pos = (596,0);
},
{
name = ogonek;
pos = (996,0);
},
{
name = top;
pos = (588,1432);
}
);
layerId = "B7DB719C-51CF-4BC3-BA18-7A6A1AAC666B";
shapes = (
{
closed = 1;
nodes = (
(996,0,l),
(996,136,l),
(342,136,l),
(342,1296,l),
(980,1296,l),
(980,1432,l),
(196,1432,l),
(196,0,l)
);
},
{
closed = 1;
nodes = (
(900,667,l),
(900,803,l),
(277,803,l),
(277,667,l)
);
}
);
width = 1200;
},
{
anchors = (
{
name = bottom;
pos = (596,0);
},
{
name = ogonek;
pos = (1062,0);
},
{
name = top;
pos = (588,1432);
}
);
layerId = "D010C1AA-6BDD-4F06-9849-880CC2F29E88";
shapes = (
{
closed = 1;
nodes = (
(1062,0,l),
(1062,322,l),
(474,322,l),
(474,1110,l),
(1046,1110,l),
(1046,1432,l),
(130,1432,l),
(130,0,l)
);
},
{
closed = 1;
nodes = (
(966,570,l),
(966,888,l),
(346,888,l),
(346,570,l)
);
}
);
width = 1200;
},
{
anchors = (
{
name = bottom;
pos = (594,0);
},
{
name = ogonek;
pos = (994,0);
},
{
name = top;
pos = (586,1432);
}
);
layerId = "88819DE9-98C6-4AB7-BD8B-9DF84621D738";
shapes = (
{
closed = 1;
nodes = (
(994,0,l),
(994,136,l),
(340,136,l),
(340,1296,l),
(978,1296,l),
(978,1432,l),
(194,1432,l),
(194,0,l)
);
},
{
closed = 1;
nodes = (
(898,667,l),
(898,803,l),
(275,803,l),
(275,667,l)
);
}
);
width = 1098;
},
{
anchors = (
{
name = bottom;
pos = (603,0);
},
{
name = ogonek;
pos = (1016,0);
},
{
name = top;
pos = (595,1432);
}
);
layerId = "ED70A957-8AC1-4977-BF37-207E470C4E2E";
shapes = (
{
closed = 1;
nodes = (
(1016,0,l),
(1016,174,l),
(376,174,l),
(376,1258,l),
(1000,1258,l),
(1000,1432,l),
(190,1432,l),
(190,0,l)
);
},
{
closed = 1;
nodes = (
(920,647,l),
(920,821,l),
(298,821,l),
(298,647,l)
);
}
);
width = 1117;
},
{
anchors = (
{
name = bottom;
pos = (631,0);
},
{
name = ogonek;
pos = (1084,0);
},
{
name = top;
pos = (623,1432);
}
);
layerId = "1DFF5E08-190B-46A4-A527-B6F0A79A5803";
shapes = (
{
closed = 1;
nodes = (
(1084,0,l),
(1084,286,l),
(484,286,l),
(484,1146,l),
(1068,1146,l),
(1068,1432,l),
(178,1432,l),
(178,0,l)
);
},
{
closed = 1;
nodes = (
(988,589,l),
(988,873,l),
(367,873,l),
(367,589,l)
);
}
);
width = 1179;
},
{
anchors = (
{
name = bottom;
pos = (640,0);
},
{
name = ogonek;
pos = (1106,0);
},
{
name = top;
pos = (632,1432);
}
);
layerId = "F632DC93-BEFD-4CC9-8CF6-AC4643A09268";
shapes = (
{
closed = 1;
nodes = (
(1106,0,l),
(1106,322,l),
(518,322,l),
(518,1110,l),
(1090,1110,l),
(1090,1432,l),
(174,1432,l),
(174,0,l)
);
},
{
closed = 1;
nodes = (
(1010,570,l),
(1010,888,l),
(390,888,l),
(390,570,l)
);
}
);
width = 1200;
}
);
unicode = 69;
}
{
color = 8;
glyphname = F;
kernLeft = H_left;
kernRight = F_right;
layers = (
{
layerId = "68A78E10-2392-4B34-B44D-B6A5B48D0FD1";
shapes = (
{
closed = 1;
nodes = (
(370,0,l),
(370,1258,l),
(1010,1258,l),
(1010,1432,l),
(184,1432,l),
(184,0,l)
);
},
{
closed = 1;
nodes = (
(950,624,l),
(950,798,l),
(292,798,l),
(292,624,l)
);
}
);
width = 1200;
},
{
layerId = "50ED6B91-33B7-40F5-8C2C-B1BEC3C77CF0";
shapes = (
{
closed = 1;
nodes = (
(452,0,l),
(452,1144,l),
(1050,1144,l),
(1050,1432,l),
(144,1432,l),
(144,0,l)
);
},
{
closed = 1;
nodes = (
(990,538,l),
(990,822,l),
(333,822,l),
(333,538,l)
);
}
);
width = 1200;
},
{
layerId = "B7DB719C-51CF-4BC3-BA18-7A6A1AAC666B";
shapes = (
{
closed = 1;
nodes = (
(342,0,l),
(342,1296,l),
(996,1296,l),
(996,1432,l),
(196,1432,l),
(196,0,l)
);
},
{
closed = 1;
nodes = (
(936,654,l),
(936,790,l),
(277,790,l),
(277,654,l)
);
}
);
width = 1200;
},
{
layerId = "D010C1AA-6BDD-4F06-9849-880CC2F29E88";
shapes = (
{
closed = 1;
nodes = (
(478,0,l),
(478,1106,l),
(1062,1106,l),
(1062,1432,l),
(130,1432,l),
(130,0,l)
);
},
{
closed = 1;
nodes = (
(1002,510,l),
(1002,830,l),
(346,830,l),
(346,510,l)
);
}
);
width = 1200;
},
{
layerId = "88819DE9-98C6-4AB7-BD8B-9DF84621D738";
shapes = (
{
closed = 1;
nodes = (
(342,0,l),
(342,1296,l),
(996,1296,l),
(996,1432,l),
(196,1432,l),
(196,0,l)
);
},
{
closed = 1;
nodes = (
(936,654,l),
(936,790,l),
(277,790,l),
(277,654,l)
);
}
);
width = 1092;
},
{
layerId = "ED70A957-8AC1-4977-BF37-207E470C4E2E";
shapes = (
{
closed = 1;
nodes = (
(378,0,l),
(378,1258,l),
(1018,1258,l),
(1018,1432,l),
(192,1432,l),
(192,0,l)
);
},
{
closed = 1;
nodes = (
(958,624,l),
(958,798,l),
(300,798,l),
(300,624,l)
);
}
);
width = 1110;
},
{
layerId = "1DFF5E08-190B-46A4-A527-B6F0A79A5803";
shapes = (
{
closed = 1;
nodes = (
(488,0,l),
(488,1144,l),
(1086,1144,l),
(1086,1432,l),
(180,1432,l),
(180,0,l)
);
},
{
closed = 1;
nodes = (
(1026,538,l),
(1026,822,l),
(369,822,l),
(369,538,l)
);
}
);
width = 1166;
},
{
layerId = "F632DC93-BEFD-4CC9-8CF6-AC4643A09268";
shapes = (
{
closed = 1;
nodes = (
(524,0,l),
(524,1106,l),
(1108,1106,l),
(1108,1432,l),
(176,1432,l),
(176,0,l)
);
},
{
closed = 1;
nodes = (
(1048,510,l),
(1048,830,l),
(392,830,l),
(392,510,l)
);
}
);
width = 1184;
}
);
unicode = 70;
}
{
color = 8;
glyphname = G;
kernLeft = O_left;
kernRight = G_right;
layers = (
{
anchors = (
{
name = bottom;
pos = (647,0);
},
{
name = top;
pos = (649,1432);
}
);
layerId = "68A78E10-2392-4B34-B44D-B6A5B48D0FD1";
shapes = (
{
closed = 1;
nodes = (
(956,-32,o),
(1138,190,o),
(1138,570,cs),
(1138,779,l),
(627,779,l),
(627,606,l),
(958,606,l),
(958,553,ls),
(958,286,o),
(850,144,o),
(647,144,cs),
(407,144,o),
(274,337,o),
(274,687,cs),
(274,731,ls),
(274,1087,o),
(410,1288,o),
(651,1288,cs),
(790,1288,o),
(883,1219,o),
(935,1078,c),
(1103,1153,l),
(1025,1356,o),
(868,1464,o),
(647,1464,cs),
(295,1464,o),
(86,1190,o),
(86,726,cs),
(86,692,ls),
(86,238,o),
(296,-32,o),
(646,-32,cs)
);
}
);
width = 1200;
},
{
anchors = (
{
name = bottom;
pos = (650,0);
},
{
name = top;
pos = (644,1432);
}
);
layerId = "50ED6B91-33B7-40F5-8C2C-B1BEC3C77CF0";
shapes = (
{
closed = 1;
nodes = (
(977,-34,o),
(1162,190,o),
(1162,588,cs),
(1162,816,l),
(600,816,l),
(600,569,l),
(878,569,l),
(878,525,ls),
(878,351,o),
(795,250,o),
(651,250,cs),
(469,250,o),
(372,403,o),
(372,690,cs),
(372,738,ls),
(372,1023,o),
(468,1178,o),
(645,1178,cs),
(753,1178,o),
(816,1125,o),
(850,1005,c),
(1127,1100,l),
(1058,1339,o),
(890,1466,o),
(643,1466,cs),
(285,1466,o),
(62,1185,o),
(62,733,cs),
(62,695,ls),
(62,244,o),
(286,-34,o),
(649,-34,cs)
);
}
);
width = 1200;
},
{
associatedMasterId = "68A78E10-2392-4B34-B44D-B6A5B48D0FD1";
layerId = "F0DAB264-3531-4050-94DB-118414906BF5";
name = "18 Mar 24, 19:15";
shapes = (
{
closed = 1;
nodes = (
(956,-32,o),
(1134,194,o),
(1134,570,cs),
(1134,779,l),
(623,779,l),
(623,606,l),
(954,606,l),
(954,553,ls),
(954,290,o),
(849,145,o),
(643,145,cs),
(412,145,o),
(280,330,o),
(280,657,cs),
(280,761,ls),
(280,1092,o),
(409,1288,o),
(635,1288,cs),
(780,1288,o),
(879,1215,o),
(933,1079,c),
(1096,1152,l),
(1018,1354,o),
(860,1464,o),
(635,1464,cs),
(294,1464,o),
(92,1195,o),
(92,756,cs),
(92,662,ls),
(92,232,o),
(298,-32,o),
(642,-32,cs)
);
}
);
width = 1200;
},
{
associatedMasterId = "50ED6B91-33B7-40F5-8C2C-B1BEC3C77CF0";
layerId = "64222670-DBD3-45E9-BB34-EF4C6C6A35F2";
name = "18 Mar 24, 19:17";
shapes = (
{
closed = 1;
nodes = (
(957,-34,o),
(1152,198,o),
(1152,588,cs),
(1152,816,l),
(589,816,l),
(589,569,l),
(862,569,l),
(862,541,ls),
(862,358,o),
(778,251,o),
(643,251,cs),
(474,251,o),
(378,401,o),
(378,672,cs),
(378,751,ls),
(378,1027,o),
(473,1177,o),
(643,1177,cs),
(746,1177,o),
(821,1117,o),
(856,1005,c),
(1126,1097,l),
(1053,1340,o),
(886,1466,o),
(640,1466,cs),
(290,1466,o),
(68,1183,o),
(68,737,cs),
(68,687,ls),
(68,233,o),
(286,-34,o),
(638,-34,cs)
);
}
);
width = 1200;
},
{
anchors = (
{
name = bottom;
pos = (646,0);
},
{
name = top;
pos = (651,1432);
}
);
layerId = "B7DB719C-51CF-4BC3-BA18-7A6A1AAC666B";
shapes = (
{
closed = 1;
nodes = (
(949,-30,o),
(1130,191,o),
(1130,564,cs),
(1130,767,l),
(636,767,l),
(636,618,l),
(985,618,l),
(985,562,ls),
(985,265,o),
(868,110,o),
(646,110,cs),
(386,110,o),
(241,316,o),
(241,686,cs),
(241,729,ls),
(241,1106,o),
(390,1322,o),
(651,1322,cs),
(800,1322,o),
(904,1249,o),
(962,1106,c),
(1095,1171,l),
(1014,1361,o),
(861,1462,o),
(648,1462,cs),
(298,1462,o),
(94,1191,o),
(94,724,cs),
(94,691,ls),
(94,237,o),
(299,-30,o),
(645,-30,cs)
);
}
);
width = 1200;
},
{
anchors = (
{
name = bottom;
pos = (651,0);
},
{
name = top;
pos = (643,1432);
}
);
layerId = "D010C1AA-6BDD-4F06-9849-880CC2F29E88";
shapes = (
{
closed = 1;
nodes = (
(984,-35,o),
(1170,190,o),
(1170,594,cs),
(1170,828,l),
(591,828,l),
(591,557,l),
(851,557,l),
(851,516,ls),
(851,373,o),
(777,285,o),
(652,285,cs),
(490,285,o),
(405,425,o),
(405,691,cs),
(405,740,ls),
(405,1002,o),
(487,1141,o),
(643,1141,cs),
(741,1141,o),
(794,1094,o),
(822,981,c),
(1135,1082,l),
(1069,1333,o),
(897,1467,o),
(642,1467,cs),
(282,1467,o),
(54,1183,o),
(54,735,cs),
(54,696,ls),
(54,246,o),
(283,-35,o),
(650,-35,cs)
);
}
);
width = 1200;
},
{
anchors = (
{
name = bottom;
pos = (676,0);
},
{
name = top;
pos = (681,1432);
}
);
layerId = "88819DE9-98C6-4AB7-BD8B-9DF84621D738";
shapes = (
{
closed = 1;
nodes = (
(979,-30,o),
(1160,191,o),
(1160,564,cs),
(1160,767,l),
(666,767,l),
(666,618,l),
(1015,618,l),
(1015,562,ls),
(1015,265,o),
(898,110,o),
(676,110,cs),
(416,110,o),
(271,316,o),
(271,686,cs),
(271,729,ls),
(271,1106,o),
(420,1322,o),
(681,1322,cs),
(830,1322,o),
(934,1249,o),
(992,1106,c),
(1125,1171,l),
(1044,1361,o),
(891,1462,o),
(678,1462,cs),
(328,1462,o),
(124,1191,o),
(124,724,cs),
(124,691,ls),
(124,237,o),
(329,-30,o),
(675,-30,cs)
);
}
);
width = 1274;
},
{
anchors = (
{
name = bottom;
pos = (679,0);
},
{
name = top;
pos = (681,1432);
}
);
layerId = "ED70A957-8AC1-4977-BF37-207E470C4E2E";
shapes = (
{
closed = 1;
nodes = (
(988,-32,o),
(1170,190,o),
(1170,570,cs),
(1170,779,l),
(659,779,l),
(659,606,l),
(990,606,l),
(990,553,ls),
(990,286,o),
(882,144,o),
(679,144,cs),
(439,144,o),
(306,337,o),
(306,687,cs),
(306,731,ls),
(306,1087,o),
(442,1288,o),
(683,1288,cs),
(822,1288,o),
(915,1219,o),
(967,1078,c),
(1135,1153,l),
(1057,1356,o),
(900,1464,o),
(679,1464,cs),
(327,1464,o),
(118,1190,o),
(118,726,cs),
(118,692,ls),
(118,238,o),
(328,-32,o),
(678,-32,cs)
);
}
);
width = 1280;
},
{
anchors = (
{
name = bottom;
pos = (688,0);
},
{
name = top;
pos = (682,1432);
}
);
layerId = "1DFF5E08-190B-46A4-A527-B6F0A79A5803";
shapes = (
{
closed = 1;
nodes = (
(1015,-34,o),
(1200,190,o),
(1200,588,cs),
(1200,816,l),
(638,816,l),
(638,569,l),
(916,569,l),
(916,525,ls),
(916,351,o),
(833,250,o),
(689,250,cs),
(507,250,o),
(410,403,o),
(410,690,cs),
(410,738,ls),
(410,1023,o),
(506,1178,o),
(683,1178,cs),
(791,1178,o),
(854,1125,o),
(888,1005,c),
(1165,1100,l),
(1096,1339,o),
(928,1466,o),
(681,1466,cs),
(323,1466,o),
(100,1185,o),
(100,733,cs),
(100,695,ls),
(100,244,o),
(324,-34,o),
(687,-34,cs)
);
}
);
width = 1298;
},
{
anchors = (
{
name = bottom;
pos = (691,0);
},
{
name = top;
pos = (683,1432);
}
);
layerId = "F632DC93-BEFD-4CC9-8CF6-AC4643A09268";
shapes = (
{
closed = 1;
nodes = (
(1024,-35,o),
(1210,190,o),
(1210,594,cs),
(1210,828,l),
(631,828,l),
(631,557,l),
(891,557,l),
(891,516,ls),
(891,373,o),
(817,285,o),
(692,285,cs),
(530,285,o),
(445,425,o),
(445,691,cs),
(445,740,ls),
(445,1002,o),
(527,1141,o),
(683,1141,cs),
(781,1141,o),
(834,1094,o),
(862,981,c),
(1175,1082,l),
(1109,1333,o),
(937,1467,o),
(682,1467,cs),
(322,1467,o),
(94,1183,o),
(94,735,cs),
(94,696,ls),
(94,246,o),
(323,-35,o),
(690,-35,cs)
);
}
);
width = 1304;
}
);
unicode = 71;
}
{
color = 8;
glyphname = H;
kernLeft = H_left;
kernRight = H_right;
layers = (
{
layerId = "68A78E10-2392-4B34-B44D-B6A5B48D0FD1";
shapes = (
{
closed = 1;
nodes = (
(1040,0,l),
(1040,1432,l),
(854,1432,l),
(854,0,l)
);
},
{
closed = 1;
nodes = (
(346,0,l),
(346,1432,l),
(160,1432,l),
(160,0,l)
);
},
{
closed = 1;
nodes = (
(937,646,l),
(937,820,l),
(265,820,l),
(265,646,l)
);
}
);
width = 1200;
},
{
layerId = "50ED6B91-33B7-40F5-8C2C-B1BEC3C77CF0";
shapes = (
{
closed = 1;
nodes = (
(1080,0,l),
(1080,1432,l),
(772,1432,l),
(772,0,l)
);
},
{
closed = 1;
nodes = (
(428,0,l),
(428,1432,l),
(120,1432,l),
(120,0,l)
);
},
{
closed = 1;
nodes = (
(899,588,l),
(899,872,l),
(313,872,l),
(313,588,l)
);
}
);
width = 1200;
},
{
layerId = "B7DB719C-51CF-4BC3-BA18-7A6A1AAC666B";
shapes = (
{
closed = 1;
nodes = (
(1027,0,l),
(1027,1432,l),
(881,1432,l),
(881,0,l)
);
},
{
closed = 1;
nodes = (
(319,0,l),
(319,1432,l),
(173,1432,l),
(173,0,l)
);
},
{
closed = 1;
nodes = (
(950,666,l),
(950,802,l),
(249,802,l),
(249,666,l)
);
}
);
width = 1200;
},
{
layerId = "D010C1AA-6BDD-4F06-9849-880CC2F29E88";
shapes = (
{
closed = 1;
nodes = (
(1093,0,l),
(1093,1432,l),
(745,1432,l),
(745,0,l)
);
},
{
closed = 1;
nodes = (
(455,0,l),
(455,1432,l),
(107,1432,l),
(107,0,l)
);
},
{
closed = 1;
nodes = (
(886,566,l),
(886,892,l),
(329,892,l),
(329,566,l)
);
}
);
width = 1200;
},
{
layerId = "88819DE9-98C6-4AB7-BD8B-9DF84621D738";
shapes = (
{
closed = 1;
nodes = (
(1088,0,l),
(1088,1432,l),
(942,1432,l),
(942,0,l)
);
},
{
closed = 1;
nodes = (
(340,0,l),
(340,1432,l),
(194,1432,l),
(194,0,l)
);
},
{
closed = 1;
nodes = (
(991,666,l),
(991,802,l),
(290,802,l),
(290,666,l)
);
}
);
width = 1282;
},
{
layerId = "ED70A957-8AC1-4977-BF37-207E470C4E2E";
shapes = (
{
closed = 1;
nodes = (
(1105,0,l),
(1105,1432,l),
(919,1432,l),
(919,0,l)
);
},
{
closed = 1;
nodes = (
(377,0,l),
(377,1432,l),
(190,1432,l),
(190,0,l)
);
},
{
closed = 1;
nodes = (
(985,646,l),
(985,820,l),
(313,820,l),
(313,646,l)
);
}
);
width = 1295;
},
{
layerId = "1DFF5E08-190B-46A4-A527-B6F0A79A5803";
shapes = (
{
closed = 1;
nodes = (
(1155,0,l),
(1155,1432,l),
(848,1432,l),
(848,0,l)
);
},
{
closed = 1;
nodes = (
(486,0,l),
(486,1432,l),
(178,1432,l),
(178,0,l)
);
},
{
closed = 1;
nodes = (
(966,586,l),
(966,874,l),
(380,874,l),
(380,586,l)
);
}
);
width = 1333;
},
{
layerId = "F632DC93-BEFD-4CC9-8CF6-AC4643A09268";
shapes = (
{
closed = 1;
nodes = (
(1172,0,l),
(1172,1432,l),
(824,1432,l),
(824,0,l)
);
},
{
closed = 1;
nodes = (
(522,0,l),
(522,1432,l),
(174,1432,l),
(174,0,l)
);
},
{
closed = 1;
nodes = (
(959,566,l),
(959,892,l),
(402,892,l),
(402,566,l)
);
}
);
width = 1346;
}
);
unicode = 72;
}
{
color = 8;
glyphname = I;
kernLeft = I_left;
kernRight = I_right;
layers = (
{
anchors = (
{
name = bottom;
pos = (600,0);
},
{
name = ogonek;
pos = (750,0);
},
{
name = top;
pos = (600,1432);
}
);
layerId = "68A78E10-2392-4B34-B44D-B6A5B48D0FD1";
shapes = (
{
closed = 1;
nodes = (
(694,91,l),
(694,1341,l),
(506,1341,l),
(506,91,l)
);
},
{
closed = 1;
nodes = (
(1022,0,l),
(1022,176,l),
(178,176,l),
(178,0,l)
);
},
{
closed = 1;
nodes = (
(1022,1257,l),
(1022,1432,l),
(178,1432,l),
(178,1257,l)
);
}
);
width = 1200;
},
{
anchors = (
{
name = bottom;
pos = (600,0);
},
{
name = ogonek;
pos = (774,0);
},
{
name = top;
pos = (600,1432);
}
);
layerId = "50ED6B91-33B7-40F5-8C2C-B1BEC3C77CF0";
shapes = (
{
closed = 1;
nodes = (
(755,139,l),
(755,1293,l),
(445,1293,l),
(445,139,l)
);
},
{
closed = 1;
nodes = (
(1058,0,l),
(1058,289,l),
(142,289,l),
(142,0,l)
);
},
{
closed = 1;
nodes = (
(1058,1144,l),
(1058,1432,l),
(142,1432,l),
(142,1144,l)
);
}
);
width = 1200;
},
{
anchors = (
{
name = bottom;
pos = (600,0);
},
{
name = ogonek;
pos = (729,0);
},
{
name = top;
pos = (600,1432);
}
);
layerId = "B7DB719C-51CF-4BC3-BA18-7A6A1AAC666B";
shapes = (
{
closed = 1;
nodes = (
(674,75,l),
(674,1357,l),
(526,1357,l),
(526,75,l)
);
},
{
closed = 1;
nodes = (
(1010,0,l),
(1010,138,l),
(190,138,l),
(190,0,l)
);
},
{
closed = 1;
nodes = (
(1010,1294,l),
(1010,1432,l),
(190,1432,l),
(190,1294,l)
);
}
);
width = 1200;
},
{
anchors = (
{
name = bottom;
pos = (600,0);
},
{
name = ogonek;
pos = (789,0);
},
{
name = top;
pos = (600,1432);
}
);
layerId = "D010C1AA-6BDD-4F06-9849-880CC2F29E88";
shapes = (
{
closed = 1;
nodes = (
(775,155,l),
(775,1277,l),
(425,1277,l),
(425,155,l)
);
},
{
closed = 1;
nodes = (
(1070,0,l),
(1070,326,l),
(130,326,l),
(130,0,l)
);
},
{
closed = 1;
nodes = (
(1070,1106,l),
(1070,1432,l),
(130,1432,l),
(130,1106,l)
);
}
);
width = 1200;
},
{
anchors = (
{
name = bottom;
pos = (486,0);
},
{
name = ogonek;
pos = (615,0);
},
{
name = top;
pos = (486,1432);
}
);
layerId = "88819DE9-98C6-4AB7-BD8B-9DF84621D738";
shapes = (
{
closed = 1;
nodes = (
(560,75,l),
(560,1357,l),
(412,1357,l),
(412,75,l)
);
},
{
closed = 1;
nodes = (
(896,0,l),
(896,138,l),
(76,138,l),
(76,0,l)
);
},
{
closed = 1;
nodes = (
(896,1294,l),
(896,1432,l),
(76,1432,l),
(76,1294,l)
);
}
);
width = 972;
},
{
anchors = (
{
name = bottom;
pos = (492,0);
},
{
name = ogonek;
pos = (642,0);
},
{
name = top;
pos = (492,1432);
}
);
layerId = "ED70A957-8AC1-4977-BF37-207E470C4E2E";
shapes = (
{
closed = 1;
nodes = (
(586,91,l),
(586,1341,l),
(398,1341,l),
(398,91,l)
);
},
{
closed = 1;
nodes = (
(914,0,l),
(914,176,l),
(70,176,l),
(70,0,l)
);
},
{
closed = 1;
nodes = (
(914,1257,l),
(914,1432,l),
(70,1432,l),
(70,1257,l)
);
}
);
width = 984;
},
{
anchors = (
{
name = bottom;
pos = (510,0);
},
{
name = ogonek;
pos = (684,0);
},
{
name = top;
pos = (510,1432);
}
);
layerId = "1DFF5E08-190B-46A4-A527-B6F0A79A5803";
shapes = (
{
closed = 1;
nodes = (
(665,139,l),
(665,1293,l),
(355,1293,l),
(355,139,l)
);
},
{
closed = 1;
nodes = (
(968,0,l),
(968,289,l),
(52,289,l),
(52,0,l)
);
},
{
closed = 1;
nodes = (
(968,1144,l),
(968,1432,l),
(52,1432,l),
(52,1144,l)
);
}
);
width = 1020;
},
{
anchors = (
{
name = bottom;
pos = (516,0);
},
{
name = ogonek;
pos = (705,0);
},
{
name = top;
pos = (516,1432);
}
);
layerId = "F632DC93-BEFD-4CC9-8CF6-AC4643A09268";
shapes = (
{
closed = 1;
nodes = (
(691,155,l),
(691,1277,l),
(341,1277,l),
(341,155,l)
);
},
{
closed = 1;
nodes = (
(986,0,l),
(986,326,l),
(46,326,l),
(46,0,l)
);
},
{
closed = 1;
nodes = (
(986,1106,l),
(986,1432,l),
(46,1432,l),
(46,1106,l)
);
}
);
width = 1032;
}
);
unicode = 73;
}
{
color = 2;
glyphname = J;
kernLeft = J_left;
kernRight = U_right;
layers = (
{
anchors = (
{
name = top;
pos = (905,1432);
}
);
layerId = "68A78E10-2392-4B34-B44D-B6A5B48D0FD1";
shapes = (
{
closed = 1;
nodes = (
(864,-32,o),
(1018,145,o),
(1018,444,cs),
(1018,1432,l),
(832,1432,l),
(832,448,ls),
(832,247,o),
(753,144,o),
(600,144,cs),
(458,144,o),
(365,224,o),
(321,383,c),
(148,319,l),
(212,97,o),
(379,-32,o),
(604,-32,cs)
);
}
);
width = 1200;
},
{
anchors = (
{
name = top;
pos = (873,1432);
}
);
layerId = "50ED6B91-33B7-40F5-8C2C-B1BEC3C77CF0";
shapes = (
{
closed = 1;
nodes = (
(877,-34,o),
(1058,162,o),
(1058,462,cs),
(1058,1432,l),
(748,1432,l),
(748,470,ls),
(748,331,o),
(691,256,o),
(586,256,cs),
(487,256,o),
(421,318,o),
(392,439,c),
(108,355,l),
(167,112,o),
(352,-34,o),
(599,-34,cs)
);
}
);
width = 1200;
},
{
anchors = (
{
name = top;
pos = (921,1432);
}
);
layerId = "B7DB719C-51CF-4BC3-BA18-7A6A1AAC666B";
shapes = (
{
closed = 1;
nodes = (
(853,-30,o),
(1004,140,o),
(1004,437,cs),
(1004,1432,l),
(858,1432,l),
(858,441,ls),
(858,220,o),
(768,110,o),
(588,110,cs),
(441,110,o),
(344,195,o),
(298,361,c),
(160,307,l),
(221,94,o),
(380,-30,o),
(589,-30,cs)
);
}
);
width = 1200;
},
{
anchors = (
{
name = top;
pos = (857,1432);
}
);
layerId = "D010C1AA-6BDD-4F06-9849-880CC2F29E88";
shapes = (
{
closed = 1;
nodes = (
(882,-35,o),
(1072,170,o),
(1072,469,cs),
(1072,1432,l),
(722,1432,l),
(722,477,ls),
(722,364,o),
(671,299,o),
(582,299,cs),
(498,299,o),
(441,353,o),
(417,458,c),
(96,367,l),
(155,117,o),
(344,-35,o),
(600,-35,cs)
);
}
);
width = 1200;
},
{
anchors = (
{
name = top;
pos = (811,1432);
}
);
layerId = "88819DE9-98C6-4AB7-BD8B-9DF84621D738";
shapes = (
{
closed = 1;
nodes = (
(743,-30,o),
(894,140,o),
(894,437,cs),
(894,1432,l),
(748,1432,l),
(748,441,ls),
(748,220,o),
(658,110,o),
(478,110,cs),
(331,110,o),
(234,195,o),
(188,361,c),
(50,307,l),
(111,94,o),
(270,-30,o),
(479,-30,cs)
);
}
);
width = 1075;
},
{
anchors = (
{
name = top;
pos = (805,1432);
}
);
layerId = "ED70A957-8AC1-4977-BF37-207E470C4E2E";
shapes = (
{
closed = 1;
nodes = (
(764,-32,o),
(918,145,o),
(918,444,cs),
(918,1432,l),
(732,1432,l),
(732,448,ls),
(732,247,o),
(653,144,o),
(500,144,cs),
(358,144,o),
(265,224,o),
(221,383,c),
(48,319,l),
(112,97,o),
(279,-32,o),
(504,-32,cs)
);
}
);
width = 1099;
},
{
anchors = (
{
name = top;
pos = (789,1432);
}
);
layerId = "1DFF5E08-190B-46A4-A527-B6F0A79A5803";
shapes = (
{
closed = 1;
nodes = (
(793,-34,o),
(974,162,o),
(974,462,cs),
(974,1432,l),
(664,1432,l),
(664,470,ls),
(664,331,o),
(607,256,o),
(502,256,cs),
(403,256,o),
(337,318,o),
(308,439,c),
(24,355,l),
(83,112,o),
(268,-34,o),
(515,-34,cs)
);
}
);
width = 1143;
},
{
anchors = (
{
name = top;
pos = (771,1432);
}
);
layerId = "F632DC93-BEFD-4CC9-8CF6-AC4643A09268";
shapes = (
{
closed = 1;
nodes = (
(796,-35,o),
(986,170,o),
(986,469,cs),
(986,1432,l),
(636,1432,l),
(636,477,ls),
(636,364,o),
(585,299,o),
(496,299,cs),
(412,299,o),
(355,353,o),
(331,458,c),
(10,367,l),
(69,117,o),
(258,-35,o),
(514,-35,cs)
);
}
);
width = 1152;
}
);
unicode = 74;
}
{
color = 8;
glyphname = K;
kernLeft = H_left;
kernRight = K_right;
layers = (
{
anchors = (
{
name = bottom;
pos = (634,0);
}
);
layerId = "68A78E10-2392-4B34-B44D-B6A5B48D0FD1";
shapes = (
{
closed = 1;
nodes = (
(1150,0,l),
(526,766,l),
(526,690,l),
(1127,1432,l),
(903,1432,l),
(341,725,l),
(341,719,l),
(922,0,l)
);
},
{
closed = 1;
nodes = (
(346,0,l),
(346,1432,l),
(160,1432,l),
(160,0,l)
);
}
);
width = 1200;
},
{
anchors = (
{
name = bottom;
pos = (612,0);
}
);
layerId = "50ED6B91-33B7-40F5-8C2C-B1BEC3C77CF0";
shapes = (
{
closed = 1;
nodes = (
(1174,0,l),
(691,791,l),
(691,673,l),
(1153,1432,l),
(804,1432,l),
(393,727,l),
(393,719,l),
(821,0,l)
);
},
{
closed = 1;
nodes = (
(402,0,l),
(402,1432,l),
(94,1432,l),
(94,0,l)
);
}
);
width = 1200;
},
{
anchors = (
{
name = bottom;
pos = (644,0);
}
);
layerId = "B7DB719C-51CF-4BC3-BA18-7A6A1AAC666B";
shapes = (
{
closed = 1;
nodes = (
(1144,0,l),
(477,758,l),
(477,696,l),
(1120,1432,l),
(937,1432,l),
(326,724,l),
(326,719,l),
(958,0,l)
);
},
{
closed = 1;
nodes = (
(330,0,l),
(330,1432,l),
(184,1432,l),
(184,0,l)
);
}
);
width = 1200;
},
{
anchors = (
{
name = bottom;
pos = (602,0);
}
);
layerId = "D010C1AA-6BDD-4F06-9849-880CC2F29E88";
shapes = (
{
closed = 1;
nodes = (
(1180,0,l),
(744,799,l),
(744,667,l),
(1160,1432,l),
(770,1432,l),
(409,728,l),
(409,719,l),
(786,0,l)
);
},
{
closed = 1;
nodes = (
(418,0,l),
(418,1432,l),
(70,1432,l),
(70,0,l)
);
}
);
width = 1200;
},
{
anchors = (
{
name = bottom;
pos = (650,0);
}
);
layerId = "88819DE9-98C6-4AB7-BD8B-9DF84621D738";
shapes = (
{
closed = 1;
nodes = (
(1150,0,l),
(483,758,l),
(483,696,l),
(1126,1432,l),
(943,1432,l),
(332,724,l),
(332,719,l),
(964,0,l)
);
},
{
closed = 1;
nodes = (
(336,0,l),
(336,1432,l),
(190,1432,l),
(190,0,l)
);
}
);
width = 1150;
},
{
anchors = (
{
name = bottom;
pos = (660,0);
}
);
layerId = "ED70A957-8AC1-4977-BF37-207E470C4E2E";
shapes = (
{
closed = 1;
nodes = (
(1176,0,l),
(552,766,l),
(552,690,l),
(1153,1432,l),
(929,1432,l),
(367,725,l),
(367,719,l),
(948,0,l)
);
},
{
closed = 1;
nodes = (
(372,0,l),
(372,1432,l),
(186,1432,l),
(186,0,l)
);
}
);
width = 1172;
},
{
anchors = (
{
name = bottom;
pos = (692,0);
}
);
layerId = "1DFF5E08-190B-46A4-A527-B6F0A79A5803";
shapes = (
{
closed = 1;
nodes = (
(1254,0,l),
(771,791,l),
(771,673,l),
(1233,1432,l),
(884,1432,l),
(473,727,l),
(473,719,l),
(901,0,l)
);
},
{
closed = 1;
nodes = (
(482,0,l),
(482,1432,l),
(174,1432,l),
(174,0,l)
);
}
);
width = 1238;
},
{
anchors = (
{
name = bottom;
pos = (702,0);
}
);
layerId = "F632DC93-BEFD-4CC9-8CF6-AC4643A09268";
shapes = (
{
closed = 1;
nodes = (
(1280,0,l),
(844,799,l),
(844,667,l),
(1260,1432,l),
(870,1432,l),
(509,728,l),
(509,719,l),
(886,0,l)
);
},
{
closed = 1;
nodes = (
(518,0,l),
(518,1432,l),
(170,1432,l),
(170,0,l)
);
}
);
width = 1260;
}
);
unicode = 75;
}
{
glyphname = L;
kernLeft = H_left;
kernRight = L_right;
layers = (
{
anchors = (
{
name = bottom;
pos = (632,0);
},
{
name = top;
pos = (291,1432);
}
);
layerId = "68A78E10-2392-4B34-B44D-B6A5B48D0FD1";
shapes = (
{
closed = 1;
nodes = (
(1066,0,l),
(1066,176,l),
(384,176,l),
(384,1432,l),
(198,1432,l),
(198,0,l)
);
}
);
width = 1200;
},
{
anchors = (
{
name = bottom;
pos = (635,0);
},
{
name = top;
pos = (316,1432);
}
);
layerId = "50ED6B91-33B7-40F5-8C2C-B1BEC3C77CF0";
shapes = (
{
closed = 1;
nodes = (
(1108,0,l),
(1108,290,l),
(470,290,l),
(470,1432,l),
(162,1432,l),
(162,0,l)
);
}
);
width = 1200;
},
{
anchors = (
{
name = bottom;
pos = (632,0);
},
{
name = top;
pos = (285,1432);
}
);
layerId = "B7DB719C-51CF-4BC3-BA18-7A6A1AAC666B";
shapes = (
{
closed = 1;
nodes = (
(1052,0,l),
(1052,138,l),
(358,138,l),
(358,1432,l),
(212,1432,l),
(212,0,l)
);
}
);
width = 1200;
},
{
anchors = (
{
name = bottom;
pos = (634,0);
},
{
name = top;
pos = (322,1432);
}
);
layerId = "D010C1AA-6BDD-4F06-9849-880CC2F29E88";
shapes = (
{
closed = 1;
nodes = (
(1120,0,l),
(1120,328,l),
(496,328,l),
(496,1432,l),
(148,1432,l),
(148,0,l)
);
}
);
width = 1200;
},
{
anchors = (
{
name = bottom;
pos = (610,0);
},
{
name = top;
pos = (263,1432);
}
);
layerId = "88819DE9-98C6-4AB7-BD8B-9DF84621D738";
shapes = (
{
closed = 1;
nodes = (
(1030,0,l),
(1030,138,l),
(336,138,l),
(336,1432,l),
(190,1432,l),
(190,0,l)
);
}
);
width = 1030;
},
{
anchors = (
{
name = bottom;
pos = (620,0);
},
{
name = top;
pos = (279,1432);
}
);
layerId = "ED70A957-8AC1-4977-BF37-207E470C4E2E";
shapes = (
{
closed = 1;
nodes = (
(1054,0,l),
(1054,176,l),
(372,176,l),
(372,1432,l),
(186,1432,l),
(186,0,l)
);
}
);
width = 1054;
},
{
anchors = (
{
name = bottom;
pos = (647,0);
},
{
name = top;
pos = (328,1432);
}
);
layerId = "1DFF5E08-190B-46A4-A527-B6F0A79A5803";
shapes = (
{
closed = 1;
nodes = (
(1120,0,l),
(1120,290,l),
(482,290,l),
(482,1432,l),
(174,1432,l),
(174,0,l)
);
}
);
width = 1120;
},
{
anchors = (
{
name = bottom;
pos = (656,0);
},
{
name = top;
pos = (344,1432);
}
);
layerId = "F632DC93-BEFD-4CC9-8CF6-AC4643A09268";
shapes = (
{
closed = 1;
nodes = (
(1142,0,l),
(1142,328,l),
(518,328,l),
(518,1432,l),
(170,1432,l),
(170,0,l)
);
}
);
width = 1142;
}
);
unicode = 76;
}
{
color = 8;
glyphname = M;
kernLeft = H_left;
kernRight = H_right;
layers = (
{
layerId = "68A78E10-2392-4B34-B44D-B6A5B48D0FD1";
shapes = (
{
closed = 1;
nodes = (
(263,0,l),
(263,755,l),
(243,1127,l),
(249,1127,l),
(535,459,l),
(665,459,l),
(951,1127,l),
(957,1127,l),
(937,755,l),
(937,0,l),
(1113,0,l),
(1113,1432,l),
(933,1432,l),
(688,886,l),
(603,665,l),
(597,665,l),
(512,886,l),
(267,1432,l),
(87,1432,l),
(87,0,l)
);
}
);
width = 1200;
},
{
layerId = "50ED6B91-33B7-40F5-8C2C-B1BEC3C77CF0";
shapes = (
{
closed = 1;
nodes = (
(339,0,l),
(339,487,l),
(308,945,l),
(322,945,l),
(497,431,l),
(703,431,l),
(878,945,l),
(892,945,l),
(861,487,l),
(861,0,l),
(1147,0,l),
(1147,1432,l),
(843,1432,l),
(691,1012,l),
(607,727,l),
(593,727,l),
(509,1012,l),
(357,1432,l),
(53,1432,l),
(53,0,l)
);
}
);
width = 1200;
},
{
layerId = "B7DB719C-51CF-4BC3-BA18-7A6A1AAC666B";
shapes = (
{
closed = 1;
nodes = (
(236,0,l),
(236,844,l),
(222,1177,l),
(226,1177,l),
(548,466,l),
(652,466,l),
(974,1177,l),
(978,1177,l),
(964,844,l),
(964,0,l),
(1102,0,l),
(1102,1432,l),
(962,1432,l),
(685,844,l),
(602,644,l),
(598,644,l),
(515,844,l),
(238,1432,l),
(98,1432,l),
(98,0,l)
);
}
);
width = 1200;
},
{
layerId = "D010C1AA-6BDD-4F06-9849-880CC2F29E88";
shapes = (
{
closed = 1;
nodes = (
(366,0,l),
(366,400,l),
(332,865,l),
(348,865,l),
(485,424,l),
(715,424,l),
(852,865,l),
(868,865,l),
(834,400,l),
(834,0,l),
(1158,0,l),
(1158,1432,l),
(812,1432,l),
(693,1054,l),
(608,748,l),
(592,748,l),
(507,1054,l),
(388,1432,l),
(42,1432,l),
(42,0,l)
);
}
);
width = 1200;
},
{
associatedMasterId = "68A78E10-2392-4B34-B44D-B6A5B48D0FD1";
layerId = "A0D54548-BE06-4EEE-B021-64B02A6F1D04";
name = "12 Oct 24, 23:35";
shapes = (
{
closed = 1;
nodes = (
(264,0,l),
(264,1090,l),
(269,1090,l),
(541,480,l),
(659,480,l),
(931,1094,l),
(936,1094,l),
(936,0,l),
(1112,0,l),
(1112,1432,l),
(930,1432,l),
(604,697,l),
(599,697,l),
(270,1432,l),
(88,1432,l),
(88,0,l)
);
}
);
width = 1200;
},
{
associatedMasterId = "50ED6B91-33B7-40F5-8C2C-B1BEC3C77CF0";
layerId = "D711D3DC-55CD-49CD-A666-2CC51BCB2206";
name = "12 Oct 24, 23:35";
shapes = (
{
closed = 1;
nodes = (
(344,0,l),
(328,906,l),
(338,906,l),
(502,419,l),
(698,419,l),
(862,911,l),
(872,911,l),
(856,0,l),
(1146,0,l),
(1146,1432,l),
(840,1432,l),
(607,735,l),
(599,735,l),
(364,1432,l),
(54,1432,l),
(54,0,l)
);
}
);
width = 1200;
},
{
layerId = "88819DE9-98C6-4AB7-BD8B-9DF84621D738";
shapes = (
{
closed = 1;
nodes = (
(336,0,l),
(336,844,l),
(323,1177,l),
(326,1177,l),
(722,466,l),
(830,466,l),
(1225,1177,l),
(1229,1177,l),
(1215,844,l),
(1215,0,l),
(1357,0,l),
(1357,1432,l),
(1214,1432,l),
(874,844,l),
(778,644,l),
(774,644,l),
(678,844,l),
(337,1432,l),
(194,1432,l),
(194,0,l)
);
}
);
width = 1551;
},
{
layerId = "ED70A957-8AC1-4977-BF37-207E470C4E2E";
shapes = (
{
closed = 1;
nodes = (
(370,0,l),
(370,755,l),
(352,1115,l),
(358,1115,l),
(722,458,l),
(856,458,l),
(1220,1115,l),
(1226,1115,l),
(1207,755,l),
(1207,0,l),
(1387,0,l),
(1387,1432,l),
(1203,1432,l),
(890,886,l),
(792,665,l),
(786,665,l),
(688,886,l),
(374,1432,l),
(190,1432,l),
(190,0,l)
);
}
);
width = 1577;
},
{
layerId = "1DFF5E08-190B-46A4-A527-B6F0A79A5803";
shapes = (
{
closed = 1;
nodes = (
(470,0,l),
(470,489,l),
(439,927,l),
(452,927,l),
(721,432,l),
(933,432,l),
(1203,927,l),
(1215,927,l),
(1184,489,l),
(1184,0,l),
(1476,0,l),
(1476,1432,l),
(1168,1432,l),
(936,1012,l),
(834,727,l),
(820,727,l),
(719,1012,l),
(486,1432,l),
(178,1432,l),
(178,0,l)
);
}
);
width = 1654;
},
{
layerId = "F632DC93-BEFD-4CC9-8CF6-AC4643A09268";
shapes = (
{
closed = 1;
nodes = (
(503,0,l),
(503,400,l),
(468,865,l),
(483,865,l),
(721,424,l),
(959,424,l),
(1197,865,l),
(1212,865,l),
(1176,400,l),
(1176,0,l),
(1506,0,l),
(1506,1432,l),
(1157,1432,l),
(951,1054,l),
(848,748,l),
(832,748,l),
(729,1054,l),
(523,1432,l),
(174,1432,l),
(174,0,l)
);
}
);
width = 1680;
}
);
unicode = 77;
}
{
color = 2;
glyphname = N;
kernLeft = H_left;
kernRight = H_right;
layers = (
{
anchors = (
{
name = bottom;
pos = (627,0);
},
{
name = top;
pos = (601,1432);
}
);
layerId = "68A78E10-2392-4B34-B44D-B6A5B48D0FD1";
shapes = (
{
closed = 1;
nodes = (
(296,0,l),
(296,806,l),
(274,1138,l),
(279,1138,l),
(928,0,l),
(1092,0,l),
(1092,1432,l),
(904,1432,l),
(904,671,l),
(925,340,l),
(920,340,l),
(298,1432,l),
(108,1432,l),
(108,0,l)
);
}
);
width = 1200;
},
{
anchors = (
{
name = bottom;
pos = (634,0);
},
{
name = top;
pos = (603,1432);
}
);
layerId = "50ED6B91-33B7-40F5-8C2C-B1BEC3C77CF0";
shapes = (
{
closed = 1;
nodes = (
(368,0,l),
(368,615,l),
(348,944,l),
(356,944,l),
(849,0,l),
(1130,0,l),
(1130,1432,l),
(831,1432,l),
(831,861,l),
(851,532,l),
(843,532,l),
(375,1432,l),
(70,1432,l),
(70,0,l)
);
}
);
width = 1200;
},
{
anchors = (
{
name = bottom;
pos = (625,0);
},
{
name = top;
pos = (602,1432);
}
);
layerId = "B7DB719C-51CF-4BC3-BA18-7A6A1AAC666B";
shapes = (
{
closed = 1;
nodes = (
(268,0,l),
(268,870,l),
(249,1202,l),
(253,1202,l),
(956,0,l),
(1080,0,l),
(1080,1432,l),
(932,1432,l),
(932,608,l),
(951,276,l),
(947,276,l),
(272,1432,l),
(120,1432,l),
(120,0,l)
);
}
);
width = 1200;
},
{
anchors = (
{
name = bottom;
pos = (627,0);
},
{
name = top;
pos = (604,1432);
}
);
layerId = "D010C1AA-6BDD-4F06-9849-880CC2F29E88";
shapes = (
{
closed = 1;
nodes = (
(394,0,l),
(394,551,l),
(374,879,l),
(383,879,l),
(822,0,l),
(1142,0,l),
(1142,1432,l),
(806,1432,l),
(806,924,l),
(826,596,l),
(817,596,l),
(402,1432,l),
(58,1432,l),
(58,0,l)
);
}
);
width = 1200;
},
{
anchors = (
{
name = bottom;
pos = (701,0);
},
{
name = top;
pos = (678,1432);
}
);
layerId = "88819DE9-98C6-4AB7-BD8B-9DF84621D738";
shapes = (
{
closed = 1;
nodes = (
(344,0,l),
(344,870,l),
(325,1202,l),
(329,1202,l),
(1032,0,l),
(1156,0,l),
(1156,1432,l),
(1008,1432,l),
(1008,608,l),
(1027,276,l),
(1023,276,l),
(348,1432,l),
(196,1432,l),
(196,0,l)
);
}
);
width = 1352;
},
{
anchors = (
{
name = bottom;
pos = (711,0);
},
{
name = top;
pos = (685,1432);
}
);
layerId = "ED70A957-8AC1-4977-BF37-207E470C4E2E";
shapes = (
{
closed = 1;
nodes = (
(380,0,l),
(380,806,l),
(358,1138,l),
(363,1138,l),
(1012,0,l),
(1176,0,l),
(1176,1432,l),
(988,1432,l),
(988,671,l),
(1009,340,l),
(1004,340,l),
(382,1432,l),
(192,1432,l),
(192,0,l)
);
}
);
width = 1368;
},
{
anchors = (
{
name = bottom;
pos = (744,0);
},
{
name = top;
pos = (713,1432);
}
);
layerId = "1DFF5E08-190B-46A4-A527-B6F0A79A5803";
shapes = (
{
closed = 1;
nodes = (
(478,0,l),
(478,615,l),
(458,944,l),
(466,944,l),
(959,0,l),
(1240,0,l),
(1240,1432,l),
(941,1432,l),
(941,861,l),
(961,532,l),
(953,532,l),
(485,1432,l),
(180,1432,l),
(180,0,l)
);
}
);
width = 1420;
},
{
anchors = (
{
name = bottom;
pos = (745,0);
},
{
name = top;
pos = (722,1432);
}
);
layerId = "F632DC93-BEFD-4CC9-8CF6-AC4643A09268";
shapes = (
{
closed = 1;
nodes = (
(512,0,l),
(512,551,l),
(492,879,l),
(501,879,l),
(940,0,l),
(1260,0,l),
(1260,1432,l),
(924,1432,l),
(924,924,l),
(944,596,l),
(935,596,l),
(520,1432,l),
(176,1432,l),
(176,0,l)
);
}
);
width = 1436;
}
);
unicode = 78;
}
